<svg xmlns="http://www.w3.org/2000/svg" xml:space="preserve" fill-rule="evenodd" stroke-linejoin="round" stroke-miterlimit="2" clip-rule="evenodd" viewBox="0 0 100 100">
  <path fill="none" d="M0 0h100v100H0z"/>
  <path fill="#01426a" d="M49.028 26.789 37.639 45.956c-1.181 1.944-1.806 3.958-2.014 5.902h-4.444c.277-2.43 1.25-4.722 3.194-8.055L42.361 30.4c1.597-2.639 3.195-3.611 6.042-3.611h.625Zm3.333 10.347c2.014 0 3.958.07 5.903.278l-5.139 8.472c-1.319 2.431-1.944 4.375-2.083 5.972h-4.028c-.07-.486 0-1.319.139-1.944-1.736 1.25-4.306 2.083-5.834 2.083-2.708.07-2.222-2.222-1.458-4.097 3.125-7.361 6.736-10.764 12.5-10.764Zm-4.236 9.792 4.444-7.222h-.555c-3.125 0-5.625 2.43-8.056 7.083-.625 1.25-.625 2.083.348 2.153 1.388-.07 2.986-1.25 3.819-2.014Zm45.972-9.792c2.014 0 3.959.07 5.903.278l-5.139 8.472c-1.319 2.431-1.944 4.375-2.083 5.972H88.75c-.069-.486 0-1.319.139-1.944-1.736 1.25-4.306 2.083-5.833 2.083-2.709.07-2.223-2.222-1.459-4.097 3.125-7.361 6.736-10.764 12.5-10.764Zm-4.166 9.792 4.444-7.222h-.556c-3.125 0-5.625 2.43-8.055 7.083-.625 1.25-.625 2.083.347 2.153 1.389-.07 2.986-1.25 3.82-2.014Zm-9.028 8.958h-1.32c-1.736 0-3.264-1.18-3.68-2.847L73.889 45.4l-3.75 6.319h-4.306l12.084-20.416c1.527-2.639 3.194-3.611 6.041-3.611h.417l-8.056 13.541 6.042-4.166h4.861L77.083 44.15l3.82 11.736ZM41.042 25.608h.694s-.625 1.042-1.389 2.292L29.514 45.956c-1.181 2.013-1.806 3.958-2.014 5.902h-4.583c.277-2.291 1.041-4.375 2.777-7.361l7.917-12.916-10.694 7.777h5.069s-1.736 2.709-4.792 2.778c0 0-1.805.07-4.375.139L5.625 51.858H0l12.917-9.305c-6.042.208-12.57.486-12.57.486l2.222-2.083c1.598-1.528 3.612-1.598 6.112-1.598h8.68l13.472-9.791c4.028-2.848 6.111-3.959 10.209-3.959Zm21.597 15.625c-.07.417.069.625.903 1.111l1.25.834c1.319.903 1.875 2.222 1.736 3.333-.417 3.056-2.709 5.486-7.431 5.486-2.083 0-2.986-.069-5.486-.486l1.806-3.125c1.736.278 2.708.486 3.958.417 1.806 0 2.5-.834 2.569-1.459.07-.416-.138-.833-.972-1.458L60 45.192c-1.597-1.111-2.014-2.014-1.806-3.403.417-2.708 3.473-4.722 7.778-4.722 1.32 0 2.847.069 4.445.277l-1.667 2.917c-1.042-.069-2.778-.139-4.028-.139-1.18.07-2.014.486-2.083 1.111ZM97.5 49.15c.764 0 1.458.625 1.458 1.458 0 .764-.625 1.459-1.458 1.459-.764 0-1.389-.625-1.389-1.459 0-.764.625-1.458 1.389-1.458Zm0 2.569c.625 0 1.111-.486 1.111-1.18 0-.625-.486-1.181-1.111-1.181s-1.111.486-1.111 1.181c0 .694.486 1.18 1.111 1.18Zm-.139-.347h-.278v-1.528h.556c.278 0 .555.209.555.487 0 .208-.138.416-.347.486l.347.625h-.347l-.347-.556h-.139v.486Zm.208-.833c.209 0 .278-.07.278-.208 0-.139-.069-.209-.278-.209h-.208v.486h.208v-.069Zm-85 16.25H9.375l-.625 1.805H7.153l2.986-7.847h1.805l2.987 7.847h-1.667l-.695-1.805ZM9.931 65.4h2.152l-1.111-2.986L9.931 65.4Zm10.416 3.194v-7.847h1.528v7.847h-1.528Zm10.486-2.986h-.764v3.056h-1.527v-7.917h3.055c1.528 0 2.5 1.042 2.5 2.431 0 1.111-.625 1.944-1.666 2.222l1.666 3.194h-1.736l-1.528-2.986Zm.486-1.319c.764 0 1.25-.417 1.25-1.111 0-.695-.486-1.111-1.25-1.111h-1.25v2.152h1.25v.07Zm8.959 4.305v-7.847h1.528v6.389h3.472v1.458h-5Zm10.972 0v-7.847h1.528v7.847H51.25Zm13.264 0-3.542-5.555v5.555h-1.528v-7.847h1.875l3.264 5.209v-5.209h1.528v7.847h-1.597Zm8.264.07v-7.917h4.93v1.459h-3.402v1.805h3.055V65.4h-3.055v1.806h3.402v1.458h-4.93Zm15.139-5.625c-.07-.417-.417-1.111-1.459-1.111-.764 0-1.25.486-1.25.972 0 .417.278.764.834.903l1.111.208c1.458.278 2.222 1.181 2.222 2.292 0 1.18-1.042 2.43-2.847 2.43-2.084 0-2.986-1.319-3.125-2.43l1.389-.347c.069.763.625 1.458 1.736 1.458.833 0 1.25-.417 1.25-.972 0-.486-.347-.834-.972-.903l-1.112-.208c-1.25-.278-2.083-1.042-2.083-2.223 0-1.389 1.25-2.43 2.708-2.43 1.875 0 2.639 1.18 2.848 2.014l-1.25.347Z"/>
</svg>