<svg xmlns="http://www.w3.org/2000/svg" xml:space="preserve" fill-rule="evenodd" stroke-linejoin="round" stroke-miterlimit="2" clip-rule="evenodd" viewBox="0 0 100 100">
  <path fill="none" d="M0 0h100v100H0z"/>
  <path fill="#f90" fill-rule="nonzero" d="M74.427 71.577c-27.547 13.119-44.646 2.147-55.592-4.504-.681-.445-1.833.078-.838 1.231 3.666 4.425 15.607 15.082 31.187 15.082 15.633 0 24.902-8.51 26.081-10.002 1.152-1.467.34-2.279-.838-1.807Zm7.751-4.268c-.76-.969-4.504-1.153-6.887-.865-2.357.289-5.918 1.755-5.604 2.619.157.314.471.183 2.095.026 1.65-.157 6.206-.733 7.175.524.942 1.231-1.467 7.201-1.912 8.17-.419.969.157 1.23.969.576.786-.629 2.226-2.304 3.169-4.661.968-2.357 1.545-5.656.995-6.389Z"/>
  <path fill="#ccc" d="M55.887 44.815c0 3.457.105 6.311-1.649 9.375-1.388 2.487-3.614 4.006-6.101 4.006-3.405 0-5.368-2.566-5.368-6.389 0-7.542 6.755-8.903 13.118-8.903v1.911ZM64.79 66.34c-.577.511-1.418.606-2.094.235-2.907-2.435-3.431-3.587-5.054-5.891-4.844 4.923-8.275 6.415-14.559 6.415-7.411 0-13.198-4.582-13.198-13.773 0-7.149 3.876-12.046 9.427-14.429 4.766-2.094 11.469-2.487 16.575-3.063v-1.152c0-2.095.184-4.583-1.047-6.39-1.1-1.623-3.142-2.304-4.975-2.304-3.352 0-6.363 1.728-7.096 5.316-.158.785-.734 1.571-1.519 1.597l-8.589-.917c-.707-.157-1.519-.733-1.309-1.833 1.964-10.395 11.364-13.537 19.743-13.537 4.295 0 9.925 1.152 13.303 4.399 4.32 4.032 3.901 9.374 3.901 15.187v13.774c0 4.137 1.702 5.944 3.326 8.196.576.785.707 1.754 0 2.357-1.833 1.492-5.028 4.294-6.808 5.839"/>
</svg>