<svg xmlns="http://www.w3.org/2000/svg" xml:space="preserve" fill-rule="evenodd" stroke-linejoin="round" stroke-miterlimit="2" clip-rule="evenodd" viewBox="0 0 100 100">
  <path fill="none" d="M0 0h100v100H0z"/>
  <clipPath id="a">
    <path d="M0 0h100v100H0z"/>
  </clipPath>
  <g fill-rule="nonzero" clip-path="url(#a)">
    <path fill="#435061" d="M16.612 54.327h-.031l-1.598 4.521h3.23l-1.601-4.521Zm2.854 8.081-.776-2.222h-4.188l-.783 2.222h-1.784l3.746-9.884h1.993l3.692 9.884h-1.9Zm15.165-8.628v-1.648h1.745v1.652l-1.745-.004Zm.019 8.628v-7.527h1.707v7.527H34.65ZM22.044 53.78v-1.648h1.749v1.652l-1.749-.004Zm.02 8.628v-7.527h1.706v7.527h-1.706Zm10.725 0V52.14h-1.706v10.268h1.706Zm-5.444-3.672v3.672h-1.714v-5.592c0-.539-.058-1.563-.077-1.939h1.376c.147 0 .194.07.194.214l.015.93h.039c.33-.825 1.156-1.351 2.044-1.299.473 0 .822.155.884.179 0 .321-.039 1.035-.054 1.225-.012.116-.062.159-.125.159-.058 0-.085-.012-.116-.023-.223-.084-.46-.125-.698-.121-.915 0-1.768.66-1.768 2.595Zm15.557 3.672v-4.863c0-.931-.427-1.493-1.221-1.493-1.047 0-1.745 1.117-1.745 2.625v3.731h-1.707v-5.534c0-.605-.058-1.493-.089-1.993h1.377c.155 0 .194.066.194.206.007.155.023.938.023.938h.039c.205-.357.729-1.303 2.303-1.303 1.629 0 2.532 1.113 2.532 2.358v5.328h-1.706Zm4.723-4.537h3.164c.066-1.214-.574-1.892-1.535-1.892-1.001 0-1.583.729-1.629 1.892Zm4.215 2.885c.097 0 .124.077.132.167.031.321.054 1.046.054 1.229-.186.062-1.101.395-2.334.395-2.397 0-3.839-1.233-3.839-3.905 0-2.291 1.225-3.916 3.435-3.916 2.172 0 3.203 1.446 3.203 3.25 0 .209-.023.57-.062 1.043h-4.823c0 1.283.818 2.21 2.33 2.21.834 0 1.501-.299 1.764-.427.051-.027.078-.046.14-.046Zm4.002 1.791c2.225 0 3.288-.907 3.288-2.257 0-1.333-.946-1.892-1.947-2.221l-.83-.272c-.686-.233-1.043-.531-1.043-.973 0-.465.427-.795 1.319-.795.787 0 1.435.318 1.69.442.039.019.082.047.152.047.05 0 .116-.035.128-.167.015-.252.046-.706.046-1.148-.205-.097-.954-.481-2.16-.481-1.834 0-2.966.958-2.966 2.218 0 1.222.838 1.78 1.76 2.086l.83.28c.962.318 1.233.608 1.233 1.058 0 .586-.62.873-1.698.873-.88 0-1.485-.318-1.726-.439-.05-.019-.077-.042-.147-.042-.124 0-.132.167-.132.194-.008.077-.046.86-.046 1.124.201.082 1.074.473 2.249.473ZM4.676 41.992h-.031l-1.601 4.517h3.234l-1.602-4.517Zm2.862 8.081-.783-2.218H2.567l-.783 2.218H0l3.75-9.88h1.985l3.695 9.88H7.538Zm27.911-8.628v-1.648h1.745v1.648h-1.745Zm.023 8.628v-7.53h1.707v7.534l-1.707-.004Zm-3.668-3.672v3.672h-1.71v-5.592c0-.539-.062-1.562-.085-1.938h1.38c.152 0 .194.066.194.213l.016.93h.039c.33-.824 1.156-1.348 2.043-1.295.303-.002.604.058.884.175 0 .322-.039 1.031-.05 1.221-.008.124-.066.163-.128.163-.058 0-.082-.011-.117-.023a1.9069 1.9069 0 0 0-.698-.12c-.915 0-1.768.659-1.768 2.594Zm-12.618 3.672v-4.816c0-.865-.36-1.539-1.252-1.539-.993 0-1.57 1.089-1.57 2.617v3.738h-1.707v-4.835c0-.788-.329-1.52-1.24-1.52-1.012 0-1.579 1.089-1.579 2.675v3.68h-1.717V44.59c0-.71-.066-1.71-.078-2.047h1.361c.155 0 .202.054.213.213l.012.93h.039c.42-.836 1.299-1.347 2.233-1.299.934-.036 1.797.513 2.16 1.373a2.4982 2.4982 0 0 1 2.257-1.373c1.532 0 2.575.823 2.575 2.478v5.208h-1.707Zm4.727-4.537h3.161c.065-1.214-.57-1.892-1.532-1.892-1.008 0-1.582.725-1.629 1.892Zm4.215 2.885c.093 0 .124.081.132.167.027.322.054 1.047.051 1.233-.183.058-1.098.392-2.331.392-2.404 0-3.839-1.241-3.839-3.905 0-2.288 1.229-3.917 3.44-3.917 2.163 0 3.199 1.447 3.199 3.25 0 .213-.024.57-.062 1.043h-4.824c0 1.287.814 2.21 2.326 2.21.838 0 1.501-.302 1.769-.426.05-.028.077-.047.139-.047Zm21.428-2.168h-.291c-2.144 0-2.567.749-2.567 1.505 0 .62.411 1.206 1.21 1.206 1.066 0 1.648-1.028 1.648-2.113v-.598Zm.411 3.82c-.136 0-.248-.05-.264-.248l-.054-.718h-.015c-.101.136-.726 1.106-2.292 1.106-1.493 0-2.35-1.152-2.35-2.42 0-1.753 1.706-2.637 4.234-2.637h.334v-.275c0-.787-.562-1.214-1.609-1.214-.939 0-1.722.334-2.028.489-.02.007-.078.038-.128.038-.078 0-.124-.046-.128-.139-.012-.283-.047-.822-.051-1.167.311-.121 1.334-.504 2.459-.504 2.233 0 3.195 1.047 3.195 2.698v2.936c0 1.074.101 1.772.132 2.055h-1.435Zm-5.902-1.652c.043 0 .109.027.121.159.034.361.05.946.05 1.128-.615.319-1.296.492-1.989.505-2.276 0-3.676-1.319-3.676-3.909 0-2.428 1.241-3.917 3.676-3.917.81 0 1.551.284 1.989.508 0 .268-.027.873-.05 1.133-.008.104-.059.155-.121.155-.069 0-.093-.016-.132-.035a3.4958 3.4958 0 0 0-1.531-.399c-1.45 0-2.051.95-2.051 2.555 0 1.435.476 2.551 2.051 2.551a3.555 3.555 0 0 0 1.485-.376c.089-.042.105-.058.178-.058Zm13.355 1.652V45.21c0-.93-.427-1.492-1.218-1.492-1.047 0-1.745 1.116-1.745 2.629v3.722h-1.714v-5.522c0-.608-.054-1.493-.077-2.001h1.369c.155 0 .201.066.201.21l.016.934h.039c.209-.349.732-1.299 2.303-1.299 1.628 0 2.536 1.109 2.536 2.354v5.332h-1.71"/>
    <path fill="url(#b)" d="M79.686 65.178c2.131 3.504 5.535 3.434 6.441 3.434h10.95L84.158 52.927c-5.959.247-9.114 4.069-8.467 5.672l3.995 6.579"/>
    <path fill="url(#c)" d="M75.691 58.599c-.015-.027-.354-.818-.354-1.774 0-3.581 3.174-5.632 6.781-6.374l2.04 2.477c-5.959.246-9.114 4.068-8.467 5.671"/>
    <path fill="url(#d)" d="M80.673 46.958c-5.446 0-9.512.897-9.512 3.029 0 .783.245 1.464.911 2.662l3.619 5.95c-.015-.027-.354-.818-.354-1.774 0-3.581 3.174-5.632 6.781-6.374 1.044-.212 2.107-.319 3.172-.318.885 0 1.714.047 2.352.278-.376-1.371-1.371-3.453-6.969-3.453"/>
    <path fill="url(#e)" d="M66.346 43.246c1.498 2.456 2.052 3.068 5.618 3.073h6.811l-9.39-11.86c-2.073-2.561-3.267-3.031-5.17-3.071h-5.088l7.219 11.858"/>
    <path fill="#435061" d="M99.12 67.72c.124 0 .186-.054.186-.143 0-.082-.066-.14-.186-.14-.039 0-.055.008-.062.008v.271h.062v.004Zm.015.105h-.077v.349h-.148v-.838h.249c.193 0 .294.097.294.244 0 .171-.135.218-.163.221l.202.369h-.171l-.186-.345Zm-.655-.055c0 .372.305.677.677.677.371 0 .676-.305.676-.677 0-.371-.305-.676-.676-.676-.372 0-.677.305-.677.676Zm1.52 0c0 .462-.38.842-.841.842-.462 0-.842-.38-.842-.842 0-.461.38-.841.842-.841.461 0 .841.38.841.841"/>
  </g>
  <defs>
    <linearGradient id="b" x1="0" x2="1" y1="0" y2="0" gradientTransform="matrix(0 24.1679 24.1679 0 86.1568 52.5421)" gradientUnits="userSpaceOnUse">
      <stop offset="0" stop-color="#ed1c24"/>
      <stop offset=".39" stop-color="#ed1c24"/>
      <stop offset=".81" stop-color="#751317"/>
      <stop offset="1" stop-color="#751317"/>
    </linearGradient>
    <linearGradient id="c" x1="0" x2="1" y1="0" y2="0" gradientTransform="matrix(8.82039 0 0 -8.82039 75.3375 54.5253)" gradientUnits="userSpaceOnUse">
      <stop offset="0" stop-color="#641f1f"/>
      <stop offset=".74" stop-color="#d32828"/>
      <stop offset="1" stop-color="#d32828"/>
    </linearGradient>
    <linearGradient id="d" x1="0" x2="1" y1="0" y2="0" gradientTransform="scale(11.4663 -11.4663) rotate(31 11.6159 9.369)" gradientUnits="userSpaceOnUse">
      <stop offset="0" stop-color="#f2f6f7"/>
      <stop offset=".22" stop-color="#f2f6f7"/>
      <stop offset="1" stop-color="#97a7ad"/>
    </linearGradient>
    <linearGradient id="e" x1="0" x2="1" y1="0" y2="0" gradientTransform="scale(16.6973 -16.6973) rotate(90 3.51 .6195)" gradientUnits="userSpaceOnUse">
      <stop offset="0" stop-color="#202f6e"/>
      <stop offset=".57" stop-color="#25b3ed"/>
      <stop offset="1" stop-color="#25b3ed"/>
    </linearGradient>
  </defs>
</svg>