<svg xmlns="http://www.w3.org/2000/svg" xml:space="preserve" fill-rule="evenodd" stroke-linejoin="round" stroke-miterlimit="2" clip-rule="evenodd" viewBox="0 0 100 100">
  <path fill="none" d="M0 0h100v100H0z"/>
  <path fill="#b3b3b3" fill-rule="nonzero" d="M77.333 68.439c-1.029 2.371-2.235 4.545-3.644 6.55-1.917 2.729-3.481 4.619-4.694 5.669-1.869 1.72-3.874 2.601-6.028 2.655-1.537 0-3.4-.44-5.567-1.334a15.9767 15.9767 0 0 0-5.995-1.321c-2.12.04-4.212.489-6.163 1.321-2.201.894-3.976 1.354-5.331 1.402-2.059.088-4.111-.813-6.163-2.723-1.307-1.145-2.947-3.102-4.904-5.873a40.588 40.588 0 0 1-5.188-10.308 37.7426 37.7426 0 0 1-2.181-12.28c0-4.538.982-8.453 2.946-11.731 1.544-2.642 3.597-4.714 6.164-6.245 2.574-1.524 5.351-2.303 8.344-2.35 1.639 0 3.786.508 6.448 1.497 2.662 1.002 4.369 1.51 5.121 1.51.555 0 2.458-.596 5.669-1.775 3.048-1.097 5.608-1.551 7.715-1.368 5.696.461 9.976 2.709 12.828 6.753-5.1 3.089-7.62 7.41-7.572 12.964.047 4.321 1.618 7.918 4.7 10.769a15.4241 15.4241 0 0 0 4.687 3.075c-.362 1.061-.76 2.109-1.192 3.143ZM64.261 17.01c0 3.387-1.24 6.55-3.705 9.483-2.98 3.474-6.57 5.486-10.478 5.168-.054-.407-.081-.833-.081-1.287 0-3.251 1.422-6.726 3.928-9.571 1.26-1.442 2.852-2.641 4.789-3.596 1.703-.88 3.567-1.408 5.479-1.551.048.454.068.907.068 1.354Z"/>
</svg>