<svg xmlns="http://www.w3.org/2000/svg" xml:space="preserve" fill-rule="evenodd" stroke-linejoin="round" stroke-miterlimit="2" clip-rule="evenodd" viewBox="0 0 100 100">
  <path fill="none" d="M0 0h100v100H0z"/>
  <clipPath id="a">
    <path d="M0 0h100v100H0z"/>
  </clipPath>
  <g clip-path="url(#a)">
    <path fill="#004580" d="M13.864 65.023H.305c-.112-.091-.217-.192-.305-.308V39.016c.308-.325.774-.218 1.172-.229 4.005.002 8.009 0 12.014 0 1.178-.039 2.371.139 3.477.551 1.86.668 3.462 2.167 4.064 4.074.266.723.324 1.502.378 2.264-.049.816-.148 1.646-.457 2.41-.37.895-.904 1.757-1.7 2.332-.192.185-.489.264-.629.497 1.059.382 1.971 1.107 2.658 1.991 1.129 1.478 1.444 3.433 1.252 5.247-.101 1.196-.445 2.383-1.069 3.412-.417.641-.931 1.228-1.555 1.673-1.363 1.012-3.049 1.478-4.715 1.67-.341.046-.691.021-1.026.115ZM4.639 53.321c-.086.027-.169.079-.195.172-.157.302-.124.649-.123.977.003 2.004-.002 4.008.002 6.011.005.286.164.692.51.657 2.735.002 5.471-.001 8.206.001.275.009.55 0 .821-.05.962-.082 1.959-.275 2.77-.83.652-.461 1.01-1.225 1.149-1.994.185-.887.116-1.815-.142-2.682-.231-.668-.686-1.277-1.325-1.601-.844-.464-1.812-.604-2.758-.684H4.906c-.09-.002-.179.006-.267.023Zm-.144-10.548c-.128.157-.093.371-.1.559.011 1.947-.018 3.894.014 5.841.12.149.303.251.497.24 2.589.002 5.179-.003 7.767.003.361.016.715-.06 1.071-.11.805-.117 1.61-.436 2.172-1.044.385-.382.56-.913.69-1.426.031-.415.164-.833.048-1.247-.056-.702-.341-1.385-.816-1.906-.666-.603-1.557-.892-2.436-.999-.282-.027-.568.015-.847-.041-.347-.075-.702-.039-1.054-.043-2.125-.003-4.25.002-6.375-.003-.221 0-.442.061-.631.176Zm35.815 22.25H26.76c-.211-.123-.415-.317-.388-.585.001-8.355.001-16.71 0-25.065-.009-.231.129-.448.323-.565.304-.05.616-.015.923-.021 4.249 0 8.499.003 12.749-.001 1.92.098 3.872.77 5.259 2.14 1.056 1.043 1.691 2.474 1.844 3.942-.003.581.024 1.164-.016 1.744-.183 1.246-.672 2.501-1.61 3.373-.265.277-.553.535-.89.723-.07.059-.217.088-.174.207 1.079.439 2.052 1.174 2.723 2.132.288.395.495.841.694 1.286.396.894.47 1.884.528 2.849-.049.746-.093 1.498-.271 2.228-.26 1.272-.921 2.451-1.845 3.359-.377.311-.758.623-1.182.871-1.194.731-2.583 1.069-3.959 1.251-.384.065-.78.03-1.158.132Zm-9.076-22.399c-.141.033-.294.084-.369.218-.132.186-.094.423-.099.637.006 1.783.002 3.567.001 5.35-.012.232.142.433.319.566.527.046 1.058.005 1.587.018 2.248-.001 4.495.003 6.743-.001.753-.085 1.533-.184 2.195-.585.681-.307 1.112-.97 1.343-1.656.175-.556.115-1.143.118-1.715-.05-.406-.18-.806-.364-1.17-.529-.907-1.546-1.407-2.556-1.554-.397-.1-.809-.018-1.208-.1-.305-.059-.615-.03-.922-.033-2.174-.002-4.349.003-6.522-.003-.09.001-.179.01-.266.028Zm-.148 10.699c-.218.047-.328.277-.317.485-.001 2.102.002 4.203-.001 6.304.003.268-.027.547.077.801.053.18.272.221.435.224 2.784.004 5.568-.003 8.353.004.368.018.727-.076 1.094-.093.938-.117 1.901-.388 2.625-1.025.571-.575.85-1.381.911-2.177.074-.394.091-.798.009-1.192-.071-.893-.383-1.845-1.123-2.403-.895-.691-2.055-.851-3.148-.953-2.784.001-5.569.001-8.353 0-.187.004-.378-.016-.562.025Zm32.04 11.7h-.323c-.486-.304-.649-.897-.927-1.368-4.331-8.102-8.654-16.212-12.99-24.311-.132-.269.13-.591.415-.558 1.368-.001 2.737.006 4.107-.003.159-.008.335.015.419.17.325.498.587 1.035.848 1.57l.541.999c.304.659.697 1.271.998 1.931.403.685.722 1.415 1.125 2.1.346.74.78 1.433 1.121 2.175.297.519.567 1.052.836 1.586.341.553.58 1.16.917 1.716.235.409.409.85.652 1.254.309.513.525 1.074.833 1.585.306.513.513 1.079.842 1.578.147.277.629.278.777 0 .328-.5.536-1.065.841-1.578.273-.448.465-.94.733-1.391.308-.513.524-1.074.833-1.587.305-.533.542-1.102.864-1.626.374-.786.827-1.531 1.197-2.32.304-.515.559-1.055.836-1.584.324-.523.548-1.098.865-1.623.274-.471.475-.979.753-1.447.281-.465.477-.974.759-1.439.377-.633.62-1.347 1.066-1.94.101-.156.299-.121.459-.13 1.344.013 2.689.003 4.033.004.183-.021.337.101.423.253.086.253-.098.483-.214.691-4.274 7.989-8.536 15.984-12.809 23.974-.245.457-.452.953-.83 1.319Zm22.609-30.046h.328c.389.248.537.714.752 1.099 2.957 5.542 5.918 11.081 8.879 16.621 1.43 2.699 2.89 5.383 4.306 8.089v.053c-.084.152-.151.392-.369.371-1.438.004-2.879.007-4.316-.002-.345.014-.438-.362-.568-.605-.262-.497-.544-.981-.78-1.491-.403-.685-.721-1.415-1.125-2.1-.31-.677-.711-1.305-1.023-1.98-.192-.409-.446-.786-.637-1.196-.283-.608-.651-1.171-.926-1.784-.415-.72-.759-1.477-1.174-2.196-.292-.645-.68-1.24-.975-1.883-.205-.443-.481-.849-.685-1.293-.267-.576-.622-1.106-.876-1.688-.126-.225-.213-.538-.48-.628-.172-.014-.412-.057-.509.127-.448.72-.776 1.506-1.208 2.236-.309.677-.713 1.305-1.024 1.98-.184.393-.427.755-.613 1.146-.141.294-.285.587-.452.868-.295.498-.506 1.041-.805 1.537-.261.436-.446.911-.706 1.347-.273.449-.464.941-.733 1.392-.307.513-.524 1.074-.833 1.586-.26.435-.444.91-.705 1.345-.273.449-.464.942-.733 1.393-.289.482-.502 1.006-.774 1.497-.093.146-.182.329-.366.371-.281.05-.569.021-.853.024-1.1 0-2.2-.004-3.299.004-.199-.004-.438-.001-.574-.172-.043-.187-.027-.389.075-.554 4.485-8.409 8.98-16.812 13.47-25.22.069-.128.192-.214.311-.294Z"/>
  </g>
</svg>