<svg xmlns="http://www.w3.org/2000/svg" xml:space="preserve" fill-rule="evenodd" stroke-linejoin="round" stroke-miterlimit="2" clip-rule="evenodd" viewBox="0 0 100 100">
  <path fill="none" d="M0 0h100v100H0z"/>
  <path fill="#00b4ff" d="M28.744 63.079c-.2-.06-.213-.218-.432-.354l-.106-.075.079-.099c.902-1.129.399-.787 1.433-1.48.243-.739.272-3.283.266-4.052v-.294l.052-.033c.285-.215.269-.215.274-.291.002-.053-.01-.148-.014-.286.027-.226-.302-.414-.312-1.015.01-.421.141-1.029.414-1.334l-.102-13.354.046-.037c.101-.081.178-.13.227-.162l.046-.027-.003-.037c.009-.052-.083-.069-.26-.171l-.051-.037-.402-6.796c-.075-.297-.344-.395-.66-.488-.257-.077-.586-.146-.665-.44-.293-.001-.41-.02-.512-.13-.085-.1-.097-.186-.393-.399l-.102-.073.077-.098c.115-.151.268-.343.304-.406l.045-.085.092.026c.314.092 1.76.153 3.124.151 1.252.002 2.492-.056 2.733-.149l.092-.036.053.091c.116.194.217.287.379.489l.027.033v.643l-.088.023c-.763.206-1.59.909-1.573 1.493.011.464.061.431.093.458.093.031.243.173.218.557.007.302-.158.467-.28.557-.126.103-.182.128-.189.288 0 1.006.143 3.715.143 6.012 0 1.111-.035 2.128-.132 2.819.105.11.101.266.14.43.031.196.062.416.1.493l.01.019.048.029.171.992-.063.044c-.125.087-.195.129-.291.235-.178.191-.231.476-.231.763 0 .298.055.575.057.751-.004.089-.033.155-.033.362 0 .17.022.427.105.809.036.202-.002.622.044.844.011.073.025.092.031.09l.05.027.007.058c.031.204.041.414.041.604 0 .386-.039.696-.041.7l-.007.054-.046.031c-.123.083-.187.131-.293.237-.209.217-.266.375-.268.559-.007.371.301.887.303 1.799v.125c.027.177.331 1.062.429 1.176l.049.037-.168 2.375-.052.032c-.133.091-.2.126-.283.232-.101.123-.129.234-.133.366 0 .193.087.43.154.714.258 1.065.17.472 2.124 1.881l.04.03.16 1.149-.194-.077c-.218-.086-.332-.098-.459-.1-.063 0-.132.006-.215.006h-.064l-.023-.031-.036-.005c-.068 0-.217.026-.476.157l-.064.033-.057-.041c-.089-.07-.627-.134-1.226-.129-.93-.004-2.103.108-2.417.237-.445.432-.564.539-.73.559h-.005c-.07 0-.12-.044-.129-.056v-.002Zm9.081-14.11c.103-.188-.029-1.168 1.325-2.626.072-.346.636-3.137 1.182-3.981.062-.077.22-.177.428-.337.138-.106.276-.206.343-.256.031-.179.212-.686 1.252-1.649-.044-.169-.152-.608-.154-1.097 0-.315.044-.646.181-.945l.014-.03.024-.016c.674-.481 1.079-1.581 2.141-2.575v-2.113l-3.441-.034c-.514.486-1.874.537-1.883 2.333v.119h-.124c-.106-.004-.42.096-.674.256-.263.16-.462.38-.454.553v2.538c-.014.247-.2.511-.643 1.246l-.078.125-.106-.099c-.226-.204-.3-.397-.296-.553.002-.12.027-.208.024-.272-.001-.083-.016-.169-.263-.351l-.044-.028-.008-.053s-.091-.652-.168-1.059c-.034-.238-.052-.468-.092-.466l-.079-.052.033-.088c0-.002.29-.774.29-1.47 0-.348-.075-.666-.261-.855-.106-.106-.172-.154-.295-.239l-.054-.037v-2.979l.025-.031c-.001-.002.3-.41.291-.695l-.002-.062-.018-.137h.138c4.418 0 4.824.037 9.162.037h.119v1.728c-.027.268.285.308.312.759v5.719l-.042.037c-.292.249-.386.675-.384 1.071-.002.447.109.835.109.835l.027.082-.072.048c-.913.636-1.379 3.172-1.928 3.823v1.472l-.073.033c-.002.002-1.266.545-1.498 1.2-.059.15-.081.357-.081.563 0 .406.086.805.086.805l.021.097-.092.039c-1.035.387-2.696 5.035-2.663 5.302v.846l-.13.012.067.063-.009.014a.828.828 0 0 0-.058.117c-.048.106-.111.266-.185.459-.146.387-.333.911-.527 1.45-.371 1.013-.754 2.061-1.007 2.452.171.246.184.244.195.235.031.002.128-.019.281-.019.278.009.393-.156 1.593-.751.259-.089.567.088 1.485-.337.145-.042.517-.738.967-1.391.441-.628 1.018-1.262 1.792-1.321.048-.33.246-1.006.572-1.324l.112-.106.075.132c.057.103.105.171.165.252.994-.461.553-.948 1.072-1.578l.033-.043h.885l-.006.125s-.004.125-.004.309c-.004.414.028 1.167.164 1.483l.052.125-.131.037c-.482.11-.26.499-.664.926-.057.088-.099.692-.093 1.382 0 1.396.104 3.286.108 3.287l.005.127h-.127c-.125-.015-.996.33-1.149.62l-.037.056h-3.573l-.034-.056c-.201-.325-.206-.316-.226-.306-.042-.005-.164.025-.377.025-.386.007-.482.134-.603.287-.104.152-.235.387-.582.387h-.011c-.008-.006-.702-.131-1.048-.503h-2.437l-.035-.057c-.165-.287-.317-.267-.329-.574.035-.156.11-.176.214-.307.084-.088.181-.184.255-.25v-2.036l.049-.035c.293-.215.272-.196.272-.252 0-.044-.008-.123-.01-.24-.004-.002 0-.008-.013-.039a1.598 1.598 0 0 0-.048-.125 5.4 5.4 0 0 0-.162-.36c-.121-.258-.297-.535-.351-.565l-.1-.071.071-.096c.151-.206.197-.391.197-.555.001-.329-.19-.566-.19-.566l-.024-.027-.004-.031c-.025-.16-.036-.33-.036-.503.002-.992.35-2.153.349-2.747v-.063l-.002-.064.051-.038c.315-.177.208-1.202.588-1.987.345-.672 1.102-1.534 1.096-1.52ZM59.787 61.2c-.005.552.284.666.317 1.014v2.937l-.054.033c-.166.118-.239.177-.259.197.002.013.008.048.008.096 0 .038-.006.081-.012.137l-.016.104h-4.708l-.036-.061c-.064-.111-.121-.186-.193-.284l-1.554-.166c-.301.334-.788.646-1.191.784l-.019.006h-.02c-1.184 0-1.845.056-2.527.056-.315.06-1.167.576-1.821.583h-.052l-.035-.038c-.252-.272-.318-.564-.316-.809 0-.231.048-.428.048-.53v-1.248l.052-.034c.135-.094.207-.125.288-.23.061-.077.09-.215.09-.362 0-.298-.11-.623-.11-.623l-.03-.088.074-.052c.287-.204.455-.279.588-.545.048-.103.071-.252.071-.402 0-.306-.079-.613-.079-.613l-.023-.084.069-.046c.137-.093.206-.127.285-.228.056-.071.083-.194.083-.331 0-.276-.101-.572-.101-.572l-.005-.021v-.019c.019-.174.231-.489.318-.794.077-.268.108-.607.108-.938 0-.665-.114-1.288-.114-1.314.006-.302-.173-.367-.307-.718-.234-.665-.307-1.474-.307-2.257 0-1.57.302-3.045.307-3.069l1.873-4.973c-.013-.069-.189-.118-.306-.355-.023-.063-.036-.123-.036-.174.003-.114.028-.177.028-.291v-.05l.036-.035c-.003-.003.44-.448.434-.928 0-.17-.004-.266-.004-.362 0-.049 0-.097.004-.162.071-.367.842-1.306.938-2.196.014-.113.017-.255.017-.389 0-.27-.017-.52-.017-.528.023-.301 1.286-3.207 2.19-4.109v-1.112l.052-.035c.064-.037.277-.213.26-.308v-.008c-.002-.09-.009-.035-.169-.225h-1.657l-.033-.062c-.083-.141-.117-.211-.216-.312-.121-.121-.29-.167-.492-.167-.41-.002-.856.193-1.066.202-.059-.021-.296.181-.495.645-.207.459-.411 1.147-.56 2.044-.294 1.874-.605 2.128-1.005 2.135-.066 0-.12-.007-.17-.003-.135.005-.229.005-.404.277l-.077.125-.108-.096c-.139-.125-.318-.292-.376-.327l-.079-.054.032-.091c.12-.307.154-.525.154-.693.006-.329-.154-.505-.161-.871.014-.292.285-.551.47-.728v-5.811l.112-.007c.102-.008.346-.008.955-.008 1.216 0 3.871.008 9.607.008h.07l.037.059c.19.314.2.293.211.288.021 0 .085-.011.175-.011.02 0 .046 0 .072.003l.106.015v.401l-.029.035c-.278.313-.384 1.417-1.294 2.334.015.106.04.338.04.588 0 .167-.01.342-.051.498-.155.601-.317.703-.928 1.281.018.107.049.338.049.587 0 .172-.014.347-.06.503-.217.539-.601.296-.622.915 0 0-.174 1.191-.332 1.947-.16.749-.546 1.185-.541 1.758 0 .085.01.171.027.291l-.094 3.067-.048.035c-.456.271-.374 2.029-1.199 2.911v1.069l-.007.019c-.252.665-.734.627-.93 1.483v3.489l-.939 2.699c.009.101.037.485.037.901 0 .24-.009.491-.04.709-.127.857-.694 1.9-.979 2.386-.071.114-.106.176-.139.225.004.025.007.052.007.078-.007.344-.251.926-.297 1.042-.021.222-.191.533-.283.708.119.117.154.162.242.158.016.009.101-.079.208-.278l.056-.097.1.049c.195.093.366.122.542.122.348.003.716-.131 1.18-.131.125-.023.143-.108.18-.351.03-.223.063-.535.305-.795.471-.497 1.513-.603 1.738-.782 1.269-.88 1.795-.47 2.625-1.822l.077-.127.109.1c.107.1.191.19.286.308h1.574l.036.058c.16.276.482.47.491.91-.063.323-.306.215-.316.928Zm7.953-6.324c-.002 1.716-.034 3.394-.136 3.814l-.01.044-.038.027c-.166.096-.399.811-.627 1.562-.235.734-.489 1.52-.889 1.941v1.786l-.048.037c-.36.221-.419 1.592-.888 2.147v1.115l-.053.039a1.986 1.986 0 0 0-.259.206v1.446l-.05.039c-.266.175-.237.343-.542.358-.081.006-.134-.055-.16-.09-.029.009-.086.028-.171.077l-.178.098.005-1.945-.944-3.08v-.928c.057-.698-1.539-1.239-1.562-2.707v-.048l.031-.035c-.002-.009 1.911-2.047 1.999-4.822v-.006c.052-.185-.805-.799-1.716-1.281-.867-.491-1.755-.924-2.044-1.213h-.564l.268.789v1.696c.418.111.682.623.945.652.066.002.168.083.162.177-.046.278-.423.516-.487.9l-.015.104-.108-.008c-.002 0-.961-.061-1.741-.061-.391 0-.746.017-.875.057-1.487.497-3.179 1.133-3.181 1.133l-.093.036-.054-.084c-.404-.682-.062-.493-.439-1.033l-.048-.071.05-.067c.572-.77.707-.906 1.11-1.268.007-.191.046-.859.286-1.271.322-.481 1.03-.62.963-.788.013-.035-.077-.119-.262-.239l-.061-.042.009-.071s.114-.994.218-1.539c.036-.147.044-.237.082-.322-.044-.132-.147-.497-.151-.861.004-.227.04-.462.192-.641.104-.12.203-.172.286-.233v-1.358l.051-.035c.223-.174.247-.179.26-.408-.015-.108.005-.054-.096-.114-.105-.034-.25-.176-.237-.431 0-.068.006-.144.024-.243.038-.185.051-.335.051-.462.002-.302-.081-.501-.082-.782 0-.125.016-.258.067-.412.152-.481.391-.682.596-1.075-.001-.004.355-.751.355-1.759v-.068l.06-.035c.708-.364.287-1.95.836-3.211.277-.599.477-1.167.857-1.532.006-.037.01-.075.01-.109.003-.222-.111-.413-.116-.655-.004-.114.035-.239.125-.348.106-.138.218-.186.303-.25.055-.204.347-1.167.676-1.764.197-.346.197-.541.612-.923v-1.364l.05-.037c.2-.15.191-.178.237-.27.046-.102.135-.227.42-.41l.023-.014.027-.004c.291-.034.328-.29.331-.71 0-.113-.002-.233-.002-.352.002-.432.072-.967.677-.97 1.049.051.924 1.759 1.047 1.931.836 1.829 1.066 1.537 1.104 1.997v.931c-.008.791 1.133 3.738 1.142 3.753l.985 3.874c.098.084.179.158.271.223l.054.033v1.365c.254.243.335.436.335.603 0 .134-.042.224-.039.281.002.064.02.149.278.34l.05.034v1.839l-.091.018c-.001.024-.001.057-.001.094-.008.674.325 3.087.415 3.357l.024.015.007.057c.058.502.092 2.17.092 3.834Zm-7.833-4.681c0 .222-.009.409-.046.548l-.011.044c.173-.017.367-.031.568-.031.288 0 .602.025.915.095.912.198 1.415.827 2.016 1.011.07.004.136.004.198.004h.068c.012-.43.046-2.013.046-3.271 0-.697-.012-1.304-.044-1.535-.198-.229-.183-.662-.243-1.136-.045-.499-.137-1.017-.347-1.196-.367-.357-.853-.166-1.294-.613-.238-.262-.433-.689-.568-1.051l-.048 1.412-.002.059-.05.033c-.217.154-.268.395-.349.652-.065.226-.208.484-.545.542-.014.377-.046 1.643-.312 2.04-.02.114-.027.274-.027.456 0 .572.075 1.371.075 1.937ZM20.272 57.91c-.002.379.218 1.136.218 1.856 0 .168-.009.333-.04.495-.121.641-.526 1.549-.538 1.571 0 .002-.647.933-.901 1.579-.308.775-.435 2.141-.435 2.141l-.006.072-.064.031c-.002.002-1.3.599-2.016 1.13-.642.47-1.291.882-1.445 1.316l-.024.07-.07.011s-1.538.217-1.99.394c-.061.021-.086.035-.085.039-.088.111-.185.183-.301.186-.359-.067-.443-.481-.684-.452-.093-.002-.246.056-.463.266-.154.326-.624.335-1.14.35-.769 0-1.694-.142-1.9-.179-.107.054-.231.058-.373.06-.339 0-.778-.074-1.02-.071-.059-.003-.105.004-.123.01l-.064.112-.111-.101c-.138-.123-.317-.291-.375-.324l-.2-.132.223-.081c0-.003.726-.285.948-.498l-.004-.002.004-.003c.005-.01.013-.029.025-.052.021-.052.048-.127.079-.22.058-.186.129-.441.202-.732.15-.575.306-1.281.409-1.81 0-1.832.109-2.772.109-3.733 0-.478-.027-.965-.108-1.579-.029-.226-.126-1.915-.275-3.138 0-1.978.114-4.007.114-5.208 0-.227-.006-.427-.016-.587l-.004-.116.114-.009c.248-.02.352-.217.378-.278l-.072-1.566-.24-.505.033-2.288c.042-.333.3-.676.296-.671.027-.037.054-.257.05-.478 0-.303-.027-.63-.037-.724l-.342-.564v-7.962l.049-.036c.299-.216.293-.216.287-.256.002-.053-.022-.182-.022-.406 0-.228.013-.338.013-.371l-.008.002c-.031-.028-.088-.081-.174-.184-.064.005-.165.011-.267.016-.016.032-.046.07-.11.076-.084-.019-.102-.037-.136-.068h-.01c-.037 0-.056.003-.098-.008-.006-.009-.07.006-.094-.119.013-.057.028-.083.044-.096-.07-.073-.134-.145-.156-.178l-1.037-.991c-.136-.226-.204-.274-.229-.289-.023-.004-.136-.133-.105-.207 0-.064.003-.155.003-.327.004-.298-.014-.379.065-.493.068-.079.108-.079.266-.331l.035-.06h1.668c.225-.158.703-.204 1.25-.285.587-.073 1.192-.117 1.396-.117l1.653.056c1.668-.002 2.282-.162 3.16-.164.39 0 .829.032 1.428.129l.079.012.019.077c.123.485.599.691.832.891a1.53 1.53 0 0 1 .182-.011c.207 0 .525.037.814.233 1.044.711 1.612 2.415 1.618 3.313 0 .9.202 1.738.204 2.407 0 .393-.076.742-.308.967l-1.161 2.175c-.436.817-1.47 2.063-1.821 2.478.023.043.135.195.356.314.252.147.621.285 1.07.331.279.046.415.278.404.486-.006.413-.325.871-.36.915-.006.002-.026.031-.026.095-.001.081.033.2.081.287.051.092.112.123.116.121 0 0 .013.006.052-.052l.077-.125.106.104c.482.472.544.604.555.733.009.043-.086-.04.291.251l.065.048-.017.079c0 .002-.26 1.054-.26 2.138 0 .541.065 1.086.25 1.506.087.258.612.393.663.788 0 .086-.036.165-.098.237 0 .113.003.414.003.735 0 .207-.002.419-.003.601 0 .042-.002.081-.002.123 0 .987.183 1.928.183 2.79 0 .674-.116 1.303-.534 1.845-.017.019-.039.083-.037.189Zm-4.286-21.585c.009-.035-.022-.103.068-.151l.454-.32c-.517-.175-.965.139-1.401-.747l-.143-.002-1.384.198.084-.196a.3226.3226 0 0 0 .025-.104.9158.9158 0 0 1-.118.054c-.074.224-.063.329-.068.443.004.143-.083.281-.311.406v5.98c.124-.04.23-.055.32-.055h.013c.17 0 .292.075.338.104.622-.187.36-1.714 2.134-1.926-.002-.158-.009-.413-.009-.697.022-.705-.002-1.568.305-1.907-.077-.218-.3-.84-.307-1.08Zm.255 21.307c.008-.21.118-.396.11-.529-.003-.084-.017-.139-.135-.222l-.154-.094.146-.104c.087-.065.114-.131.118-.251.011-.367-.412-1.017-.421-1.63-.002-.275.099-.556.373-.77-.011-.733-.119-.83-.224-.941-.132-.128-.3-.312-.288-.973.009-.343.312-.967.306-1.329-.004-.135-.033-.191-.088-.218l-.105-.058.052-.104c.06-.115.081-.225.081-.332.002-.388-.296-.723-.298-.723l-.171-.191.253-.012a.3481.3481 0 0 0 .078-.011c-.013-.075-.226-.307-.245-.531-.004-.068.033-.151.083-.178.035-.036.046-.065.046-.113.023-.246-.503-.742-.491-.73-.599-.328-1.287-.988-1.295-.996l-.772-.797c.009.406.023 1.143.023 1.818 0 .49-.007.948-.033 1.225l-.003.037-.024.028c-.116.139-.171.432-.169.759-.002.652.193 1.415.193 1.415l.007.028-.331 1.613-.06.026c-.156.066-.219.154-.237.321l-.004.039c.004.162.079.279.241.347l.075.03v5.901l-.031.037c-.164.178-.263.216-.283.362-.019.114-.032.187-.048.241-.021.031-.002.068-.05.104.008.303.017 1 .017 2.492.002 0 .025.769.042 1.094l.032.029c.027.033.027.062.027.077-.024.142-.182.392-.353.728-.081.151-.162.299-.226.41.241-.032.61-.094.836-.18l.73-.661.041-.002c.528-.01 1.19-1.123 1.633-1.462.449-.367.245-1.639.439-2.677l.01-.046.029-.022h.002a.4185.4185 0 0 1 .027-.057c.021-.052.05-.127.079-.214.061-.177.131-.416.2-.661.133-.485.251-1.026.249-1.171v-.002a.389.389 0 0 1-.039-.169Zm64.566 5.358c.057.105.119.255.119.455 0 .162-.036.347-.129.578-.172.395-.062.507-.81 4.145l-.028.129-.123-.036c-.014-.013-1.139-.338-1.427-.609-1.664-1.618-2.102-1.712-2.803-1.714h-.449l-.028.002-.095.009-.033-.083c-.015-.04-.019-.077-.019-.118.01-.564.936-2.677 1.104-3.584.075-.38.129-1.968.129-3.043 0-.489-.014-.886-.034-1.015v-.014c0-.162-.193-1.5-.502-2.786-.283-1.293-.781-2.575-1.109-2.601l-.104-.027.013-.107c.095-.746.299-1.765.297-2.16.004-.073-.003-.11-.007-.113-.461-.875-1.389-2.616-1.924-2.855.019.16.035.291.035.427 0 .301-.088.588-.371 1.187-.125.25-.308.507-.302.695l.002.028.005.033-.011.025v.044c-.002.822.803 7.384.805 7.999v.013l.008.073-.066.039-.021.023a.4934.4934 0 0 0-.062.087c-.046.069-.085.162-.085.25l.004.027c-.019.071.233.247.272.554.031.386.063.838.063 1.301 0 .67-.061 1.356-.281 1.887.04.69.328 2.412.328 3.226 0 .11-.004.207-.02.288l-.003.026-.017.024c-.108.16-.158.165-.28.244.016.129.05.32.05.624 0 .416-.062 1.044-.296 2.048l-.093.396-.138-.383c-.688-1.872-1.763-3.002-2.668-3.731-.907-.76-1.64-.984-1.703-1.448.016-.018 1.094-3.881 1.574-4.337.04-.066.069-.249.067-.455 0-.295-.042-.642-.075-.865-.092-.082-.158-.141-.268-.212l-.055-.038.004-.069c.003-.066.003-1.068.003-2.354 0-2.445-.003-5.952-.003-6.318-.116-.212-.056-.534-.116-.626l.003-.002-.047-.031-.151-1.338c-.13-.191-.212-.551-.261-.557l-.055-.034-.002-.06c0-.003-.007-.334-.007-.663 0-.146 0-.292.007-.41-.066-.115-.068-.252-.099-.418-.024-.188-.059-.392-.089-.464l.002-.007-.056-.039.005-.07v-.105c.004-.203-.022-.659-.148-.915-.123-.162-.089-.387-.121-.687-.01-.265-.036-.561-.062-.627l-.038-.025-.017-1.612c-.259-.258-.326-.404-.326-.539 0-.053.01-.086.008-.099.002-.002.007-.053-.259-.246l-.042-.031-.006-.05c-.048-.379-.073-.915-.073-1.452 0-.54.025-1.077.073-1.456l.002-.04.029-.029c.517-.505 1.954-1.226 2.91-2.557-.243-.088-.886-.255-1.017-.281-.011.01-.031.035-.053.064-.044.056-.107.146-.23.183-.11.031-.196.082-.335.084-.096 0-.194-.028-.306-.094l-.058-.033-.003-.065c-.024-.493-.581-1.119-1.162-1.604-.536-.457-1.032-.771-1.198-.911l-1.143-.249.022-.239 4.53-.125c.408-.189.493-.218.789-.212.307-.017.371.117.531.337h1.65l.019.033c.018.008.042.019.075.029.07.029.169.064.289.102.239.083.555.183.869.283.616.195 1.226.377 1.222.381.077 0 .182-.004.3-.004.112 0 .242.004.378.024.542.071 1.031.425 1.428.751.372.328.724.624.745.6h.077l1.601 3.379c.05.149.056.401.056.705 0 .58-.044 1.291-.044 1.291l-.009.059-.044.033c-.003 0-.077.147-.117.309-.05.144-.075.28-.146.386.006.178.007.374.007.559 0 .403-.007.759-.013.788-.586 2.303-1.67 4.154-3.671 4.229.002.282.009.453.009.568.004.243-.065.294-.198.421.029.002.054.002.081.002.235.003.433-.087.695-.091.372 0 .778.208 1.453 1.023.45.206.338.759.402.968.019.079.033.085.056.092.24.09.372.142.462.191.091.043.158.155.148.23-.002.044-.008.073-.004.108 0 .067.01.167.101.357.094.241.125.968.243 1.049.125.234.128.953.163 1.718.017.734.085 1.533.129 1.541v.001c.081.072.062.139.093.226.019.102.036.221.063.339.044.25.141.4.199.389.019 0 .062-.012.128-.053l.109-.068.059.111c.158.308.549 3.421.595 3.669l.008.05-.025.042c-.077.079-.192 1.002-.192 1.151.021.034.13.075.319.121l.048.011.026.043c.119.2.404.823.421 1.148l.014.044-.035.05c-.102.15-.121.229-.123.32-.004.169.12.437.12 1.045 0 .38-.047.89-.197 1.63l.015.021c.016.029.043.069.072.119Zm-5.714-22.423c0-.337.068-.679.068-.686l.031-.145.072.032a.9289.9289 0 0 0 .042-.104c.039-.083.046-.171.116-.248l.003-.655s.037-.132.037-.365c0-.294-.06-.737-.329-1.226-.004-.006-.478-.674-1.042-1.345-.555-.675-1.26-1.336-1.527-1.313-.072-.002-.136-.004-.197-.004h-.066v9.247c.091.008.23.015.372.015.119.002.248-.006.347-.024.509-.092 1.048-.461 1.176-.632.289-.357.698-1.788.91-2.312-.011-.075-.013-.154-.013-.235ZM92.702 44.3c-.004.681-.027 1.265-.123 1.548l-.014.037-.031.024c-.084.03-.239.57-.428.81a2.43 2.43 0 0 0-.009.23c0 .373.053.816.053 1.246 0 .375-.039.741-.201 1.046-.271.621-.613.961-.732 1.074l-.202 1.541c-.295.759-.118.909-.231 1.133.021.294.179 2.642.179 4.405 0 .774-.029 1.428-.125 1.799-.214.494-.241 1.035-.241 1.608 0 .154.002.309.002.467-.002.594-.024 1.213-.262 1.801l-.328 1.763c-.273.757-.279.92-.649 1.369-.165.34-.237.441-.335.511-.088.064-.102.038-.258.213-.138.362-.778.463-1.513.698-.781.213-1.673.437-2.108.674a.3102.3102 0 0 1-.09.012c-.331-.02-.759-.401-.915-.38l-.021.004c-.132.238-.48.289-.889.387-.436.087-.939.139-1.257.139-.145-.002-.232-.002-.322-.043l-.142-.076.115-.114c.457-.461.921-1.231 1.002-2.148.001-.048.003-.102.003-.158.003-.718-.365-1.712-.367-1.712l-.041-.11.108-.042c.449-.162 1.391-.603 1.326-.77 0-.093-.019-.134-.024-.139l-.013-.004-.031-.004c-.06 0-.183.004-.249-.138l-.363-.9-.638-1.47.578-5.729c-.72-.787-1.389-3.042-1.406-3.258v-.93c.027-.269-.284-.31-.312-.753 0 0-.075-1.126-.075-1.984.004-.372.007-.673.055-.863-.079-.073-.142-.126-.239-.191l-.059-.038.129-2.182c-.07-.126-.073-.288-.116-.494-.034-.226-.073-.476-.11-.57l.005-.013-.057-.038v-6.381l.057-.037c.1-.07.166-.132.258-.21v-2.462l.053-.037c.101-.066.168-.13.259-.207v-1.753c-.322-.308-2.679-2.548-2.79-2.683l-.156-.196h1.805l.037.061c.062.112.117.183.189.279H81.5l.02.097c-.022.311 1.484.489 2.201 1.254h1.03l.037.059c.106.181.204.277.343.449h1.028l.036.06c.064.112.118.185.189.277h1.341l.034.059c.064.114.116.188.189.28h1.455l.036.058c.467.763 1.38 1.259 1.57 1.618 1.063 2.232.847 2.427 1.211 2.659l.053.037-.087 3.23c.077.122.109.3.179.515.066.23.143.485.18.535l.035.025.005.061c0 .001.117 1.706.117 3.065Zm-4.74 5.312c-.002-.869.453-1.242.613-1.345.056-.323.281-1.845.739-2.253v-3.097c-.229-.2-.329-.623-.439-1.049-.108-.449-.206-.934-.241-.971-.362-.538-1.117-.726-1.19-1.562-.745-.081-.846-.726-1.136-.667-.598-.002-.903-.046-1.355-.046-.142 0-.298.004-.479.015l-.125 1.172.088.404s.132 3.403.132 4.678c-.002.112-.002.201-.002.274l.007.007c.033.06.07.138.102.212.069.154.132.303.135.303l.006.023v.023c-.025.378.383 1.887.562 1.924l.064.035-.045 14.938c.463-.566 1.503-2.013 1.499-3.463v-.194c.351-1.199.738-1.599.855-2.281l-.002-.028c.006-.374-.005-6.137.217-6.897-.001-.053-.005-.105-.005-.155ZM45.92 69.341h-4.38l-.034-.062c-.064-.108-.12-.181-.191-.277H40.29l-.035-.058c-.184-.291-.256-.295-.32-.299-.04-.002-.101.014-.184.018-.156 0-.336-.077-.545-.337h-3.003c-.491-.029-.617-.306-.703-.451-.623-.05-4.526-.057-6.591-.057h-1.361l-.037-.057c-.11-.231-.89-.463-.913-.45H25.46c-.228.148-1.821 1.186-1.954 1.612l-.038.093-.096-.018c-.002 0-1.006-.165-1.847-.165-.421-.002-.805.047-.963.15l-.109.067-.06-.109c-.072-.126-.13-.197-.276-.298l-.107-.077.079-.097c.223-.287.203-.122.289-.538l.011-.06.917-.487c.359-.354.309-.2 1.104-.924v-1.45l.054-.035c.081-.048.266-.156.26-.322.002-.13-.091-.2-.262-.325l-.052-.037v-2.577l.054-.036c.1-.068.169-.13.26-.209v-1.105l.05-.037c.293-.213.269-.194.269-.252 0-.042-.007-.123-.007-.239.001-.407-.299-.639-.574-.834l-.052-.036-.01-4.301.075-.031c.211-.101.137-.063.245-.237a8.248 8.248 0 0 1-.075-1.121c0-.686.079-1.154.081-1.158l.008-.052.042-.029c.1-.067.169-.129.26-.206v-3.393l.054-.035c.071-.037.358-.437.346-.738v-.054c-.019-.257-.257-.564-.346-.616l-.054-.034v-4.746c-.089-.081-.155-.139-.26-.209l-.052-.034v-2.579l.05-.037c.243-.171.348-.333.579-.548.016-.18.066-.844.066-1.439 0-.326-.018-.634-.058-.812-.096-.084-.162-.142-.271-.215l-.108-.075.081-.1c.136-.164.531-1.2.522-1.498v-.024c-.074-.871-.532-1.728-.542-1.743-.013-.116-.377-.193-.623-.181-.05 0-.093.001-.125.001l-.026.05-.11-.061c-.366-.275.121-.461-1.575-1.699l-.102-.078.079-.097c.223-.283.2-.122.287-.54l.019-.096h.558l.037.06c.064.111.116.184.189.277h2.511l.035.058c.358.577.58.649.722.649.105.002.197-.05.336-.054.048 0 .104.014.184.072.004 0 .98 1.211 1.386 1.498l.05.035v3.168l-.052.037c-.226.173-.251.177-.261.408v.019l-.003.008c0 .021.027.239.577.637l.049.035v1.479l-.053.039c-.101.067-.169.123-.257.204v6.658c.281.249.443.261.61.594.149.31.178 1.124.183 2.137 0 2.009-.169 4.687-.169 4.687l-.005.06-.048.034c-.105.069-.171.126-.261.207v2.259c.094.079.175.148.263.21l.041.027.007.05c.024.125.028.352.029.619 0 .529-.026 1.182-.026 1.184l-.005.095-.096.016c-.383.062-.352.314-.512.795.237.338.305.282.299.593v.101c.024.379-.064.431-.31.647v1.445l-.052.038a2.34 2.34 0 0 0-.261.204v2.127l-.051.037c-.201.146-.193.207-.268.443-.017.053-.023.088-.023.104-.087.019.325.022.342.923.574.013 1 .083 1.532.083.269 0 .57-.019.934-.072.26-.401.389-.445.899-.769.046-.01.096-.018.145-.018.533.01 1.493.486 2.552.484.505 0 1.025-.106 1.523-.42.068-.194.264-.204.522-.271.289-.056.688-.098 1.173-.129.963-.062 2.252-.083 3.562-.083 2.787 0 5.668.098 5.671.098l.114.002v4.002l.004-.002c.01.019.024.05.039.085.033.075.083.175.141.293.115.229.27.516.421.745l.126.189Zm48.13-37.659c0 .392-.19.919-1.487.919-1.299 0-1.503-.527-1.503-.919v-1.248c0-.381.204-.918 1.503-.918 1.297 0 1.487.537 1.487.918v1.248Zm-.261-1.271c0-.296-.203-.649-1.226-.649-1.027 0-1.238.353-1.238.649v1.295c0 .296.211.656 1.238.656 1.023 0 1.226-.352 1.226-.65v-1.301Zm-1.619.913v.636c0 .035-.013.064-.051.064h-.157c-.044 0-.057-.029-.057-.064v-1.746c0-.042.013-.063.057-.063h.669c.539 0 .672.26.672.502v.171c0 .18-.087.381-.36.463l.291.673c.009.035-.018.064-.058.064h-.164c-.035 0-.048-.029-.061-.064l-.27-.636h-.511Zm0-.961v.749h.432c.305 0 .434-.148.434-.304v-.14c0-.156-.122-.305-.434-.305h-.432Z"/>
</svg>