<svg xmlns="http://www.w3.org/2000/svg" xml:space="preserve" fill-rule="evenodd" stroke-linejoin="round" stroke-miterlimit="2" clip-rule="evenodd" viewBox="0 0 100 100">
  <path fill="none" d="M0 0h100v100H0z"/>
  <g fill="#215cca" fill-rule="nonzero">
    <path d="M32.944 60.139c-1.406-.262-5.122-4.109-6.198-7.443 0 0 .04-1.417 1.708-3.341 1.548-1.781 19.73-21.534 27.441-24.914a38.3883 38.3883 0 0 0-6.141-.484c-22.729 0-24.925 16.23-24.925 16.23S11 44.478 11 57.066c0 18.051 22.228 18.962 22.228 18.962 2.292.056 4.585-.045 6.863-.302a4.214 4.214 0 0 0 2.903-2.31c1.326-3.358 3.181-8.417 5.121-13.84-7.216.364-14.426.705-15.171.563Zm56.054-6.982c0-15.963-15.621-17.642-15.621-17.642s-1.872-3.909-6.949-7.165c-1.365 4.974-5.013 18.211-5.212 20.721h5.457s.865 0 .643 1.075c-.546 2.447-1.872 8.366-4.814 8.576-.683.046-2.055.142-3.824.245-1.087 4.37-2.214 8.969-3.022 12.286.404.342 3.608 2.954 9.868 2.954 7.346 0 10.892-3.984 10.892-3.984 13.026-2.151 12.582-17.066 12.582-17.066Z"/>
    <path d="M56.139 33.284c-.751 0-13.145 12.486-16.207 16.691l11.717-.466c2.396-6.755 4.49-12.77 5.395-15.422-.072-.447-.452-.784-.905-.803Z"/>
  </g>
</svg>