<svg xmlns="http://www.w3.org/2000/svg" xml:space="preserve" fill-rule="evenodd" stroke-linejoin="round" stroke-miterlimit="2" clip-rule="evenodd" viewBox="0 0 100 100">
  <path fill="none" d="M0 0h100v100H0z"/>
  <g fill-rule="nonzero">
    <path fill="#fff" d="M49.977 32.798c.996-1.626 2.648-3.327 4.427-4.047 3.062-1.393 7.166-.794 9.664 1.411 2.417 2.19 3.644 5.191 3.065 8.547.593-.109 1.191-.489 1.819-.705 3.753-1.059 7.721.09 10.127 3.307 1.808 2.297 2.28 5.865 1.195 8.64-.538 1.395-1.456 2.65-2.65 3.721l.12.121c3.491.17 6.922 2.881 7.981 6.205 1.148 3.353.138 6.936-2.314 9.388-2.003 1.98-4.579 2.665-7.442 2.608H23.983c-4.268.092-7.566-1.799-9.342-5.595-1.393-3.258-.705-7.425 1.896-9.909 1.641-1.716 3.696-2.418 5.912-2.772-2.51-2.328-3.719-5.514-3.013-8.93.503-2.769 2.863-5.572 5.574-6.539 2.389-.95 5.624-.783 7.811.506l.078-.095c-.659-3.767 1.01-7.166 4.136-9.25 2.786-1.885 7.241-1.836 9.969.168 1.226.75 2.236 2.04 2.973 3.22"/>
    <path fill="#645faa" d="M64.695 34.205c1.117 2.254.461 5.207-.705 7.23l-9.02 20.293-.078.095-3.26-20.587c-.262-1.976 1.851-2.82 3.094-3.77-.063-.29-.383-.276-.584-.411l-3.048-.032-.092-.092c.017-2.556 1.393-4.916 3.724-6.156 2.435-1.407 5.865-1.025 7.978.78.857.765 1.58 1.654 1.991 2.65"/>
    <path fill="#c9234a" d="M48.077 33.5c.737 1.364 1.164 2.913.904 4.628l-3.678 23.571c.02.028-.014.06-.043.074l-.953-1.896-9.218-20.586c-.858-2.651-.063-5.422 1.868-7.322 1.945-1.974 5.146-2.51 7.69-1.439 1.347.581 2.633 1.652 3.43 2.97"/>
    <path fill="#0089cf" d="M78.038 43.423c1.24 2.115.961 5.316-.418 7.279-.854 1.378-2.265 2.066-3.459 2.97L55.06 66.784h-.044l.213-.628 10.125-22.853c1.517-2.694 4.412-4.059 7.475-3.647 2.098.383 4.196 1.747 5.209 3.767"/>
    <path fill="#f36f21" d="m34.646 43.303 10.536 23.478h-.169L23.77 52.141c-2.161-1.822-3.047-4.55-2.314-7.307.55-2.067 2.265-3.998 4.306-4.764 3.341-1.223 7.105.078 8.884 3.233"/>
    <path fill="#0db14b" d="M83.581 59.998c1.059 2.236.641 5.298-.872 7.2-1.502 1.822-3.512 2.818-5.869 2.754l-22.65.015 18.975-13.201c1.854-1.195 4.671-1.411 6.694-.444 1.563.613 3.034 2.144 3.722 3.676"/>
    <path fill="#fdb913" d="M16.509 59.998c-1.056 2.236-.642 5.298.875 7.2 1.502 1.822 3.505 2.818 5.865 2.754l22.65.015-18.975-13.201c-1.853-1.195-4.67-1.411-6.691-.444-1.563.613-3.033 2.144-3.724 3.676"/>
  </g>
</svg>