<svg xmlns="http://www.w3.org/2000/svg" xml:space="preserve" fill-rule="evenodd" stroke-linejoin="round" stroke-miterlimit="2" clip-rule="evenodd" viewBox="0 0 32 32">
  <path fill="#666" d="M1.79 13.11c.63-3.14 2.3-5.92 4.6-7.97a2.903 2.903 0 0 0 2.38 1.243c1.591 0 2.9-1.31 2.9-2.9 0-.43-.096-.855-.28-1.243a14.4881 14.4881 0 0 1 9.22 0c-.184.388-.28.813-.28 1.243 0 1.59 1.309 2.9 2.9 2.9.948 0 1.838-.465 2.38-1.243a14.4922 14.4922 0 0 1 4.6 7.97c-1.495.124-2.659 1.39-2.659 2.89 0 1.5 1.164 2.766 2.659 2.89a14.4922 14.4922 0 0 1-4.6 7.97 2.903 2.903 0 0 0-2.38-1.243c-1.591 0-2.9 1.31-2.9 2.9 0 .43.096.855.28 1.243a14.4881 14.4881 0 0 1-9.22 0c.184-.388.28-.813.28-1.243 0-1.59-1.309-2.9-2.9-2.9-.948 0-1.838.465-2.38 1.243a14.4922 14.4922 0 0 1-4.6-7.97c1.495-.124 2.659-1.39 2.659-2.89 0-1.5-1.164-2.766-2.659-2.89ZM16 4.4c-1.591 0-2.9 1.309-2.9 2.9s1.309 2.9 2.9 2.9 2.9-1.309 2.9-2.9-1.309-2.9-2.9-2.9Zm0 8.7c-1.591 0-2.9 1.309-2.9 2.9s1.309 2.9 2.9 2.9 2.9-1.309 2.9-2.9-1.309-2.9-2.9-2.9Zm-5.02 5.8a2.9058 2.9058 0 0 0-2.515-1.453c-1.593 0-2.903 1.31-2.903 2.903 0 .509.134 1.009.388 1.45a2.9058 2.9058 0 0 0 2.515 1.453c1.593 0 2.903-1.31 2.903-2.903 0-.509-.134-1.009-.388-1.45Zm0-5.8c.254-.441.388-.941.388-1.45 0-1.593-1.31-2.903-2.903-2.903-1.037 0-1.997.555-2.515 1.453-.254.441-.388.941-.388 1.45 0 1.593 1.31 2.903 2.903 2.903 1.037 0 1.997-.555 2.515-1.453ZM16 21.8c-1.591 0-2.9 1.309-2.9 2.9s1.309 2.9 2.9 2.9 2.9-1.309 2.9-2.9-1.309-2.9-2.9-2.9Zm10.05 0c.254-.441.388-.941.388-1.45 0-1.593-1.31-2.903-2.903-2.903-1.037 0-1.997.555-2.515 1.453-.254.441-.388.941-.388 1.45 0 1.593 1.31 2.903 2.903 2.903 1.037 0 1.997-.555 2.515-1.453Zm0-11.6a2.9058 2.9058 0 0 0-2.515-1.453c-1.593 0-2.903 1.31-2.903 2.903 0 .509.134 1.009.388 1.45a2.9058 2.9058 0 0 0 2.515 1.453c1.593 0 2.903-1.31 2.903-2.903 0-.509-.134-1.009-.388-1.45Z"/>
</svg>