<svg xmlns="http://www.w3.org/2000/svg" xml:space="preserve" fill-rule="evenodd" stroke-linejoin="round" stroke-miterlimit="2" clip-rule="evenodd" viewBox="0 0 100 100">
  <path fill="none" d="M0 0h100v100H0z"/>
  <path fill="#a2a2a2" d="M50 82.981c-18.186 0-32.981-14.795-32.981-32.981S31.814 17.019 50 17.019c18.185 0 32.981 14.796 32.981 32.981 0 18.186-14.796 32.981-32.981 32.981Zm5.582-45.737H36.943l-2.828 4.544h18.617l2.85-4.544Zm3.809.043L47.997 55.43H35.358l2.915-4.548h7.576l2.894-4.547H31.23l-2.893 4.547h4.148l-5.756 9.081h24.023l8.872-13.992 3.236 4.911h-2.918L57.18 55.43h8.638l3 4.533h5.51L59.391 37.287Z"/>
</svg>