<svg xmlns="http://www.w3.org/2000/svg" xml:space="preserve" fill-rule="evenodd" stroke-linejoin="round" stroke-miterlimit="2" clip-rule="evenodd" viewBox="0 0 100 100">
  <path fill="none" d="M0 0h100v100H0z"/>
  <g fill-rule="nonzero">
    <path fill="url(#a)" d="M24.265 50.505c0 14.096 11.43 25.523 25.523 25.523 14.095 0 25.524-11.427 25.524-25.523 0-14.094-11.429-25.522-25.524-25.522-14.093 0-25.523 11.428-25.523 25.522"/>
    <path fill="url(#b)" d="M39.014 30.423c-1.968.082-3.853.344-5.733.624-5.324 4.521-8.764 11.18-8.995 18.655 1.503 1.584 3.49 5.169 5.782 7.241.304-.135.633-.25.984-.357-1.124-1.306-2.697-3.038-2.934-3.835-1.158-3.905.184-7.56 3.08-7.849 2.598-.261 4.827-4.125 6.658-6.659 3.766-5.211 9.554-4.342 9.264-6.95-.333-1.525-1.236-1.989-2.384-1.989-1.728-.001-4.007 1.053-5.722 1.119"/>
    <path fill="url(#c)" d="M32.146 56.275c-.378.107-.744.207-1.094.311-.314.085-.558.209-.984.357-.936.418-1.615 1.058-1.774 2.425-.285 2.481 2.074 4.427 4.061 4.996 2.521.722 2.732-.122 4.054 1.665.924 1.249 1.103 3.567 1.575 5.091.264.853.621 1.7 1.049 2.531 1.801.838 3.712 1.476 5.712 1.875.496-2.939.272-6.907.928-8.622 1.349-3.511 2.109-5.059.291-8.683-4.011-1.132-5.226-1.491-9.266-2.32-.823-.168-1.337-.253-1.8-.253-.718 0-1.31.205-2.752.627"/>
    <path fill="url(#d)" d="M56.965 35.927c-1.182 1.689-5.329 2.151-6.66 4.051-1.035 1.483.036 4.399-.867 6.08-.416.775-.224 3.025.283 3.759 1.596 2.324 4.251 1.032 6.247 1.868 2.436 1.018 2.715 3.843 4.735 5.911 2.024 2.07-2.582 5.259 1.179 12.784.401.808.869 1.4 1.371 1.805 2.543-1.581 4.781-3.597 6.622-5.945.57-3.801-.714-5.017.892-8.496.989-2.146 2.686-5.861 4.515-8.38-.311-7.048-3.476-13.352-8.37-17.785-.459.128-1.044.15-1.841.006-.684-.127-1.3-.181-1.859-.181-3.776 0-4.9 2.599-6.247 4.523"/>
    <path fill="#3e3c3b" d="M46.873 77.591c-.846-.485-1.906-1.236-2.895-1.891-.411.363-.742.895-1.07 1.323 1.134.388 2.662.421 3.965.568m-4.464-3.032c-1.811-1.351-6.291-5.6-8.149-8.162-.682.402-1.443 1.495-2.43 1.683-.389.073-1.262.18-1.521.073-.257-.108.059-.653.339-1.018.482-.631 1.187-1.45 2.219-2.249-2.208-3.237-3.257-5.601-4.759-9.505-.868.542-1.499 1.025-2.255 1.628-.256.2-.957.328-1.297.022-.618-.555-.627-1.529.24-2.147.357-.256 2.122-1.475 2.535-1.819-1.086-3.13-1.994-7.244-2.235-9.377-.723.629-1.741 1.345-2.027 1.54-.411.116-.687-.015-.805-.036-.413 4.427.063 9.301 1.38 13.702 2.262 7.568 8.607 14.784 17.17 17.468.2-.298 1.184-1.437 1.595-1.803m-17.577-33.17c-.108-1.637-.239-3.879-.239-3.879-1.202 2.616-1.922 4.192-2.257 7.246.842-1.491 2.496-3.367 2.496-3.367m12.849-18.724c4.974-2.059 9.815-3.189 15.405-2.425.622.085.57.612-.09.618l-.788.02c-4.503.07-11.125 1.5-14.551 3.441-.072 2.284.36 5.916.819 8.777 3.113-1.309 7.927-2.654 11.582-3.056-2.075-2.205-4.898-4.291-5.235-4.534-.339-.242-.507-.655-.507-1.187.048-.996.903-1.119 1.362-1.001 1.52-.298 3.033-.627 5.61-.551 10.89-.476 20.841 5.684 24.638 12.708 9.621 15.215.003 36.205-12.593 41.796-5.387 2.391-10.008 3.422-18.525 2.234-8.533-1.191-15.509-5.362-20.927-14.131-6.674-10.805-2.917-23.393-1.98-26.033 4.018-9.475 10.604-14.495 15.78-16.676M26.423 34.178c-.147 1.14.005 3.243.292 5.755 2.316-2.072 6.791-4.774 10.531-6.424-.433-2.851-.893-7.398-.845-8.608-3.46 1.898-7.257 5.715-10.04 9.627m.57 7.697c.328 2.259 1.412 7.13 2.388 9.601 2.318-1.744 7.564-4.982 10.533-6.291-1.037-3.783-1.737-6.171-2.317-9.99-4.198 1.867-8.636 4.767-10.604 6.68m3.293 11.786c1.376 3.925 2.706 6.92 4.443 9.391 2.031-1.766 6.197-4.556 9.383-6.082-1.049-2.255-2.564-6.471-3.619-9.628-4.103 2.014-7.166 3.977-10.207 6.319m5.742 11.106c2.159 2.769 5.54 6.284 7.893 8.226 2.227-1.79 4.751-3.463 6.85-4.482-1.811-2.808-4.488-6.887-5.609-9.395-4.017 1.781-6.298 3.274-9.134 5.651m9.279 9.449c.856.866 4.251 3.113 4.251 3.113 2.258.098 5.111-.168 7.148-.523-1.123-1.282-3.928-5.252-4.779-6.587-2.171.91-4.92 2.586-6.62 3.997m13.777 2.011c1.145-.368 4.061-1.691 4.668-2.09.144-2.352.12-5.021.024-6.619-3.065 0-7.383.897-9.856 1.933 1.435 2.31 3.415 4.856 5.164 6.776m6.284-2.962c2.302-1.435 4.464-3.085 6.033-5.07-1.351-.339-4.368-.749-5.864-.653 0 0-.048 3.587-.169 5.723m6.756-5.991c.435-.435 1.086-1.356 1.339-1.893.254-2.181.261-6.652.169-7.956-2.631-1.067-6.695-1.911-9.664-2.129.966 3.542 1.449 8.753 1.521 10.452 1.424.144 5.018.873 6.635 1.526m3.861-10.112c-.121.413-.846.827-1.184.724.05.732-.121 4.373-.313 5.777.505-1.038 1.471-3.615 1.761-4.704l.409-1.601c.407-1.361 1.726-6.061.531-12.246-1.325-6.87-3.811-9.323-4.68-10.414-2.209-1.201-5.55-2.29-5.55-2.29 3.028 4.099 4.077 6.028 5.888 10.91 1.051.546 2.956 1.602 3.193 1.892.193.228.194.639-.403.629-.498-.003-1.463-.479-2.211-.678.796 2.66 1.412 7.626 1.366 10.954 0 0 1.313.637 1.193 1.047m-5.067-24.754c-4.199-5.143-13.704-9.518-24.285-8.859 2.364 1.559 4.332 3.912 6.057 5.851 2.641-.242 8.191.194 10.277.771-.355-.42-.791-.836-.904-1.084-.296-.636.416-.773.988-.409.725.463 1.559 1.016 2.221 1.691 1.227.276 4.246 1.31 5.646 2.039m2.69 23.188c-.182-3.317-.688-7.748-1.919-10.831-3.257-1.308-7.708-2.126-11.617-2.163 1.206 2.812 2.609 7.512 3.293 10.537 2.823.338 7.238 1.138 10.243 2.457m-9.157-23.723c-2.943-.533-7.237-.873-10.422-.681 2.172 3.008 3.764 5.628 5.259 9.361 4.029.099 9.504 1.302 11.75 2.184-1.339-3.572-3.884-8.108-6.587-10.864M45.931 56.447c4.802-2.207 10.074-3.2 15.382-3.056-1.449-5.019-2.279-7.348-3.511-10.402-5.898.255-10.929 1.709-15.513 3.881 0 0 1.689 5.429 3.642 9.577m15.925-.945c-6.008-.072-11.252 1.365-14.837 3.128 1.519 3.272 4.523 7.604 5.646 9.39 1.953-.727 4.053-1.273 5.68-1.528 1.63-.254 3.8-.493 5.273-.467-.267-3.808-.713-6.378-1.762-10.523M41.608 44.806c4.343-1.845 9.051-3.321 15.398-3.853-1.617-3.88-3.402-6.619-5.501-9.129-4.679.375-8.95 1.637-12.642 3.163.542 2.874 1.569 6.352 2.745 9.819"/>
  </g>
  <defs>
    <radialGradient id="a" cx="0" cy="0" r="1" gradientTransform="translate(41.6193 45.7708) scale(18.0998)" gradientUnits="userSpaceOnUse">
      <stop offset="0" stop-color="#b9e0f7"/>
      <stop offset="1" stop-color="#007ac2"/>
    </radialGradient>
    <radialGradient id="b" cx="0" cy="0" r="1" gradientTransform="translate(40.6122 46.0229) scale(22.2054)" gradientUnits="userSpaceOnUse">
      <stop offset="0" stop-color="#b2d234"/>
      <stop offset=".96" stop-color="#009e46"/>
      <stop offset="1" stop-color="#009e46"/>
    </radialGradient>
    <radialGradient id="c" cx="0" cy="0" r="1" gradientTransform="translate(46.225 44.5731) scale(28.2229)" gradientUnits="userSpaceOnUse">
      <stop offset="0" stop-color="#b2d234"/>
      <stop offset=".96" stop-color="#009e46"/>
      <stop offset="1" stop-color="#009e46"/>
    </radialGradient>
    <radialGradient id="d" cx="0" cy="0" r="1" gradientTransform="translate(48.2943 32.5302) scale(37.3053)" gradientUnits="userSpaceOnUse">
      <stop offset="0" stop-color="#b2d234"/>
      <stop offset=".96" stop-color="#009e46"/>
      <stop offset="1" stop-color="#009e46"/>
    </radialGradient>
  </defs>
</svg>