<svg xmlns="http://www.w3.org/2000/svg" xml:space="preserve" fill-rule="evenodd" stroke-linejoin="round" stroke-miterlimit="2" clip-rule="evenodd" viewBox="0 0 100 100">
  <path fill="none" d="M0 0h100v100H0z"/>
  <g fill-rule="nonzero">
    <path fill="#d3d2d2" d="M99.7 48.567c.033.1.033.166.033.266 0-.1-.033-.166-.033-.266M50 31.267C22.233 31.267 0 39.6 0 50c0 10.367 22.433 18.733 50 18.733s50-8.4 50-18.733-22.433-18.733-50-18.733"/>
    <path fill="url(#a)" d="M.767 50C.767 59.933 22.8 68 50 68c27.2 0 49.233-8.033 49.233-18 0-9.933-22.033-18-49.233-18C22.8 32 .767 40.067.767 50"/>
    <path fill="url(#b)" d="M4.467 50c0 .667.133 1.333.4 2-.1-.433-.167-.867-.167-1.3 0-8.233 20.367-14.9 45.533-14.9 23.134 0 42.234 5.633 45.134 12.967-1.934-7.7-21.5-13.734-45.367-13.734C24.867 35 4.467 41.733 4.467 50"/>
    <path fill="url(#c)" d="M97.167 50c0 9.067-21.134 16.433-47.167 16.433-23.2 0-42.467-5.833-46.433-13.5 3.033 8 22.8 14.167 46.766 14.167C76.4 67.1 97.5 59.8 97.5 50.833c0-.9-.233-1.8-.633-2.666.2.566.3 1.2.3 1.833"/>
    <path fill="url(#d)" d="M58.8 51.6c-1.067 1.1-1.133 2.533-.433 3.167.233.233.533.333.833.366-.467-.566-.667-1.7-.1-2.566-.1-.267-.133-.567-.067-.867 0-.067-.033-.133-.1-.133-.066-.034-.1 0-.133.033"/>
    <path fill="url(#e)" d="M69.7 53.933c0 .167.067.467.1.7.067-.1.1-.2.167-.333.033-.1.033-.1-.034-.133-.1-.034-.233-.134-.233-.2-.033 0-.033 0 0-.034Z"/>
    <path fill="url(#f)" d="M70.967 50.333c.366.334.566.734.6 1.134 0 .166.166.2.266.033.034-.033.067-.1.1-.167-.033-.033-.066-.066-.1-.133-.133-.167-.5-.533-.866-.867Z"/>
    <path fill="url(#g)" d="M56.333 49.667c.267.4.4.933.4 1.633 0 .167.134.167.2.033.034-.066.1-.133.134-.2-.167-.633-.5-1.233-.734-1.466Z"/>
    <path fill="url(#h)" d="M66.1 53.333c-1 1.2-1.533 2.434-1.533 3.634 0 .433.166.966.533 1.133.133.067.233.1.367.133-.034-.166-.067-.333-.067-.466 0-1.234.367-2.467 1.367-3.7 1.2-1.467 2.466-2.2 3.333-1.8-.033-.334-.2-.6-.567-.767-.166-.067-.333-.1-.533-.1-.867 0-1.933.733-2.9 1.933"/>
    <path fill="url(#i)" d="M46.3 50.767c-1.333.5-2.667 1.3-3.6 2.533-1.067 1.4-1.333 3.1-.633 4.1.166.233.366.4.6.5-.367-1.167-.1-2.733.8-3.933.933-1.234 1.966-1.7 3.133-2.234.167-.066.167-.166.133-.3-.066-.233-.2-.833-.266-.966.033.166 0 .266-.167.3"/>
    <path fill="url(#j)" d="M56.3 54.533c-1.233 1.9-2.4 3.734-3.633 5.667-.067.1-.134.133-.234.167H50c-.1 0-.133-.034-.167-.1.067.3.167.833.2.966.034.1.1.134.167.134h2.767c.1 0 .2-.067.233-.167 1.133-1.767 2.333-3.667 3.467-5.433.266.9.366 1.3.866 1.733.467.433.9.533 1.567.533.6 0 1.167-.233 1.867-.533.266-.1.466-.233.666-.367 0-.333.034-.666.1-.966 0-.034-.033-.234-.2-.134-.333.234-.733.467-1.266.667-.634.233-.934.333-1.534.333-.733 0-1.4-.333-1.866-1.066-.267-.4-.367-1-.4-1.434 0-.033-.034-.066-.067-.066-.033.033-.067.033-.1.066"/>
    <path fill="url(#k)" d="M77.767 55.533c-1.2 1.467-2.5 2.834-3.767 3.8-1.967 1.534-3.9 1.9-4.867.934-.366-.367-.566-.867-.566-1.334 0-.233-.134-.233-.234-.133-1.166 1.133-3.166 2.4-5 1.5-.9-.467-1.4-1.3-1.6-2.233.1.666.267 1.633.567 2.233.2.4.667.867.967 1 1.633.8 3.933-.1 5.433-1.533 0-.034.033-.034.033-.034.067.267.167.567.167.6.1.334.267.634.4.8 1.033 1.167 3.167.634 5.433-1.1 1.267-.966 2.2-1.933 3.334-3.266.033-.067.033-.134.033-.267-.067-.3-.167-.8-.233-1.067-.067 0-.067.067-.1.1M61.7 58v.067V58c0 .033 0 0 0 0Z"/>
    <path fill="url(#l)" d="M62.267 51.5c-.1.733-.5 1.367-1.167 1.7-.567.267-1.233.233-1.7-.2-.133-.133-.233-.3-.333-.467.133.534.233.934.366 1.167.434.667 1.2.833 2.034.367.6-.334 1.133-1.034 1.066-2.134-.033-.566-.2-1.133-.466-1.6.2.367.266.767.2 1.167"/>
    <path fill="url(#m)" d="M79.367 44.633c-.367.667-7.7 11.8-8.167 12.967-.133.367-.167.633 0 .833.167.2.367.267.633.267.034-.133.067-.3.134-.467.466-1.166 7.333-11.566 7.7-12.233.033-.067.033-.133 0-.167-.034-.1-.267-1.2-.267-1.3 0 .034 0 .067-.033.1"/>
    <path fill="url(#n)" d="M48.967 49.833c.033.034.033.034.066.067.434.667.667 1.567.7 2.533.034.2.1.2.2.1s.167-.2.267-.266c-.133-.5-.333-.967-.533-1.4-.067-.2-.4-.767-.7-1.034Z"/>
    <path fill="url(#o)" d="M52.7 52.033c-1.567 1.2-2.9 3.067-3.567 3.9-.4.5-.766 1.2-1.8 2.334-1.633 1.766-3.8 2.8-5.866 2.066-1.134-.366-1.967-1.3-2.267-2.433-.067-.233-.2-.267-.3-.133-.333.433-1.033 1.033-1.6 1.433-.067.033-.233.133-.367.067-.133-.067-.533-.667-.633-.834 0-.033-.033-.033-.033-.066.133.733.166.833.366 1.166.234.367.467.634.5.667.134.067.267 0 .334-.033.433-.234 1.3-.9 1.7-1.367.1-.1.233-.033.266.067.167.5.4.866.634 1.3.266.466.833.933 1.566 1.133.934.267 1.967.3 3.3-.2 1.067-.4 2.2-1.233 3.067-2.2 1.033-1.133 1.4-1.833 1.8-2.333.667-.834 1.733-2.3 3.2-3.567.5-.433 1.067-.733 1.433-.6.2-.533.1-.833-.1-1-.066-.033-.166-.067-.266-.067-.4.067-.9.367-1.367.7"/>
    <path fill="url(#p)" d="M26.433 50.533c-.9.467-1.966 1.234-2.5 2.3-.433.867-.5 1.9.134 2.9.066.067.1.167.166.234-.2-.834.034-1.7.334-2.367.533-1.067 1.266-1.567 2-2.033.3-.2.466-.4.266-.9-.066-.134-.1-.4-.133-.634.033.2-.067.4-.267.5"/>
    <path fill="url(#q)" d="M33.133 39.9c-2.566.967-3.7 3-3.166 4.367.1.266.266.466.5.6-.167-1.267.766-3.3 3.233-4.134 3.233-1.066 6.833-.4 9.733.234.4-.267.767-.434 1.1-.634.167-.1-.033-.2-.066-.2-2.3-.433-4.7-.966-7.034-.966-1.466 0-2.9.2-4.3.733"/>
    <path fill="url(#r)" d="M43.9 47.533c-1.167.067-2.967.234-4.2.4-.3.034-.333.1-.4.2-1.967 3.234-4.033 6.7-6.333 9.034-2.467 2.5-4.5 3.166-6.667 3.166-2.5.034-4.733-1.4-5.3-3.9.3 1.4 1.2 3.067 2.233 3.8 1.067.734 2.1 1 3.3 1 2.467.034 4.734-.966 7.134-3.4 2.3-2.333 4.3-5.6 6.233-8.833.067-.1.133-.167.467-.2 1.233-.167 2.333-.233 3.433-.333.333-.034.567-.067.7.066.4.4.833.767 1.167.934.2 0 .366.033.5.166.133-.033.233-.1.333-.166.133-.134.133-.3.133-.434-.033-.266-.133-.8-.2-.933.067.1.034.267-.1.4-.1.1-.233.2-.4.2-.133 0-.233-.067-.4-.133-.366-.2-.833-.534-1.133-.9-.067-.1-.133-.134-.267-.134-.133-.033-.166 0-.233 0"/>
    <path fill="url(#s)" d="M33.3 49.467c-.267.2-.667.166-.833-.1-.067-.1-.1-.2-.1-.267-.034.433.133 1.033.266 1.233.134.234.567.334.9.1.734-.566 1.434-.866 2.167-1.033.2-.267.4-.567.633-.9.034-.033.034-.067 0-.067 0-.033-.033-.033-.1-.033-1.033.033-2 .367-2.933 1.067"/>
    <path fill="url(#t)" d="M64.5 39.2c0 .033.033.033.033.067 0-.034 0-.067-.033-.067Z"/>
    <path fill="url(#u)" d="M64.633 39.667c-.033.7-.6 1.4-1.966 2.133-1.567.867-3.167 1.1-4.867 1.133-4.1.034-7.933-1.566-11.867-2.433 0 .167.034.367-.1.5-2.2 1.633-4.166 3.267-5.5 5.567-.033.066-.033.1.067.1.367-.034.7-.034 1.033-.067 1.2-1.9 2.5-2.967 4.467-4.433.133-.1.3-.2.233-.6 3.967.866 6.967 2.333 12.1 2.366 1.534 0 3.667-.5 4.834-1.2 1.333-.8 1.7-1.4 1.733-2 0-.2-.033-.5-.067-.633-.033-.2-.066-.467-.133-.667.033.034.033.134.033.234"/>
    <path fill="url(#v)" d="M45.533 44.5c-.033.033-.1.1-.166.133-.4.4-.5.934-.467 1.334.033.166.1.2.167.166.066 0 .166-.033.233-.066.033-.234.133-.434.333-.634.167-.133.367-.2.534-.166.166-.3.2-.667 0-.834-.067-.066-.167-.1-.3-.1-.067.034-.2.067-.334.167"/>
    <path fill="url(#w)" d="M47.1 45.9c-.367.733-1 1.1-1.6 1.3 0 0-.133.033-.1.133 0 .134.433.4.7.567.033 0 .1-.033.1-.033.3-.134.8-.434 1.1-1.067.2-.4.3-.733.2-1.467-.067-.5-.167-.966-.3-1.166.3.533.2 1.2-.1 1.733"/>
    <path fill="url(#x)" d="M36.167 42.533c.066.167.066.467-.067.8C35 45.9 32.933 47.9 30.4 48c-1.533.033-2.667-.733-3.2-1.867.4.867 1.2 1.634 1.9 2.067.533.333 1.233.533 2 .5 2.633-.1 4.633-2.267 5.3-4.1.167-.5.033-1.033-.033-1.367-.067-.166-.1-.466-.2-.7Z"/>
    <path fill="#4f4c4d" d="M99.7 48.567c.033.1.033.166.033.266 0-.1-.033-.166-.033-.266M.333 50.233c0-2.2.967-4.366 3-6.433 7.167-7.233 25.9-12.1 46.567-12.2 27.4-.1 49.7 8.067 49.767 18.2 0 2.2-1 4.333-3.034 6.4-7.166 7.233-25.866 12.133-46.533 12.2C22.7 68.533.4 60.367.333 50.233M50 31.267C22.233 31.267 0 39.6 0 50c0 10.367 22.433 18.733 50 18.733s50-8.4 50-18.733-22.433-18.733-50-18.733"/>
    <path fill="url(#y)" d="M.167 50c0 .5.066.967.166 1.467-.066-.4-.133-.834-.133-1.234 0-2.233 1-4.466 3.033-6.533 7.2-7.267 25.967-12.167 46.667-12.233 2.867 0 5.7.066 8.433.233-2.7-.167-5.5-.267-8.333-.267C22.367 31.433.167 39.7.167 50"/>
    <path fill="url(#z)" d="M99.8 49.8c0 2.233-1.033 4.433-3.1 6.5-7.167 7.233-25.933 12.167-46.633 12.267-2.934 0-5.8-.067-8.6-.234 2.766.167 5.6.267 8.5.267 27.5 0 49.833-8.4 49.833-18.6 0-.4-.033-.767-.1-1.167.1.334.1.667.1.967"/>
    <path fill="url(#A)" d="M2.8 50c0 9.067 21.133 16.433 47.167 16.433 26.066 0 47.166-7.366 47.166-16.433.034-9.067-21.066-16.4-47.133-16.4-26.067 0-47.2 7.333-47.2 16.4m1.667 0c0-8.3 20.366-15 45.533-15 25.133 0 45.533 6.7 45.533 15S75.167 65 50 65C24.867 65 4.467 58.3 4.467 50"/>
    <path fill="url(#B)" d="M76.7 44.433c-.2 0-.267.034-.367.2-.3.567-3.833 5.834-4.466 6.867-.1.167-.234.133-.267-.033-.067-.6-.6-1.3-1.433-1.634-.634-.266-1.267-.3-1.9-.233-1.167.167-2.2.767-3.1 1.467-1.367 1.033-2.567 2.4-4.067 3.4-.833.533-1.967 1.033-2.733.3-.7-.634-.6-2.067.433-3.167.1-.1.233-.033.233.1-.1.5.034 1 .4 1.333.467.4 1.134.467 1.7.2.667-.333 1.067-.966 1.167-1.7.167-1.133-.7-2.1-1.767-2.2-.866-.066-1.733.234-2.533.934-.4.333-.633.6-1 1.1-.1.133-.233.133-.2-.034.033-1.433-.567-2.233-1.733-2.266-.934-.034-1.9.466-2.667 1.1-.833.666-1.567 1.566-2.367 2.4-.1.1-.2.1-.2-.1-.033-.967-.266-1.867-.7-2.534-.166-.233-.5-.333-.766-.2-.134.067-.567.267-.9.534-.167.133-.234.333-.167.566.433 1.434.333 3.034-.233 4.4C46.533 56.5 45.5 57.6 44.3 58c-.8.267-1.633.133-2.133-.567-.7-.966-.434-2.666.633-4.1.933-1.233 2.267-2.033 3.6-2.533.167-.067.2-.167.133-.3-.066-.233-.2-.533-.233-.667-.133-.333-.467-.366-.9-.333-.967.1-1.833.433-2.733.9-2.267 1.2-3.4 3.567-3.9 4.833-.234.6-.434.967-.7 1.3-.367.467-.8.867-1.634 1.567-.066.067-.133.2-.066.333.1.167.5.767.633.834.133.066.3-.034.367-.067.566-.4 1.266-1 1.6-1.433.1-.134.233-.067.3.133.3 1.133 1.133 2.033 2.266 2.433 2.067.7 4.234-.3 5.867-2.066 1.033-1.134 1.4-1.834 1.8-2.334.667-.833 2-2.7 3.567-3.9.566-.433 1.266-.766 1.6-.566.266.166.366.6-.067 1.4-1.6 2.933-3.967 6.4-4.4 7.233-.067.133 0 .267.133.267h2.434c.133 0 .2-.067.233-.167 1.233-1.933 2.4-3.767 3.633-5.667.067-.1.134-.033.134.034.033.433.133 1.033.4 1.433.466.733 1.133 1.033 1.866 1.067.6 0 .9-.067 1.534-.334.533-.2.933-.433 1.266-.666.2-.134.234.1.2.133-.3 1.533.067 3.367 1.6 4.1 1.834.9 3.834-.367 5-1.5.1-.1.234-.1.234.133.033.434.233.967.566 1.334.967.966 2.934.6 4.867-.934 1.267-.966 2.567-2.333 3.767-3.8.033-.066.066-.133 0-.233-.167-.2-.434-.4-.634-.567-.066-.066-.2-.033-.266 0-1.234 1.167-2.3 2.467-3.9 3.567-.534.367-1.4.667-1.767.167-.133-.2-.133-.467 0-.834.467-1.166 7.8-12.3 8.167-12.966.066-.1 0-.2-.134-.2-.766-.034-1.766-.034-2.533-.034m-11.6 13.7c-.367-.2-.533-.733-.533-1.133.033-1.2.566-2.433 1.533-3.633 1.2-1.467 2.533-2.234 3.4-1.834.9.434.6 1.467.2 2.3-.033.067-.033.134 0 .167 0 .1.133.167.233.2.034 0 .067.033.034.133-.3.667-.6 1.067-1 1.634-.367.533-.767.966-1.267 1.366-.567.467-1.3.967-2 .967-.2 0-.433-.067-.6-.167"/>
    <path fill="url(#C)" d="M37.767 37.667c-.7 0-1.4.033-2.1.1-4.5.366-8.767 2.9-8.8 6.766 0 1.967 1.4 3.534 3.533 3.467 2.533-.1 4.6-2.1 5.7-4.667.4-.966-.367-1.366-.7-.8-.633 1-1.567 1.767-2.533 2.267-1.2.567-2.467.433-2.834-.533-.533-1.367.6-3.4 3.167-4.367 3.7-1.367 7.6-.467 11.333.233.067 0 .267.1.067.2-.667.367-1.333.667-2.367 1.534-.733.633-1.7 1.466-2.433 2.366-.733.9-1.267 1.7-1.967 2.6-.1.134-.2.134-.2.134-1.7.3-3.333.466-4.866 1.533-.3.2-.434.6-.267.9.167.267.567.3.833.1.934-.7 1.9-1.033 3.034-1.067.033 0 .066 0 .1.034v.066c-1.667 2.3-2.067 2.834-3.334 4.267-.633.733-1.266 1.367-1.966 2-2.834 2.633-5.9 2.6-7 .933-.667-1-.567-2.033-.134-2.9.534-1.066 1.6-1.833 2.5-2.3.334-.166.434-.6.1-.966-.2-.267-.733-.3-1.1-.234-1.166.2-2.533 1.1-3.366 2.167-.9 1.2-1.367 2.633-1.234 4.233.267 2.934 2.667 4.6 5.4 4.6 2.167-.033 4.234-.666 6.667-3.166 2.3-2.334 4.4-5.8 6.333-9.034.067-.1.1-.166.4-.2 1.234-.166 3.034-.333 4.2-.4.267 0 .3 0 .4.134.3.366.767.7 1.134.9.166.1.266.133.4.133.166 0 .3-.1.4-.2.133-.133.166-.3.1-.433-.067-.134-.867-.567-.9-.734-.034-.1.1-.133.1-.133.6-.2 1.2-.567 1.6-1.3.366-.7.433-1.667-.234-2.167-.6-.466-1.5-.4-2.2.267-.7.633-.933 1.533-.833 2.333 0 .134 0 .2-.167.2-1.066.1-2.1.1-3.266.167-.067 0-.1-.033-.067-.1 1.333-2.3 3.3-3.933 5.5-5.567.133-.1.1-.3.1-.5 3.967.867 7.767 2.467 11.867 2.434 1.7 0 3.333-.267 4.866-1.134C64.1 41.1 64.667 40.4 64.7 39.7c.033-.5-.3-.8-.8-.7-4.133.967-8.1.933-12.233.433-4.734-.6-9.234-1.766-13.9-1.766m7.133 8.3c-.067-.434.067-1.034.567-1.434.233-.2.566-.266.733-.1.233.2.1.667-.1.967-.233.367-.667.667-1.033.733h-.034c-.033.034-.1 0-.133-.166"/>
  </g>
  <defs>
    <linearGradient id="b" x1="0" x2="1" y1="0" y2="0" gradientTransform="rotate(-90 59.5468 9.6293) scale(38.1067)" gradientUnits="userSpaceOnUse">
      <stop offset="0" stop-color="#08142e"/>
      <stop offset=".81" stop-color="#17326e"/>
      <stop offset="1" stop-color="#0d69a9"/>
    </linearGradient>
    <linearGradient id="c" x1="0" x2="1" y1="0" y2="0" gradientTransform="rotate(-90 59.8575 9.3231) scale(38.1102)" gradientUnits="userSpaceOnUse">
      <stop offset="0" stop-color="#08142e"/>
      <stop offset=".81" stop-color="#17326e"/>
      <stop offset="1" stop-color="#0d69a9"/>
    </linearGradient>
    <linearGradient id="d" x1="0" x2="1" y1="0" y2="0" gradientTransform="rotate(-90 60.583 2.0423) scale(26.4033)" gradientUnits="userSpaceOnUse">
      <stop offset="0" stop-color="#08142e"/>
      <stop offset=".81" stop-color="#17326e"/>
      <stop offset="1" stop-color="#0d69a9"/>
    </linearGradient>
    <linearGradient id="e" x1="0" x2="1" y1="0" y2="0" gradientTransform="rotate(-90 66.2792 -3.5404) scale(26.7552)" gradientUnits="userSpaceOnUse">
      <stop offset="0" stop-color="#08142e"/>
      <stop offset=".81" stop-color="#17326e"/>
      <stop offset="1" stop-color="#0d69a9"/>
    </linearGradient>
    <linearGradient id="f" x1="0" x2="1" y1="0" y2="0" gradientTransform="rotate(-90 66.5803 -4.8864) scale(24.5092)" gradientUnits="userSpaceOnUse">
      <stop offset="0" stop-color="#08142e"/>
      <stop offset=".81" stop-color="#17326e"/>
      <stop offset="1" stop-color="#0d69a9"/>
    </linearGradient>
    <linearGradient id="g" x1="0" x2="1" y1="0" y2="0" gradientTransform="rotate(-90 59.3814 2.6646) scale(25.3346)" gradientUnits="userSpaceOnUse">
      <stop offset="0" stop-color="#08142e"/>
      <stop offset=".81" stop-color="#17326e"/>
      <stop offset="1" stop-color="#0d69a9"/>
    </linearGradient>
    <linearGradient id="h" x1="0" x2="1" y1="0" y2="0" gradientTransform="rotate(-90 65.021 -2.2942) scale(26.7122)" gradientUnits="userSpaceOnUse">
      <stop offset="0" stop-color="#08142e"/>
      <stop offset=".81" stop-color="#17326e"/>
      <stop offset="1" stop-color="#0d69a9"/>
    </linearGradient>
    <linearGradient id="i" x1="0" x2="1" y1="0" y2="0" gradientTransform="rotate(-90 53.458 9.249) scale(26.7065)" gradientUnits="userSpaceOnUse">
      <stop offset="0" stop-color="#08142e"/>
      <stop offset=".81" stop-color="#17326e"/>
      <stop offset="1" stop-color="#0d69a9"/>
    </linearGradient>
    <linearGradient id="j" x1="0" x2="1" y1="0" y2="0" gradientTransform="rotate(-90 59.231 3.4784) scale(26.5239)" gradientUnits="userSpaceOnUse">
      <stop offset="0" stop-color="#08142e"/>
      <stop offset=".81" stop-color="#17326e"/>
      <stop offset="1" stop-color="#0d69a9"/>
    </linearGradient>
    <linearGradient id="k" x1="0" x2="1" y1="0" y2="0" gradientTransform="rotate(-90 66.2948 -3.5766) scale(26.7183)" gradientUnits="userSpaceOnUse">
      <stop offset="0" stop-color="#08142e"/>
      <stop offset=".81" stop-color="#17326e"/>
      <stop offset="1" stop-color="#0d69a9"/>
    </linearGradient>
    <linearGradient id="l" x1="0" x2="1" y1="0" y2="0" gradientTransform="rotate(-90 61.7723 .9586) scale(26.7352)" gradientUnits="userSpaceOnUse">
      <stop offset="0" stop-color="#08142e"/>
      <stop offset=".81" stop-color="#17326e"/>
      <stop offset="1" stop-color="#0d69a9"/>
    </linearGradient>
    <linearGradient id="m" x1="0" x2="1" y1="0" y2="0" gradientTransform="rotate(-90 69.0493 -6.342) scale(26.7117)" gradientUnits="userSpaceOnUse">
      <stop offset="0" stop-color="#08142e"/>
      <stop offset=".81" stop-color="#17326e"/>
      <stop offset="1" stop-color="#0d69a9"/>
    </linearGradient>
    <linearGradient id="n" x1="0" x2="1" y1="0" y2="0" gradientTransform="rotate(-90 56.0073 6.4226) scale(26.0952)" gradientUnits="userSpaceOnUse">
      <stop offset="0" stop-color="#08142e"/>
      <stop offset=".81" stop-color="#17326e"/>
      <stop offset="1" stop-color="#0d69a9"/>
    </linearGradient>
    <linearGradient id="o" x1="0" x2="1" y1="0" y2="0" gradientTransform="rotate(-90 54.0638 8.6457) scale(26.5321)" gradientUnits="userSpaceOnUse">
      <stop offset="0" stop-color="#08142e"/>
      <stop offset=".81" stop-color="#17326e"/>
      <stop offset="1" stop-color="#0d69a9"/>
    </linearGradient>
    <linearGradient id="p" x1="0" x2="1" y1="0" y2="0" gradientTransform="rotate(-90 43.9913 18.7144) scale(26.7105)" gradientUnits="userSpaceOnUse">
      <stop offset="0" stop-color="#08142e"/>
      <stop offset=".81" stop-color="#17326e"/>
      <stop offset="1" stop-color="#0d69a9"/>
    </linearGradient>
    <linearGradient id="q" x1="0" x2="1" y1="0" y2="0" gradientTransform="rotate(-90 49.9714 12.7472) scale(26.7048)" gradientUnits="userSpaceOnUse">
      <stop offset="0" stop-color="#08142e"/>
      <stop offset=".81" stop-color="#17326e"/>
      <stop offset="1" stop-color="#0d69a9"/>
    </linearGradient>
    <linearGradient id="r" x1="0" x2="1" y1="0" y2="0" gradientTransform="rotate(-90 48.2298 14.4826) scale(26.7115)" gradientUnits="userSpaceOnUse">
      <stop offset="0" stop-color="#08142e"/>
      <stop offset=".81" stop-color="#17326e"/>
      <stop offset="1" stop-color="#0d69a9"/>
    </linearGradient>
    <linearGradient id="s" x1="0" x2="1" y1="0" y2="0" gradientTransform="rotate(-90 48.5526 14.1764) scale(26.7249)" gradientUnits="userSpaceOnUse">
      <stop offset="0" stop-color="#08142e"/>
      <stop offset=".81" stop-color="#17326e"/>
      <stop offset="1" stop-color="#0d69a9"/>
    </linearGradient>
    <linearGradient id="t" x1="0" x2="1" y1="0" y2="0" gradientTransform="rotate(-90 63.3731 -1.1536) scale(26.1435)" gradientUnits="userSpaceOnUse">
      <stop offset="0" stop-color="#08142e"/>
      <stop offset=".81" stop-color="#17326e"/>
      <stop offset="1" stop-color="#0d69a9"/>
    </linearGradient>
    <linearGradient id="u" x1="0" x2="1" y1="0" y2="0" gradientTransform="rotate(-90 57.6349 5.0742) scale(26.7085)" gradientUnits="userSpaceOnUse">
      <stop offset="0" stop-color="#08142e"/>
      <stop offset=".81" stop-color="#17326e"/>
      <stop offset="1" stop-color="#0d69a9"/>
    </linearGradient>
    <linearGradient id="v" x1="0" x2="1" y1="0" y2="0" gradientTransform="rotate(-90 53.7135 8.0892) scale(25.2335)" gradientUnits="userSpaceOnUse">
      <stop offset="0" stop-color="#08142e"/>
      <stop offset=".81" stop-color="#17326e"/>
      <stop offset="1" stop-color="#0d69a9"/>
    </linearGradient>
    <linearGradient id="w" x1="0" x2="1" y1="0" y2="0" gradientTransform="rotate(-90 54.5984 8.1195) scale(26.7114)" gradientUnits="userSpaceOnUse">
      <stop offset="0" stop-color="#08142e"/>
      <stop offset=".81" stop-color="#17326e"/>
      <stop offset="1" stop-color="#0d69a9"/>
    </linearGradient>
    <linearGradient id="x" x1="0" x2="1" y1="0" y2="0" gradientTransform="rotate(-90 47.2787 15.4403) scale(26.7124)" gradientUnits="userSpaceOnUse">
      <stop offset="0" stop-color="#08142e"/>
      <stop offset=".81" stop-color="#17326e"/>
      <stop offset="1" stop-color="#0d69a9"/>
    </linearGradient>
    <linearGradient id="y" x1="0" x2="1" y1="0" y2="0" gradientTransform="rotate(-105 49.3271 23.893) scale(44.6357)" gradientUnits="userSpaceOnUse">
      <stop offset="0" stop-color="#b2b1b1"/>
      <stop offset=".35" stop-color="#deddde"/>
      <stop offset=".65" stop-color="#deddde"/>
      <stop offset="1" stop-color="#b2b1b1"/>
    </linearGradient>
    <linearGradient id="z" x1="0" x2="1" y1="0" y2="0" gradientTransform="rotate(-105 55.4667 .4193) scale(44.4288)" gradientUnits="userSpaceOnUse">
      <stop offset="0" stop-color="#b2b1b1"/>
      <stop offset=".35" stop-color="#deddde"/>
      <stop offset=".65" stop-color="#deddde"/>
      <stop offset="1" stop-color="#b2b1b1"/>
    </linearGradient>
    <linearGradient id="A" x1="0" x2="1" y1="0" y2="0" gradientTransform="rotate(90 9.5935 40.4067) scale(38.3032)" gradientUnits="userSpaceOnUse">
      <stop offset="0" stop-color="#fff"/>
      <stop offset=".55" stop-color="#fff"/>
      <stop offset=".69" stop-color="#fafafa"/>
      <stop offset="1" stop-color="#bdbcbc"/>
    </linearGradient>
    <linearGradient id="B" x1="0" x2="1" y1="0" y2="0" gradientTransform="rotate(90 7.3853 50.4495) scale(18.996)" gradientUnits="userSpaceOnUse">
      <stop offset="0" stop-color="#fff"/>
      <stop offset=".55" stop-color="#fff"/>
      <stop offset=".69" stop-color="#efeeee"/>
      <stop offset=".8" stop-color="#e9e9e9"/>
      <stop offset="1" stop-color="#d3d2d2"/>
    </linearGradient>
    <linearGradient id="C" x1="0" x2="1" y1="0" y2="0" gradientTransform="rotate(90 3.4396 39.2775) scale(26.351)" gradientUnits="userSpaceOnUse">
      <stop offset="0" stop-color="#fff"/>
      <stop offset=".55" stop-color="#fff"/>
      <stop offset=".69" stop-color="#efeeee"/>
      <stop offset=".8" stop-color="#e9e9e9"/>
      <stop offset="1" stop-color="#d3d2d2"/>
    </linearGradient>
    <radialGradient id="a" cx="0" cy="0" r="1" gradientTransform="matrix(215.885 0 0 -210.51 49.6306 238.074)" gradientUnits="userSpaceOnUse">
      <stop offset="0" stop-color="#00050d"/>
      <stop offset=".7" stop-color="#051125"/>
      <stop offset=".9" stop-color="#173e7e"/>
      <stop offset=".96" stop-color="#4ca9e3"/>
      <stop offset="1" stop-color="#4ca9e3"/>
    </radialGradient>
  </defs>
</svg>