<svg xmlns="http://www.w3.org/2000/svg" xml:space="preserve" fill-rule="evenodd" stroke-linejoin="round" stroke-miterlimit="2" clip-rule="evenodd" viewBox="0 0 100 100">
  <path fill="none" d="M0 0h100v100H0z"/>
  <g fill-rule="nonzero">
    <path fill="#fff" d="M49.997 82.65c17.827 0 32.274-14.617 32.274-32.647 0-18.031-14.447-32.653-32.274-32.653-17.821 0-32.268 14.622-32.268 32.653 0 18.03 14.447 32.647 32.268 32.647"/>
    <path fill="#3b73b9" d="M57.239 41.499c0-3.713 2.484-7.313 3.84-6.635 1.545.784-1.158 4.28-3.84 6.635m-16.893 1.353c0-2.985 2.911-8.657 4.69-8.057 2.102.709-1.742 6.43-4.69 8.057m-2.951 21.349c-1.339.061-2.234-.805-2.234-2.251 0-3.885 5.328-7.596 9.352-9.589-.714 5.424-2.525 11.63-7.118 11.84m24.581-12.659c-3.039 0-5.361 2.261-5.361 4.973 0 2.262 1.343 4.07 3.126 4.07.631 0 1.255-.364 1.255-1.171 0-1.182-1.541-1.466-1.425-3.224.077-1.159 1.157-1.935 2.23-1.935 2.143 0 3.145 2.102 3.145 4.27-.087 3.349-2.524 5.674-5.379 5.674-3.757 0-6.17-3.614-6.17-7.504 0-5.791 3.757-8.052 5.725-8.591.018 0 5.139.921 4.98-1.364-.074-1.004-1.551-1.391-2.617-1.432-1.187-.047-2.386.385-2.386.385-.622-.32-1.054-.945-1.321-1.665 3.666-2.806 6.258-5.517 6.258-8.592 0-1.628-1.075-3.075-3.131-3.075-3.666 0-6.437 4.703-6.437 8.954 0 .721 0 1.447.184 2.079-2.326 1.717-4.055 2.787-7.181 4.686 0-.396.082-1.418.345-2.74 1.071-1.177 2.542-2.94 2.542-4.298 0-.632-.354-1.177-1.076-1.177-1.785 0-3.123 2.716-3.481 4.615-.805 1-2.415 2.266-3.758 2.266-1.071 0-1.431-.996-1.521-1.36 3.398-1.176 7.6-5.879 7.6-10.13 0-.902-.359-2.895-3.039-2.895-4.023 0-7.416 6.062-7.416 10.76-1.434 0-1.968-1.535-1.968-2.712 0-1.178.447-2.349.447-2.713 0-.363-.179-.813-.718-.813-1.338 0-2.143 1.808-2.143 3.888.092 2.895 1.968 4.709 4.469 4.886.358 1.72 1.876 3.349 3.751 3.349 1.165 0 2.594-.363 3.578-1.265-.087.632-.174 1.177-.266 1.717-3.936 2.084-6.797 3.53-9.389 5.881-2.051 1.901-3.214 4.432-3.214 6.419 0 2.717 1.697 5.248 5.182 5.248 4.109 0 7.242-3.345 8.763-7.96.713-2.168.999-5.327 1.182-8.225 4.107-2.355 6.056-3.711 8.203-5.252.267.452.537.813.892 1.083-1.876.996-6.345 3.801-6.345 10.402 0 4.703 3.126 9.95 9.298 9.95 5.095 0 8.58-4.252 8.58-8.323-.001-3.705-2.057-7.139-5.993-7.139m15.37 7.769c-.013.028-.063.065-.165.032-.079-.028-.096-.065-.096-.117.004-.051 1.08-3.27 1.071-6.959-.009-3.987-1.608-6.43-3.659-6.43-1.255 0-2.148.907-2.148 2.267 0 2.441 2.948 2.624 2.948 7.958 0 2.168-.447 4.249-1.158 6.509-3.312 11.303-13.86 16.551-24.135 16.551-4.741 0-8.107-.986-9.108-1.44-.041-.024-.079-.103-.046-.183.022-.06.092-.107.133-.088.405.159 3.296 1.079 6.874 1.079 3.932 0 6.258-1.627 6.258-3.619 0-1.265-.984-2.26-2.234-2.26-2.414 0-2.598 3.074-7.781 3.074-2.234 0-4.202-.452-6.524-1.178-11.088-3.435-16.366-14.014-16.362-24.504.004-5.112 1.421-9.184 1.444-9.221.018-.026.082-.056.159-.026.079.026.096.091.092.115-.127.424-1.066 3.341-1.066 6.961 0 3.982 1.608 6.331 3.664 6.331 1.159 0 2.143-.902 2.143-2.168 0-2.445-2.952-2.716-2.952-7.963 0-2.261.451-4.252 1.163-6.601 3.399-11.216 13.86-16.472 24.14-16.553 4.778-.037 8.957 1.41 9.118 1.539.028.024.055.085.028.159-.039.088-.094.097-.12.092-.05-.004-2.769-1.154-6.884-1.154-3.843-.004-6.258 1.624-6.258 3.707 0 1.173.897 2.168 2.234 2.168 2.414 0 2.594-2.982 7.781-2.982 2.228 0 4.198.446 6.52 1.172 11.177 3.437 16.263 14.109 16.359 24.422.053 5.282-1.418 9.277-1.433 9.31M50.003 18.89c-16.985 0-30.751 13.923-30.751 31.111 0 17.185 13.766 31.108 30.751 31.108 16.981 0 30.747-13.923 30.747-31.108 0-17.095-13.766-31.111-30.747-31.111m0 63.76c-17.79 0-32.274-14.561-32.274-32.647 0-18.004 14.484-32.653 32.274-32.653 17.784 0 32.268 14.649 32.268 32.653 0 18.086-14.484 32.647-32.268 32.647"/>
  </g>
</svg>