<svg xmlns="http://www.w3.org/2000/svg" xml:space="preserve" fill-rule="evenodd" stroke-linejoin="round" stroke-miterlimit="2" clip-rule="evenodd" viewBox="0 0 100 100">
  <path fill="none" d="M0 0h100v100H0z"/>
  <g fill="#0671d8" fill-rule="nonzero">
    <path d="M25.776 17.35c-4.653 0-8.426 3.773-8.426 8.426v48.448c0 4.653 3.773 8.426 8.426 8.426h48.448c4.653 0 8.426-3.773 8.426-8.426V25.776c0-4.653-3.773-8.426-8.426-8.426H25.776Zm0 4.213h48.448c2.327 0 4.213 1.886 4.213 4.213v48.448c0 2.327-1.886 4.213-4.213 4.213H25.776c-2.327 0-4.213-1.886-4.213-4.213V25.776c0-2.327 1.886-4.213 4.213-4.213Z"/>
    <path d="M47.097 60.645h21.29v3.871h-21.29zm0-25.161V56.29h4.355V39.355h4.354V56.29h4.355V39.355h2.904c.801 0 1.451.65 1.451 1.451V56.29h4.355V40.323c0-2.673-2.166-4.839-4.839-4.839H47.097Zm-11.129 0c-2.673 0-4.839 2.166-4.839 4.839v11.129c0 2.672 2.166 4.838 4.839 4.838h3.871v.968c0 1.871-1.733 3.387-3.871 3.387h-2.42v3.871h2.42c4.543 0 8.226-3.249 8.226-7.258V35.484h-8.226Zm.967 3.871h2.904v13.064h-2.904c-.801 0-1.451-.65-1.451-1.451V40.806c0-.801.65-1.451 1.451-1.451Z"/>
  </g>
</svg>