<svg xmlns="http://www.w3.org/2000/svg" xml:space="preserve" fill-rule="evenodd" stroke-linejoin="round" stroke-miterlimit="2" clip-rule="evenodd" viewBox="0 0 100 100">
  <path fill="none" d="M0 0h100v100H0z"/>
  <path fill="#a4a9ae" d="M50 20c-16.994 0-30.759 13.765-30.759 30.759 0 13.611 8.805 25.107 21.032 29.182 1.537.269 2.114-.653 2.114-1.461 0-.73-.038-3.153-.038-5.729-7.728 1.423-9.728-1.884-10.343-3.614-.346-.884-1.845-3.614-3.153-4.344-1.076-.577-2.614-2-.038-2.038 2.422-.039 4.152 2.23 4.729 3.153 2.768 4.652 7.19 3.345 8.959 2.537.269-1.999 1.076-3.345 1.96-4.114-6.843-.769-13.995-3.422-13.995-15.187 0-3.345 1.192-6.113 3.153-8.266-.308-.769-1.384-3.922.308-8.152 0 0 2.576-.807 8.458 3.153 2.461-.692 5.075-1.038 7.69-1.038 2.614 0 5.229.346 7.69 1.038 5.882-3.998 8.458-3.153 8.458-3.153 1.692 4.23.615 7.383.308 8.152 1.961 2.153 3.153 4.883 3.153 8.266 0 11.804-7.19 14.418-14.034 15.187 1.115.961 2.076 2.807 2.076 5.691 0 4.114-.038 7.42-.038 8.458 0 .808.576 1.769 2.114 1.461 12.489-4.216 20.951-16.001 20.955-29.182C80.759 33.765 66.994 20 50 20Z"/>
</svg>