<svg xmlns="http://www.w3.org/2000/svg" xml:space="preserve" fill-rule="evenodd" stroke-linejoin="round" stroke-miterlimit="2" clip-rule="evenodd" viewBox="0 0 100 100">
  <path fill="none" d="M0 0h100v100H0z"/>
  <g fill-rule="nonzero">
    <path fill="#4285f4" d="M80 50.691c0-2.018-.179-3.934-.511-5.799H50.625v11.521h16.552a14.2337 14.2337 0 0 1-6.13 9.144v7.663h9.86C76.679 67.882 80 60.014 80 50.691Z"/>
    <path fill="#34a853" d="M50.651 80.653c8.276 0 15.198-2.758 20.256-7.433l-9.86-7.663a18.495 18.495 0 0 1-10.036 2.96c-7.947 0-15.047-5.124-17.551-12.666H23.294v7.893C28.465 74.08 39.068 80.64 50.625 80.653h.026Z"/>
    <path fill="#fbbc05" d="M33.46 55.851a17.7761 17.7761 0 0 1 0-11.699v-7.893H23.294c-4.392 8.627-4.392 18.857 0 27.485l10.166-7.893Z"/>
    <path fill="#ea4335" d="M50.651 31.482c4.521 0 8.557 1.558 11.75 4.598l8.735-8.736c-5.529-5.222-12.88-8.091-20.485-7.995-12.006 0-22.325 6.897-27.357 16.91l10.166 7.893c2.414-7.454 9.356-12.57 17.191-12.67Z"/>
  </g>
</svg>