<svg xmlns="http://www.w3.org/2000/svg" xml:space="preserve" fill-rule="evenodd" stroke-linejoin="round" stroke-miterlimit="2" clip-rule="evenodd" viewBox="0 0 100 100">
  <path fill="none" d="M0 0h100v100H0z"/>
  <path fill="#1f70c1" d="M1.258 38.405v-2.671h19.008v2.671H1.258Zm0-5.185v-2.671h19.008v2.671H1.258Zm5.449 12.886h8.256v2.671H6.707v-2.671Zm0 5.186h8.256v2.67H6.707v-2.67Zm8.256-7.701H6.707V40.92h8.256v2.671Zm7.935-13.042h20.965c3.471.175 6.039 2.661 6.039 2.661l.008.01H22.898v-2.671Zm32.362 0 15.438.004.955 2.667H55.26v-2.671Zm43.336 7.856H80.613l.944-2.671h17.039v2.671Zm0-5.185h-16.15l.943-2.667h15.207v2.667Zm-18.872 7.7h13.569v2.671H78.78l.944-2.671Zm13.569 7.857h-8.198v-1.459l-.519 1.459H69.485l-.53-1.462v1.462h-8.246v-2.671h15.556l.818 2.285.807-2.285h15.403v2.671Zm-8.198 2.515h8.198v2.67h-8.198v-2.67Zm8.198 7.856h-8.198v-2.671h8.198v2.671Zm-8.198 2.515h13.647v2.671H85.095v-2.671Zm13.647 7.857H85.095v-2.671h13.647v2.671Zm-21.554 0h-.179l-.968-2.671h2.099l-.952 2.671Zm-8.233 0H55.406v-2.671h13.549v2.671Zm-19.028-2.671-.025.029s-2.429 2.351-5.757 2.642H22.898v-2.671h27.029ZM20.412 69.52H1.404v-2.671h19.008v2.671Zm0-5.186H1.404v-2.671h19.008v2.671Zm-5.449-5.186H6.707v-2.671h8.256v2.671Zm7.935-23.414h29.177c.614.605.967 2.662.967 2.662l.001.009H22.898v-2.671Zm5.449 10.372h23.281l-.004.01c-.538 1.241-2.15 2.536-2.308 2.661H28.347v-2.671Zm0 7.856v-2.67h20.957v.009s1.746 1.358 2.316 2.661H28.347Zm0-13.042h8.197v2.671h-8.197V40.92Zm24.398 2.671h-8.208V40.92h8.729c0 1.258-.521 2.671-.521 2.671Zm2.515-7.857h17.293l.956 2.671H55.26v-2.671Zm20.105 7.857H60.709V40.92h13.7l.956 2.671Zm-14.656 7.701h8.246v2.67h-8.246v-2.67Zm9.689 0H83.68l-.951 2.67H71.366l-.968-2.67Zm10.484 7.856h-7.635l-.968-2.671h9.554l-.951 2.671Zm-1.847 5.186h-3.907l-.968-2.671h5.827l-.952 2.671Zm-10.08 0H55.406v-2.671h13.549v2.671Zm-16.86 0H22.898v-2.671h30.147l-.003.029s-.345 2.014-.947 2.642Zm-23.748-5.186v-2.671h8.197v2.671h-8.197Zm24.919 0h-8.729v-2.671h8.199l.009.02s.516 1.399.521 2.651Zm7.443-2.671h8.246v2.671h-8.246v-2.671Z"/>
</svg>