<svg xmlns="http://www.w3.org/2000/svg" xml:space="preserve" fill-rule="evenodd" stroke-linejoin="round" stroke-miterlimit="2" clip-rule="evenodd" viewBox="0 0 100 100">
  <path fill="none" d="M0 0h100v100H0z"/>
  <clipPath id="a">
    <path d="M0 0h100v100H0z"/>
  </clipPath>
  <g clip-path="url(#a)">
    <path fill="#313675" d="M15.678 57.488v-8.801l-.018-1.432c.08-1.853-.605-2.928-2.697-2.911v-.733h6.3l11.77 12.359s-.164-.764-.188-1.192v-5.59c-.036-3.26.409-4.882-2.444-4.87v-.732h6.563v.732c-2.939-.012-2.569 1.611-2.586 4.87v13.053l-.934-.01-14.173-14.816s.16.763.183 1.191v9.154c-.08 3.339.334 3.743 2.488 3.704v.762H13.1v-.762c2.112.002 2.562-.273 2.577-3.756 0-.073.001-.147.001-.22ZM.885 44.351l-.619-.001v-.761h9.425v.761h-.563c-.765 0-1.296.16-1.624.489-.363.362-.524.958-.524 1.935v12.239c0 1.673.35 2.424 2.427 2.449l.285.004v.747H.266v-.751h.287c2.098 0 2.453-.755 2.453-2.449V46.774c0-.979-.162-1.578-.525-1.941-.324-.324-.847-.482-1.596-.482Zm53.906-1.121.526 6.333h-.707l-.061-.205c-.405-1.351-.941-2.168-1.974-3.013-1.27-1.007-3.122-1.69-4.717-1.69-1.785 0-3.35.653-4.528 1.83-1.48 1.478-2.198 3.777-2.198 6.472 0 2.502.742 4.716 2.262 6.236 1.298 1.296 2.99 2.029 4.89 2.029 1.284 0 2.302-.35 3.703-1.274v-4.525c0-1.721-.357-2.059-2.245-2.133l-.276-.01v-.726h8.283v.726l-.276.01c-1.695.069-1.95.393-1.95 2.474v4.884l-.443.24c-2.532 1.357-4.181 1.771-7.062 1.771-3.459 0-5.839-.774-7.963-2.59-2.109-1.815-3.139-3.968-3.152-6.585-.014-2.733.999-5.262 2.85-7.119 2.015-2.022 4.836-3.135 7.946-3.135 1.599 0 3.497.39 4.962 1.025.337.154.637.21.757.21.421 0 .567-.618.616-.988l.034-.247h.723Z"/>
    <path fill="#fff" d="M91.07 62.163c.46-.07.949-.059 1.316-.396 1.556.239 3.133-.145 4.356-1.002.645-.519 1.225-1.121 1.695-1.78.413-.579.74-1.119.951-1.768.157-.401.282-.817.376-1.245.443-2.017.21-4.273-.447-6.191-.12-.356-.258-.701-.407-1.03-.821-1.694-1.937-3.521-3.656-4.592-.969-.603-1.86-1.536-2.407-2.503-.298-.267-.583-.621-.967-.685.105.173.221.343.249.545l-.022.029c-.408.012-.728-.204-1.008-.465l.308-.279c-.116-.059-.249-.082-.378-.111-1.176-.134-2.143.408-3.186.669l-.016.058c.64.285.774.99 1.147 1.467.092-.111.249-.03.378-.04.186.01.361.145.542.097.005-.155-.083-.279-.111-.418.111-.052.244-.006.368 0 .337.197.878-.035 1.088.418-.384.025-.745.106-1.106.193.023.146.169.261.157.407-.309-.128-.635-.208-.979-.249l-.017.052c.436.511 1.036.815 1.648.994.88.204 1.655-.215 2.504-.069 2.086.954 3.868 3.137 4.643 5.209.038.099.075.2.109.303.649 1.892.773 4.217.122 6.19-.346.821-.727 1.596-1.337 2.263-.231.284-.486.537-.764.751-.874.68-1.952.98-3.064.676-.07-.048-.21-.06-.186-.181.038-.163.075-.327.106-.495.184-.946.27-1.941.22-2.935-.001-.043-.003-.086-.004-.128-.061-1.444-.35-2.742-.88-3.991-.342-.717-.746-1.499-1.256-2.2-.609-.836-1.364-1.559-2.333-1.919-.595-.158-1.328-.188-1.777.307-.32.28-.453.657-.407 1.072-.501.317-1.065.488-1.678.54-.15.013-.303.068-.46.066-.148.007-.292.001-.434-.016-.738-.091-1.484-.489-2.051-.943-.012-.303-.029-.588-.041-.908-.325-.168-.594-.488-.617-.867l.029-.029c.187.058.349.151.518.25-.075-.454-.163-.902-.389-1.298-.211-.088-.42-.157-.618-.262-.227-.15-.373-.425-.407-.674.204.197.559.128.716.337-.274-.809-.279-1.734-.728-2.474-.227-.546-.822-.797-1.229-1.198-.158-.192-.221-.46-.506-.49-.234-.057-.251-.318-.292-.488.145.017.267.116.389.139-.337-.895-.634-1.891-1.548-2.461l-.157.1c-.355.052-.734.076-1.089.087.157-.232.436-.332.658-.437-.257-.192-.468-.238-.788-.29-.186.185-.523.279-.762.331l-.03-.023c-.006-.21-.053-.465.262-.518-.303-.146-.805-.087-1.114 0-.087.227-.337.431-.319.699-.18.186-.308.437-.495.57-.006-.448.185-.861.267-1.239-.262.099-.529.239-.786.361-.412-.239-.848-.477-1.29-.658-.04-.017-.129-.034-.111.041.379.273.232.786.272 1.175l-.239-.198c-.116-.296-.452-.511-.51-.837-.396.076-.65.18-1.017.338l-.05.029c.273 0 .506.214.639.431-.413.022-.78-.14-1.188-.182-.04-.04-.076-.088-.14-.081-.203.076-.379.22-.558.36-.402.396-.81.833-1.002 1.357.134.022.303.017.402.098-.221.134-.413.361-.629.489-.076.303-.064.647-.082.978-.169.257-.396.482-.506.769-.361 1.168-.454 2.466-.402 3.792-.117.112-.269.182-.378.269l.012 1.186h.028c.052-.249.35-.388.53-.557h.059c-.029.267-.064.535-.07.809l-.337.279c-.339.297-.053.745-.082 1.118.024.097.04.243.111.267.041-.146.168-.25.25-.379.145-.034.274-.151.407-.168-.076.291-.173.576-.291.855-.056.037-.121.086-.177.146-.06.064-.108.135-.12.215.263 1.378.675 2.74 1.146 4.037-.319.542-.501 1.179-.767 1.738-.039.078-.073.158-.105.239-.268.676-.349 1.433-.682 2.083-.135-.092-.281-.164-.431-.227-.63-.21-1.358-.076-1.817.408-.408-.076-.828-.006-1.149.209-.229.171-.407.38-.509.622-.069.169-.101.353-.09.554-.262.18-.402.458-.489.739-.122.628.099 1.282.46 1.765H91.07v-.001Z"/>
    <path fill="#fff" d="M87.214 49.08c-.006.151-.116.321-.017.448.14-.157.373-.152.559-.221.518-.046 1.014.116 1.496.234-.121-.193-.203-.407-.337-.582-.269-.07-.676.116-.722-.28-.164-.139-.421-.039-.588-.029-.164.117-.298.261-.391.43Zm-17.802-5.024c-.002-.002-.006-.005-.008-.005 0 0 0 .003.001.005h.007Zm2.118 5.172.349-.337c.03 0 .053.006.07.03l-.029.645c.169.157.378.21.599.221.018-.174.152-.296.228-.448.064-.122.024-.303.151-.39l.04.041c.042.191.031.407.13.575.011.093.028.21.039.291.257.013.489-.058.688-.151-.012-.22.064-.401.098-.605.053-.071-.064-.198.082-.192.082.174.227.355.309.541.337-.344.477-.791.559-1.256-.099-.135-.25-.135-.367-.222-.99-.32-2.261-.385-3.216.11-.062.397.019.833.27 1.147Zm-9.257 10.919c-.035.449 0 .869.028 1.311.094.145.264.315.431.326l.031-.297c.069-.414-.152-.853.081-1.202.163.053.325.134.466.21.069-.384-.029-.832-.396-1.064l-.641.716Zm1.438-.628c-.227.681-.396 1.521-.121 2.237.156-.104.32-.203.458-.349-.028-.548-.103-1.132.222-1.586.285.088.479.361.588.629.193-.245.257-.582.181-.909.012-.255-.28-.196-.42-.302.048-.215.041-.464.268-.586l-.698.069c-.18.255-.378.506-.478.797Zm1.439 2.009c.03.054 0 .146.059.158.087-.488.483-.806.699-1.236.104-.145.098-.349.267-.46.228 0 .391.164.613.181.069.052-.036.098-.041.156-.046.397-.198.725-.169 1.132h.04c.308-.325.518-.678.745-1.05l.04-.331c.052-.396-.378-.652-.658-.815l.251-.32-.35-.122c-.408.041-.775.209-1.06.53-.354.651-.412 1.386-.436 2.177Zm1.567-3.453c.134.041.256-.069.389-.011.537.197 1.096.401 1.498.849l.478 1.216.239-.75-.158-.408c-.133-.291-.501-.267-.752-.279-.103-.116.007-.251.042-.361.122-.413-.385-.39-.589-.557.013-.251-.291-.164-.46-.188l-.058-.069c-.034-.052-.121-.052-.169-.012-.012-.017-.035-.029-.022-.058l-.13.029c-.179.158-.302.361-.308.599Zm.338-1.337c.017.075.064.151.122.197.262-.07.512-.249.815-.14.391.343.798.704 1.271.891l.168-.03c.105.036.221.041.291.157.065.158-.097.251-.151.378.263.193.157.536.321.768l.42-.558c-.099-.245.005-.663-.379-.686-.128-.065-.216-.193-.21-.339-.25-.227-.558-.325-.81-.557-.203-.164-.325-.414-.588-.472-.18-.099-.377-.151-.587-.197-.392-.058-.426.406-.683.588Zm.559-1.147.07.111c.291-.018.554-.146.84-.14.191.117.442.111.639.21.158.215.327.459.559.605.473.069.734.576.897.948v-.181c.07-.249-.006-.541-.099-.767-.117-.117-.286-.193-.408-.298-.023-.075-.006-.11.018-.18-.181-.192-.449-.297-.67-.448-.308-.448-.903-.325-1.375-.448l-.471.588Zm-.01-4.269c.052.181.115.408.15.6.163-.361.484-.522.77-.82-.164-.111-.367-.163-.548-.198v-.011c-.128.128-.326.256-.372.429Zm1.058 1.915.262-.268c.263-.267.478-.576.519-.919-.186-.111-.431-.036-.611.028-.066.38-.163.752-.17 1.159Zm.192.82c.403.024.792.104 1.119-.121l.326-1.048c-.104-.006-.21-.052-.308-.017-.215.477-.648.948-1.137 1.186Zm.118-3.712c.262.385.699.815 1.148.936-.052-.488-.471-.826-.687-1.244l-.013-.14c-.168-.164-.372-.273-.547-.361-.028.28.048.548.099.809Zm1.421 3.759c.308.054.64 0 .925-.088.415-.098.642-.552.781-.907h-.518l-.56.547c-.22.117-.431.292-.628.448Zm-.063-4.288c.087.454.279.867.542 1.257l.07-.867-.612-.39Zm1.909 2.263c.035-.291-.086-.628-.12-.924-.175-.117-.421-.105-.601-.221.012.459.372.849.721 1.145Zm-.53 2.957c.367-.117.722-.245 1.059-.431.216-.308.542-.589.588-.949-.267.076-.501-.011-.75.112-.151.273-.245.582-.536.779-.046.197-.262.332-.361.489Zm.57.716.437.569c.233.076.525.052.728-.081l-.157-.518c-.308.117-.675.081-1.008.03Zm.729-4.121.169.768c.407-.332.489-.815.479-1.326-.233.267-.369.43-.648.558Zm1.147 1.356c.006.111.035.216.1.303.453.163.5.715.92.925.273.122.587-.03.827-.14-.181-.203-.386-.345-.559-.559-.123-.052-.246-.128-.239-.279l-1.049-.25Zm.361 2.747c.199.227.466.343.746.406-.046-.064.029 0 .041-.04l-.351-.767c-.174.005-.355.04-.518.029.012.127.042.254.082.372Zm.618-3.585c-.164-.378-.232-.838-.278-1.256-.175.209-.356.343-.519.558-.076.43.54.536.797.698Zm.71-.395c.21.273.67.18.928.098-.124-.209-.518-.331-.588-.558-.041-.401-.121-.791-.251-1.158-.204.494-.45 1.083-.089 1.618Zm.367 1.233c.583.426 1.153.919 1.968.739.059-.041.158-.035.17-.111-.24-.151-.495-.268-.74-.406l-.279-.408h-.128c-.315.105-.654.145-.991.186Zm.012 4.719h.04c.35-.279.764-.372 1.177-.489.111.041.041.163.14.21.251-.105.554-.081.81-.169.309.013.56.018.81.152.197.261.57.233.827.406l-.041-.406c-.541-.635-1.386-.682-2.166-.669l-.018-.082c-.186 0-.395.041-.57.123-.25.01-.489.134-.729.209-.111.221-.198.488-.28.715Zm.468-7.151c.227.297.564.524.949.449-.198-.193-.425-.397-.437-.67.058-.518-.512-.558-.792-.827.092.35.082.739.28 1.048Zm-.06 8.182h.068c.31-.194.758-.048 1.062-.252.168-.087.179.146.297.21.285.175.32.698.722.576.483.25.361.839.378 1.269l.449-.279c-.041-.227.087-.502-.059-.699-.11-.249-.413-.273-.558-.477.175-.297-.221-.435-.303-.651l.023-.03.616.081c.211.129.286.362.351.577.483.081.6.628.769.977.099-.239.14-.495.239-.727.006-.192-.251-.192-.378-.279-.036-.296-.17-.577-.431-.756-.536-.134-1.008-.431-1.596-.431l-.49.151c-.268.064-.553-.017-.756.168-.305.023-.328.356-.403.572Zm.308-2.398.111.052c.238-.111.478-.239.729-.332.389-.111.692.332 1.019.053.122-.088.226.04.32.11.14.257.466.239.711.309-.122-.332-.273-.786-.699-.84-.169-.075-.367-.067-.53-.167-.449-.495-.74.406-1.23.185-.174.194-.389.373-.431.63Z"/>
    <path fill="#fff" d="M77.05 59.173c.186.156.378.424.669.389.363.169.211.645.409.896l.209-.187-.018-.011.03-.029.013.017c.058-.175-.025-.484-.123-.687-.134-.092-.292.006-.419-.081-.018-.186-.135-.28-.269-.396-.093-.069-.216.024-.32.018l-.181.071Zm.729-7.094c.192.321.564.519.862.739.244.112.564.14.827.082-.25-.203-.478-.436-.687-.682-.082-.116-.1-.261-.21-.366-.275.053-.583.047-.792.227Zm.321-2.082c.269.331.682.198 1.06.209v-.04l-.582-.49c-.164.053-.338.198-.478.321Zm-10.723-5.488.337 1.048c-.006-.594.268-1.088.21-1.693l.251-.373-.531.163c-.139.267-.255.536-.267.855Zm.227-1.815.46-.268v-.681c-.193.117-.299.315-.449.472l-.011.477Z"/>
    <path fill="#fff" d="M77.052 43.753c-.112.146-.28.181-.419.21.244-.448.361-1.072.168-1.578.129-.046.269-.068.391-.139l-.013-.011.321-.281c.425-.291.262-.843.42-1.256-.21-.326-.273-.722-.577-.996l.018-.01c-.24-.303-.67-.269-.998-.42-.43-.146-.762.151-1.071.35-.134.022-.052.197-.198.192-.081.215-.181.448-.239.686-.577-.082-1.199-.017-1.66.308-.245-.179-.542-.215-.828-.296-.209-.041-.448.035-.598-.082-.221-.25-.269-.704-.648-.768-.133-.046-.162-.191-.162-.32-.251-.04-.473-.156-.718-.209-.371-.169-.668.099-.948.279-.122.053-.262.069-.378.14-.21.326-.408.658-.542 1.018.041.296.169.558.321.808.134.379.553.676.908.827-.169.576-.169 1.263 0 1.845 0 0-.01.007-.01.006a.269.269 0 0 1-.019.016c-.056 0-.115.011-.161-.016h-.007c.081.555.343 1.042.767 1.459.151.053.117.233.181.35.04.051.046.162.028.209-.907-.029-1.717.197-2.446.61-.186.094-.104.35-.121.53.512-.337 1.066-.588 1.677-.698.262-.017.559-.081.809-.011l.03.5c-.693.361-1.45.57-2.045 1.164.012.18-.022.39.03.542l.53-.432c.512-.389 1.048-.721 1.637-.936.157.186.321.384.53.5.355-.227.74-.395 1.148-.5.216-.128.558-.012.698-.268l.099-.529c-.018-.012-.028-.035-.058-.028-.273-.158-.454-.431-.431-.751a.7848.7848 0 0 1-.308.081c-.094-.024-.18-.046-.221-.14-.007-.117-.065-.291.051-.378.379-.233.869-.245 1.347-.209.354.046.868.028.989.449-.016.121-.005.255-.127.337-.129.069-.274-.007-.391-.058-.092.284-.25.605-.571.697l.042.339c.039.151.051.401.291.348.553.134 1.042.419 1.525.728.163-.164.292-.35.407-.518.862.29 1.609.936 2.319 1.536l.03-.489c-.676-.6-1.428-1.024-2.208-1.356.029-.157.064-.309.069-.477.927.052 1.805.337 2.569.786l-.012-.419c-.803-.43-1.683-.716-2.645-.728-.034-.053-.046-.128-.039-.181.466-.075.797-.558.909-.978.238-.273.583-.57.501-.976.011-.033.022-.069.034-.104.031-.103.057-.209.023-.304Z"/>
    <path fill="#fff" d="m77.862 45.249.477-.152.052-.267c.135-.39-.15-.681-.291-.99l-.238 1.409Zm1.204 1.844c.227.25.449.652.852.529-.03-.168-.123-.307-.181-.459-.106-.123-.14-.472-.35-.349-.158-.105-.197-.28-.298-.419-.045.215-.016.483-.023.698Zm.082 1.704c.088.123.112.28.198.39.157.104.391.088.582.07.175-.04.286.151.449.04-.203-.128-.325-.361-.518-.529-.228-.18-.472-.023-.711.029Zm.309 2.706c.402.239.913.472 1.449.391.058-.03.158-.024.169-.094-.332-.117-.68-.448-1.029-.518-.193-.297-.443.076-.688.052.006.071.076.123.099.169Zm1.211 5.138.088.187c.087.606.471 1.163.261 1.827.175.121.228.325.338.488h.029c.134-.506.041-1.03-.029-1.537.052-.459-.414-.727-.687-.965Zm.1-5.958c.303.233.787.256 1.135.14-.221-.122-.465-.256-.646-.419l-.489.279Zm1.437 1.787c-.03.245.134.448.309.57.064-.146.168-.268.18-.431-.052-.25-.192-.476-.419-.645-.041.162-.087.318-.07.506Zm.018 2.652c-.041.273.262.309.39.46.105.127-.07.215-.07.337.221.285.349.611.349.99.088-.355.222-.693.27-1.06-.024-.255-.431-.203-.368-.488.116-.291-.023-.576-.099-.837-.024-.042-.076-.123-.121-.1-.108.239-.369.407-.351.698Zm.798-1.385.303.588c.134-.016.22-.146.325-.238.082-.245-.134-.402-.197-.6-.054-.14 0-.325-.1-.448-.075-.046-.164-.122-.251-.099l-.08.797Zm.39-1.547c.239.145.512.355.639.61.205.594.531 1.129.77 1.705.088.402.157.76.268 1.156.041.103.017.307.181.29.046-.442.134-.866.14-1.326-.145-.192-.339-.273-.519-.391v-.04c.024-.099.105-.215.228-.197.052-.06.209-.117.14-.221-.303-.302-.286-.824-.77-.918-.168-.069-.21-.244-.226-.406-.228-.191-.566-.257-.851-.262Zm.278 3.154c.298.272.194.668.17 1.035-.046.221.233.093.321.21.18.268.075.657.011.948.158-.239.338-.449.46-.71-.006-.099.121-.145.117-.267.052-.169-.146-.093-.227-.112-.07-.017-.146-.064-.123-.157.152-.291.012-.64-.046-.93-.07-.24.03-.559-.082-.768-.186.256-.74.314-.601.751Zm.543-4.132c.519.524.897 1.05 1.456 1.557.012-.226-.017-.437-.029-.658-.082-.156-.234-.273-.362-.389-.413-.041-.628-.597-1.065-.51Zm1.357 2.773c.012.053.036.099.058.151.227.373.442.756.601 1.158-.047-.43.245-.966-.14-1.297-.053-.14-.228-.093-.338-.082l-.181.07Zm1.398 4.251c.164.074.373-.06.53-.152.146-.035.268.046.379.122.046.093 0 .18.016.268.351.099.694.227 1.003.43l.098-.098c.024-.251-.174-.43-.361-.57-.121-.071-.303-.03-.389-.141.058-.092.058-.232.052-.337-.193 0-.315-.058-.473-.152-.098-.028-.186-.11-.268 0-.29.199-.308.489-.587.63Zm.408-7.323c.145-.039.298-.082.42-.186.389-.355.955-.116 1.408-.122-.086-.157-.21-.313-.32-.448-.163-.064-.315-.14-.501-.14-.396-.232-.663.157-.967.349-.081.158-.121.39-.04.547Zm.011 1.198c0-.016 0-.035.018-.04.052.047-.006.157.081.18.152-.075.292-.18.431-.278.391 0 .624-.378 1.007-.378.641.115 1.277.244 1.835.557-.04-.378-.367-.721-.698-.89-.187-.065-.333.036-.467.139-.39.246-.186-.354-.459-.366-.356.112-.723.233-1.118.199-.234.086-.397.3-.659.278-.012.192-.041.425.029.599Zm.269 1.299c.121.127.325.103.501.127l.506-.197c.006-.093-.151-.118-.117-.221.14-.157.333-.047.506-.112.246-.034.496-.278.74-.098-.006.029.012.07-.011.098-.077.181.052.291.192.361.286.053.553.315.839.198-.029-.238-.093-.459-.152-.687-.238-.041-.407-.238-.629-.321-.099.094-.227.164-.349.152-.449-.104-.985-.383-1.439-.098-.163.197-.455.139-.676.226.013.199.035.391.089.572Zm.191 3.458c-.035.099-.133.262.046.308.374.013.851-.18 1.143.111.099.076.052.232.046.332l.489.408c.047-.245.134-.467.14-.729-.04-.186-.134-.367-.296-.489-.322 0-.508-.375-.852-.327-.18-.041-.337.118-.518.118-.082.082-.128.181-.198.268Zm.14-2.743c.076.156.164.413.309.43.344-.151.844-.244 1.229-.081.129.023.129.169.1.262.197.117.437.209.646.337l-.058-.348c-.012-.379-.49-.414-.519-.788-.39-.127-.827-.167-1.24-.069-.135.123-.327.106-.49.141-.011.046.017.075.023.116Zm.1 1.885c.227-.064.372-.314.617-.337.373.007.705.156.937.477.141.093.112.332.291.332-.052-.286.042-.547.03-.838-.246-.407-.849-.094-1.077-.571l-.431.029c-.308.076-.226.437-.269.681-.034.076-.104.134-.098.227Zm2.136 2.545c.181.361.578.635.618 1.048.093-.111.158-.238.222-.36-.007-.117-.141-.117-.194-.21-.052-.151.03-.285.053-.419-.075-.216-.256-.419-.46-.547l-.239.488Zm.718-.919.419.57c.18-.285.18-.703.11-1.048-.039-.064-.116-.168-.221-.122-.158.164-.18.413-.308.6Zm-1.708-15.927c.152.076.298.146.478.157.123-.064.281-.11.432-.07.215.14.477-.029.727-.017-.221-.209-.472-.337-.727-.459-.327.069-.588.301-.91.389Zm2.279.547c.308.029.529.302.739.531.263.039.46.225.617.418l-.099-.309c-.069-.309-.262-.548-.459-.791-.279.018-.555.041-.798.151Z"/>
    <path fill="#f60" d="m69.793 39.703.169.017c.455.227 1.189.343 1.229 1.001-.459.181-.902.426-1.268.797-.28-.286-.846-.128-.938-.628.087-.472.256-1.064.808-1.187Zm.438 2.951c.529-.046 1.042.028 1.591-.018.133.058.273.175.337.309-.017.628-.21 1.227-.239 1.873-.238.1-.472.297-.53.559-.216.063-.408.193-.618.29-.093-.197-.076-.494.089-.656.226-.321.815-.245.767-.751.152-.245.006-.559.012-.816-.058-.191-.116.064-.209.058-.186.04-.379.052-.541-.04-.123-.129-.275-.233-.309-.407-.164-.082-.355-.21-.437-.379l.087-.022Zm.641 3.793c.249.035.512-.075.727.046-.046.082-.168.117-.267.14l-.39.181c-.146-.036-.065-.268-.07-.367Zm1.019-4.859c.25-.082.519-.249.786-.168-.192.192-.343.442-.488.674l-.798-.017c.086-.209.307-.383.5-.489Zm2.336-.192c.331-.057.314.373.617.391.053.07.129.133.099.237-.175.07-.431.036-.63.082-.262-.146-.092-.6-.507-.57-.022-.034-.069-.105-.011-.128.129-.046.296-.029.432-.012Zm-.21 1.56c.145-.204.368-.22.577-.262l1.508.029c.065.058-.057.11-.057.181-.094.087-.228.11-.31.192-.197.006-.181.238-.32.337-.216.215-.53.117-.781.082-.088-.064-.186-.152-.227-.251l-.07.07c.088.326.064.687.128 1.018l.361.24c.006.535.635.389.909.687-.064.191-.192.354-.331.517-.221-.215-.472-.356-.74-.448-.023-.314-.367-.5-.559-.658-.053-.57-.065-1.152-.157-1.704l.069-.03Zm.548 3.59h.699l-.088.366-.699-.297c-.016-.058.046-.075.088-.069Zm1.257-6.592.519-.164c.297.14.577.315.85.512.216.397.18.931.082 1.373-.158.175-.501 0-.629.279h-.024c-.193-.546-.739-1.034-1.246-1.286.081-.278.169-.551.448-.714Z"/>
    <path fill="#fff" d="M87.971 62.122h3.108c.46-.07.949-.058 1.315-.397 1.556.24 3.134-.145 4.357-.999.646-.521 1.226-1.123 1.694-1.78.414-.58.74-1.121.951-1.77.157-.401.282-.817.376-1.245.443-2.017.211-4.272-.445-6.191-.122-.357-.259-.7-.409-1.029-.82-1.694-1.935-3.521-3.656-4.593-.969-.603-1.859-1.537-2.406-2.502-.298-.269-.584-.623-.968-.687.106.175.221.343.251.546l-.023.03c-.408.011-.729-.204-1.008-.467l.309-.278c-.117-.058-.251-.082-.379-.11-1.177-.134-2.143.406-3.185.669l-.018.058c.64.284.774.988 1.147 1.466.094-.111.251-.03.379-.041.186.011.361.145.541.098.006-.156-.081-.278-.111-.417.111-.054.246-.007.368 0 .337.197.879-.036 1.089.417-.385.025-.746.105-1.107.193.023.145.169.262.158.407-.31-.129-.635-.209-.979-.25l-.016.051c.436.513 1.035.816 1.647.996.879.204 1.654-.215 2.503-.069 2.087.954 3.869 3.137 4.644 5.209.038.099.074.2.109.301.649 1.892.772 4.219.122 6.192-.346.821-.727 1.595-1.338 2.263-.231.283-.486.536-.764.751-.874.681-1.952.98-3.063.674-.069-.045-.21-.058-.187-.179.039-.162.075-.327.107-.495.185-.947.269-1.941.22-2.935-.002-.043-.003-.086-.005-.128-.061-1.444-.349-2.742-.88-3.991-.34-.717-.745-1.498-1.255-2.2-.608-.837-1.364-1.56-2.334-1.921-.594-.157-1.328-.186-1.776.309-.321.279-.454.657-.408 1.07-.501.319-1.064.49-1.677.542-.15.013-.305.067-.46.066-.149.007-.294 0-.434-.018-.739-.09-1.485-.487-2.052-.942-.011-.301-.03-.588-.041-.907-.325-.169-.593-.49-.617-.867l.03-.029c.186.058.349.151.518.25-.076-.454-.163-.902-.39-1.297-.21-.088-.421-.157-.618-.263-.227-.151-.373-.424-.407-.675.203.199.559.129.716.338-.273-.809-.279-1.734-.728-2.473-.227-.547-.822-.797-1.229-1.199-.158-.192-.221-.459-.507-.489-.233-.058-.251-.32-.291-.488.145.017.267.116.391.139-.339-.896-.636-1.89-1.55-2.461l-.158.099c-.354.053-.733.076-1.089.087.158-.233.437-.331.659-.437-.257-.191-.468-.238-.789-.291-.186.187-.522.279-.761.332l-.029-.023c-.006-.209-.054-.466.261-.518-.303-.145-.804-.087-1.113 0-.088.227-.336.431-.32.698-.179.187-.308.436-.495.571-.005-.449.185-.862.267-1.239-.262.098-.528.237-.784.36-.414-.239-.85-.477-1.292-.657-.041-.018-.129-.035-.111.04.378.273.232.785.272 1.176l-.239-.198c-.116-.297-.453-.512-.51-.838-.396.076-.65.181-1.017.338l-.051.029c.273 0 .506.215.641.43-.414.023-.781-.14-1.188-.18-.041-.041-.075-.088-.141-.081-.204.075-.377.221-.559.361-.401.395-.809.832-1.001 1.355.134.024.303.018.402.1-.22.133-.413.36-.629.488-.076.303-.064.646-.082.978-.168.256-.396.483-.506.768-.361 1.169-.455 2.467-.402 3.793-.117.111-.269.182-.378.268l.012 1.187h.028c.054-.25.351-.39.531-.558h.058c-.029.267-.064.535-.07.809l-.338.279c-.336.297-.051.744-.081 1.116.024.1.04.245.112.269.04-.146.168-.251.249-.378.145-.036.273-.152.407-.169-.074.29-.174.575-.291.854-.056.037-.122.087-.178.146-.059.064-.106.137-.117.216.261 1.379.673 2.74 1.145 4.038-.321.54-.502 1.178-.769 1.737-.038.078-.072.157-.104.239-.268.677-.35 1.432-.683 2.083-.133-.094-.278-.163-.43-.227-.63-.209-1.358-.076-1.817.407-.408-.076-.828-.006-1.149.209-.229.173-.407.38-.509.623-.068.169-.101.352-.09.553-.262.18-.402.46-.489.739-.123.629.098 1.282.459 1.765h25.927v.001Z"/>
    <path fill="#f60" d="M99.327 49.74c-.122-.356-.259-.699-.409-1.029-.82-1.693-1.935-3.52-3.656-4.592-.969-.604-1.859-1.538-2.406-2.502-.298-.269-.584-.623-.968-.687.106.174.221.343.251.546l-.023.029c-.408.012-.729-.203-1.008-.466l.309-.279c-.117-.057-.251-.082-.379-.11-1.177-.133-2.143.407-3.185.669l-.018.058c.64.285.774.989 1.147 1.467.094-.111.251-.03.379-.042.186.012.361.146.541.099.006-.157-.081-.278-.111-.418.111-.053.246-.006.368 0 .337.197.879-.036 1.089.418-.385.024-.746.104-1.107.192.023.146.169.263.158.408-.31-.129-.635-.209-.979-.251l-.016.052c.436.512 1.035.815 1.647.996.879.203 1.654-.215 2.503-.07 2.087.955 3.869 3.138 4.644 5.209.038.1.074.201.109.302.649 1.892.772 4.219.122 6.191-.346.822-.727 1.596-1.338 2.264-.231.283-.486.536-.764.751-.874.68-1.952.979-3.063.674-.069-.045-.21-.058-.187-.18a10.5 10.5 0 0 0 .107-.494c.185-.947.269-1.942.22-2.935-.002-.043-.003-.086-.005-.128-.061-1.444-.349-2.743-.88-3.991-.34-.717-.745-1.499-1.255-2.201-.608-.836-1.364-1.56-2.334-1.92-.594-.157-1.328-.186-1.776.309-.321.279-.454.657-.408 1.07-.501.318-1.064.49-1.677.541-.15.013-.305.068-.46.067-.149.007-.294 0-.434-.018-.739-.091-1.485-.487-2.052-.943-.011-.301-.03-.587-.041-.906-.325-.169-.593-.49-.617-.867l.03-.03c.186.058.349.151.518.251-.076-.454-.163-.902-.39-1.298-.21-.087-.421-.156-.618-.262-.227-.151-.373-.425-.407-.675.203.199.559.128.716.338-.273-.809-.279-1.734-.728-2.473-.227-.547-.822-.797-1.229-1.2-.158-.191-.221-.458-.507-.488-.233-.058-.251-.321-.291-.488.145.016.267.116.391.139-.339-.897-.636-1.891-1.55-2.461l-.158.098c-.354.054-.733.076-1.089.088.158-.233.437-.331.659-.437-.257-.192-.468-.238-.789-.291-.186.187-.522.279-.761.331l-.029-.022c-.006-.209-.054-.466.261-.518-.303-.145-.804-.088-1.113 0-.088.227-.336.43-.32.698-.179.187-.308.436-.495.57-.005-.448.185-.861.267-1.239-.262.098-.528.238-.784.361-.414-.239-.85-.478-1.292-.657-.041-.018-.129-.036-.111.039.378.274.232.786.272 1.176l-.239-.197c-.116-.297-.453-.512-.51-.839-.396.076-.65.181-1.017.339l-.051.028c.273 0 .506.215.641.43-.414.024-.781-.14-1.188-.179-.041-.041-.075-.088-.141-.082-.204.076-.377.222-.559.361-.401.395-.809.833-1.001 1.356.134.024.303.018.402.099-.22.134-.413.361-.629.489-.076.303-.064.646-.082.978-.168.256-.396.482-.506.767-.361 1.17-.455 2.467-.402 3.794-.117.11-.269.182-.378.268l.012 1.187h.028c.054-.251.351-.39.531-.558h.058c-.029.267-.064.534-.07.809l-.338.279c-.336.296-.051.743-.081 1.116.024.099.04.245.112.268.04-.145.168-.25.249-.378.145-.036.273-.151.407-.169-.074.29-.174.576-.291.855-.056.037-.122.087-.178.146-.059.064-.106.137-.117.216.261 1.379.673 2.74 1.145 4.037-.321.541-.502 1.179-.769 1.738-.038.078-.072.157-.104.238-.268.677-.35 1.433-.683 2.084-.133-.094-.278-.164-.43-.228-.63-.209-1.358-.075-1.817.407-.408-.075-.828-.006-1.149.209-.229.173-.407.381-.509.624-.068.168-.101.352-.09.553-.262.18-.402.459-.489.738-.123.629.098 1.283.459 1.766h10.293c-.151-.18-.291-.43-.397-.645-.22-.333-.069-.804-.093-1.188.21-.423.423-.848.662-1.261.049-.084.097-.165.147-.246l.473-.18c.25 0 .46-.181.699-.117.32.321.32-.32.629-.349.722-.093 1.439-.024 1.846.588 0 .081.129.081.099.157-.093.028-.181-.03-.279-.03-.443-.11-.962-.39-1.398-.14-.017.105-.039.211-.06.315-.022.112-.042.22-.051.325.285.081.524.285.739.506.146-.285.454-.413.728-.506.239.052.501.058.7.209.367.339.186.914.152 1.345.331.186.698.291 1.035.471-.157.141-.366.198-.558.269l-.559-.112c-.064-.046-.175-.046-.198-.127-.186.197-.414.459-.53.715h7.979c-.105-.239-.227-.425-.373-.646-.163-.349-.098-.826-.116-1.199l.746-1.135c.407-.005.868-.157 1.31-.081a.562.562 0 0 0 .064-.034c.183-.127.239-.422.513-.385.488-.133.862.088 1.229.309-.013.029-.024.055-.037.076-.154.245-.442-.029-.651.045-.088.093.041.203.057.309.076.104-.076.092-.127.11-.122.018-.256-.012-.35-.11-.023-.03-.006-.064-.052-.069-.105.173-.257.331-.297.529.133.128.314.256.378.419.134.192-.105.337-.151.506-.017.035-.071.035-.088 0-.123-.069-.227-.245-.361-.199-.117.519.04 1.037-.03 1.555.228.053.495-.012.74 0l.099-1.094c.104-.71.525-1.304 1.02-1.846.535-.365.879.356 1.275.606.064.012.041.082.069.122-.005.117-.127.163-.209.199-.245.086-.426-.181-.577-.339-.145.158-.21.367-.378.49l.058.016c.193.193.378.397.42.653-.023.232-.14.459-.35.576-.156-.269-.285-.565-.389-.839.006.013-.007.018-.018.03-.321.087-.406.447-.46.739.017.285-.198.401-.141.686h4.154c.46-.069.949-.058 1.316-.397 1.556.24 3.134-.144 4.357-.999.645-.521 1.225-1.123 1.694-1.78.413-.58.74-1.121.951-1.77.157-.401.281-.817.375-1.245.443-2.015.211-4.27-.445-6.189Z"/>
    <path fill="#f60" d="M72.597 60.54c.227-.146.594-.181.646-.518-.092-.07-.174-.158-.279-.181l-.239.07c.017-.14.093-.297.141-.448l.768-.25c-.106.349-.146.785-.181 1.187.07.594.157 1.228.46 1.722h-.827c-.093-.546-.665-.943-.489-1.582Zm1.789-.699h.046l.558.507.082-.018c-.046.594-.076 1.176-.082 1.792h-.605c-.123-.576-.327-1.181-.303-1.803.105-.157.174-.356.304-.478Zm1.245.559c.112-.144.158-.39.379-.418.157.004.303.028.42.139.204.256.005.583-.069.838-.082.39-.223.797-.351 1.164h-.588l.209-1.723Zm8.836-.18c.129.163.169.384.361.529.17-.232.21-.594.129-.89l-.169-.169c.216-.052.443-.07.659-.11-.094.308-.27.587-.239.948.005.524.092 1.048.139 1.594h-.641c-.232-.512-.466-1-.448-1.594.069-.105.116-.228.209-.308Z"/>
    <path fill="#fff" d="M87.223 49.04c-.006.151-.117.319-.018.448.141-.157.373-.151.56-.221.518-.047 1.013.116 1.496.233-.122-.193-.203-.408-.338-.582-.268-.07-.676.116-.722-.28-.163-.139-.419-.04-.588-.029-.164.116-.297.262-.39.431ZM69.42 44.015c-.002-.001-.005-.004-.008-.006 0 .002.001.004.001.006h.007Zm2.118 5.173.35-.337c.03 0 .053.006.07.028l-.029.646c.169.157.377.209.599.221.018-.174.152-.297.228-.448.064-.122.023-.302.151-.388l.041.039c.04.193.029.408.128.576.012.093.028.209.04.291.257.012.49-.058.687-.152-.012-.22.065-.401.099-.603.053-.071-.064-.199.081-.193.082.175.227.354.31.541.337-.343.478-.79.558-1.257-.099-.133-.25-.133-.367-.22-.99-.32-2.259-.384-3.214.11-.065.394.017.831.268 1.146Zm-9.257 10.919c-.036.448 0 .869.028 1.311.094.146.264.315.432.325l.029-.297c.07-.413-.151-.851.082-1.2.163.051.326.133.466.209.07-.384-.029-.833-.397-1.066l-.64.718Zm1.439-.629c-.227.681-.396 1.52-.122 2.237.157-.105.32-.204.459-.349-.028-.548-.104-1.131.222-1.586.285.088.478.361.587.628.194-.244.257-.582.182-.907.012-.256-.279-.197-.419-.302.046-.216.039-.465.267-.588l-.698.07c-.181.256-.379.505-.478.797Zm1.439 2.01c.029.052 0 .146.059.158.086-.49.482-.806.699-1.237.104-.144.099-.349.268-.459.226 0 .39.163.611.18.07.053-.036.099-.041.157-.046.397-.198.724-.169 1.132h.04c.309-.327.519-.678.746-1.05l.04-.331c.053-.396-.377-.652-.659-.815l.251-.321-.35-.122c-.407.041-.774.21-1.059.531-.355.65-.413 1.386-.436 2.177Zm1.567-3.453c.133.04.256-.069.389-.012.537.198 1.095.402 1.498.849l.478 1.217.239-.752-.158-.406c-.134-.291-.501-.267-.752-.279-.104-.117.006-.25.041-.36.122-.414-.384-.391-.588-.559.012-.25-.291-.164-.46-.186l-.058-.07c-.035-.053-.122-.053-.17-.012-.01-.018-.034-.03-.022-.058l-.128.028c-.181.158-.303.361-.309.6Zm.337-1.338c.018.074.064.15.122.197.262-.069.514-.251.816-.139.391.343.798.703 1.27.889l.169-.028c.104.034.221.039.29.157.065.157-.098.249-.15.377.262.193.158.536.32.768l.419-.557c-.098-.245.006-.664-.377-.688-.13-.064-.216-.191-.211-.336-.25-.227-.558-.326-.809-.559-.205-.163-.326-.413-.588-.471-.181-.1-.379-.152-.588-.197-.391-.06-.426.406-.683.587Zm.56-1.147.07.112c.291-.018.552-.145.838-.14.192.116.443.11.64.209.158.216.327.459.559.605.472.069.734.577.897.948v-.179c.069-.251-.007-.543-.098-.769-.117-.117-.287-.192-.408-.296-.024-.076-.007-.112.017-.181-.181-.192-.449-.297-.67-.449-.309-.448-.902-.324-1.375-.448l-.47.588Zm-.01-4.268c.052.181.114.407.15.6.162-.361.484-.524.769-.82-.163-.111-.367-.164-.547-.198v-.012c-.129.127-.327.256-.372.43Zm1.058 1.915.261-.267c.263-.269.48-.578.519-.921-.186-.11-.431-.034-.611.03-.064.377-.163.75-.169 1.158Zm.192.821c.402.022.793.104 1.119-.123l.327-1.047c-.106-.007-.211-.054-.31-.018-.215.476-.646.948-1.136 1.188Zm.118-3.713c.262.384.7.814 1.147.937-.052-.49-.471-.827-.687-1.245l-.012-.14c-.169-.163-.373-.274-.548-.361-.028.28.048.546.1.809Zm1.42 3.759c.308.052.641 0 .926-.088.413-.099.641-.553.78-.907h-.518l-.558.546c-.221.116-.431.291-.63.449Zm-.063-4.288c.088.454.281.867.543 1.257l.069-.868-.612-.389Zm1.909 2.263c.036-.291-.086-.629-.12-.925-.175-.117-.419-.106-.6-.221.011.459.371.849.72 1.146Zm-.529 2.955c.366-.116.722-.244 1.06-.43.216-.309.541-.587.588-.948-.269.075-.501-.012-.751.111-.152.273-.246.582-.536.779-.047.197-.262.331-.361.488Zm.57.716.437.57c.233.075.524.053.728-.081l-.156-.517c-.31.115-.677.082-1.009.028Zm.728-4.119.169.767c.407-.33.491-.814.48-1.325-.233.267-.368.43-.649.558Zm1.148 1.355c.006.111.035.216.098.303.454.163.501.715.921.924.273.123.588-.028.826-.14-.18-.203-.383-.343-.558-.557-.122-.053-.246-.129-.239-.28l-1.048-.25Zm.361 2.747c.198.226.465.343.745.406-.046-.063.03 0 .041-.04l-.35-.768c-.175.006-.356.042-.518.03.013.128.041.255.082.372Zm.618-3.584c-.164-.378-.231-.839-.279-1.257-.174.21-.355.344-.519.558-.076.43.541.535.798.699Zm.709-.397c.211.275.671.182.927.1-.123-.21-.517-.333-.587-.558-.04-.402-.122-.793-.251-1.158-.203.494-.45 1.082-.089 1.616Zm.367 1.234c.583.424 1.154.919 1.968.738.059-.039.159-.035.17-.11-.239-.151-.495-.268-.74-.407l-.278-.407h-.129c-.315.104-.652.146-.991.186Zm.012 4.719h.042c.349-.279.762-.373 1.176-.489.111.041.041.164.14.21.251-.104.554-.082.809-.169.309.011.56.017.81.151.199.262.571.232.828.407l-.042-.407c-.541-.635-1.385-.681-2.166-.669l-.017-.081c-.186 0-.396.04-.571.122-.249.011-.489.133-.728.209-.111.221-.199.49-.281.716Zm.468-7.151c.227.297.565.525.949.449-.197-.193-.425-.397-.436-.67.058-.517-.513-.559-.792-.826.093.349.081.739.279 1.047Zm-.059 8.18h.069c.308-.191.757-.045 1.06-.249.169-.088.181.146.297.21.286.173.321.697.723.575.482.25.361.838.378 1.268l.449-.278c-.041-.227.088-.501-.059-.699-.11-.25-.414-.273-.559-.476.175-.297-.221-.438-.303-.653l.024-.028.617.081c.21.128.286.361.35.576.483.082.599.628.768.977.1-.238.14-.495.239-.727.006-.192-.25-.192-.378-.279-.034-.298-.169-.576-.431-.756-.536-.135-1.007-.431-1.595-.431l-.489.151c-.269.064-.554-.017-.758.168-.304.024-.326.356-.402.57Zm.308-2.396.111.052c.239-.11.477-.238.728-.332.389-.11.692.332 1.02.053.121-.087.227.041.319.111.142.255.467.238.712.307-.123-.331-.274-.785-.699-.837-.169-.076-.368-.069-.53-.169-.449-.494-.74.408-1.231.187-.173.191-.389.373-.43.628Z"/>
    <path fill="#fff" d="M77.059 59.131c.186.158.378.426.67.39.361.169.21.646.407.897l.21-.187-.018-.012.029-.029.013.016c.058-.173-.024-.481-.123-.686-.134-.093-.29.006-.419-.081-.018-.188-.134-.28-.268-.395-.093-.071-.216.022-.321.016l-.18.071Zm.728-7.092c.192.319.565.518.862.738.246.111.565.14.827.081-.25-.203-.478-.436-.687-.68-.082-.117-.099-.263-.209-.367-.274.053-.584.047-.793.228Zm.321-2.082c.268.331.682.197 1.06.209v-.041l-.582-.489c-.163.052-.338.197-.478.321Zm-10.722-5.488.337 1.048c-.006-.594.269-1.09.21-1.694l.25-.373-.53.164c-.14.267-.256.535-.267.855Zm.227-1.815.46-.268v-.681c-.194.116-.298.315-.449.47l-.011.479Z"/>
    <path fill="#fff" d="M77.06 43.712c-.11.145-.279.181-.419.209.245-.447.361-1.07.169-1.576.128-.046.268-.07.39-.14l-.012-.012.32-.279c.426-.291.262-.843.419-1.257-.209-.325-.273-.721-.576-.995l.017-.011c-.239-.303-.669-.268-.995-.419-.432-.145-.764.151-1.073.349-.134.024-.052.198-.198.191-.081.216-.181.449-.239.687-.577-.081-1.2-.017-1.66.309-.246-.181-.541-.215-.827-.297-.21-.041-.448.034-.599-.082-.221-.249-.269-.704-.648-.767-.134-.047-.162-.193-.162-.321-.251-.041-.473-.157-.716-.209-.373-.169-.67.099-.949.279-.124.051-.263.069-.38.139-.209.327-.406.658-.542 1.018.042.297.17.558.322.809.133.378.553.676.908.827-.169.576-.169 1.262 0 1.844 0 0-.01.008-.01.006 0 .002-.018.017-.018.017-.055 0-.116.011-.162-.017h-.007c.083.556.345 1.043.768 1.46.152.053.116.234.18.349.041.053.047.163.03.21-.91-.029-1.719.198-2.448.611-.186.093-.104.349-.122.53.513-.339 1.066-.588 1.678-.699.262-.016.558-.082.81-.012l.028.502c-.692.361-1.45.57-2.043 1.164.011.179-.024.388.028.54l.531-.43c.513-.391 1.048-.722 1.636-.937.158.186.321.385.531.5.355-.227.74-.396 1.148-.5.215-.128.559-.012.699-.268l.098-.529c-.016-.012-.029-.036-.058-.03-.273-.158-.454-.43-.431-.75a.7555.7555 0 0 1-.308.08c-.092-.022-.181-.046-.221-.14-.006-.115-.065-.29.053-.376.377-.234.867-.245 1.345-.211.354.048.867.03.99.449-.017.122-.006.256-.128.337-.129.07-.274-.006-.391-.059-.092.286-.25.606-.57.699l.04.337c.04.152.052.402.291.349.554.135 1.044.419 1.527.727.163-.162.291-.349.407-.518.863.293 1.607.938 2.319 1.538l.028-.489c-.676-.6-1.426-1.024-2.207-1.356.029-.157.064-.309.071-.478.925.053 1.805.338 2.567.785l-.012-.418c-.803-.431-1.683-.716-2.643-.727-.036-.052-.048-.128-.041-.18.466-.075.797-.558.908-.978.24-.273.584-.57.502-.977.01-.034.022-.07.034-.105.031-.1.057-.207.023-.302Z"/>
    <path fill="#fff" d="m77.869 45.208.478-.151.053-.267c.134-.391-.152-.682-.292-.99l-.239 1.408Zm1.206 1.844c.227.25.449.651.851.529-.03-.169-.123-.309-.181-.46-.104-.121-.14-.471-.349-.348-.158-.105-.198-.28-.298-.419-.045.215-.017.483-.023.698Zm.082 1.705c.087.121.112.279.197.39.158.104.391.086.584.07.174-.041.285.15.448.04-.204-.128-.326-.361-.517-.53-.228-.179-.473-.022-.712.03Zm.309 2.706c.402.238.912.471 1.449.39.058-.029.157-.023.169-.093-.333-.117-.681-.448-1.03-.518-.192-.296-.443.076-.688.052.006.069.076.122.1.169Zm1.209 5.137.088.186c.088.606.471 1.164.262 1.827.175.123.227.326.339.489h.028c.134-.505.041-1.029-.028-1.536.052-.46-.415-.727-.689-.966Zm.101-5.958c.303.233.786.256 1.135.14-.221-.122-.465-.257-.646-.419l-.489.279Zm1.438 1.786c-.029.245.134.448.308.571.065-.145.169-.268.18-.431-.052-.25-.192-.477-.419-.646-.04.163-.087.32-.069.506Zm.017 2.654c-.041.273.262.308.389.46.105.128-.07.215-.07.337.222.285.351.609.351.989.086-.355.22-.692.268-1.058-.024-.257-.431-.204-.368-.489.117-.291-.023-.576-.099-.839-.022-.04-.076-.122-.121-.097-.106.237-.367.406-.35.697Zm.798-1.385.303.587c.133-.017.221-.145.325-.238.082-.245-.134-.402-.197-.6-.053-.14 0-.325-.1-.447-.076-.048-.162-.123-.249-.1l-.082.798Zm.389-1.548c.24.145.513.354.642.611.203.594.529 1.128.768 1.704.088.402.157.76.267 1.155.042.105.019.309.182.291.046-.442.133-.867.14-1.327-.146-.192-.338-.272-.519-.389v-.041c.024-.098.106-.216.227-.197.052-.058.21-.116.14-.221-.303-.302-.285-.823-.768-.917-.169-.069-.209-.245-.227-.406-.228-.194-.565-.257-.852-.263Zm.281 3.154c.297.273.193.669.169 1.036-.046.221.233.092.321.209.181.268.076.658.012.948.158-.239.337-.448.459-.71-.005-.099.123-.146.117-.268.052-.169-.145-.093-.227-.11-.07-.018-.145-.064-.122-.158.15-.291.011-.639-.047-.93-.07-.239.03-.559-.082-.769-.187.258-.741.315-.6.752Zm.541-4.131c.519.524.898 1.05 1.457 1.557.012-.228-.018-.437-.029-.658-.081-.157-.233-.273-.362-.39-.413-.04-.629-.597-1.066-.509Zm1.357 2.772c.012.054.036.1.059.151.227.373.443.758.6 1.159-.047-.431.244-.966-.141-1.298-.052-.14-.225-.093-.337-.082l-.181.07Zm1.398 4.251c.163.075.373-.058.53-.152.146-.034.268.048.379.123.046.093 0 .18.018.268.349.098.692.227 1.001.43l.098-.099c.024-.25-.174-.431-.361-.57-.121-.07-.303-.029-.39-.14.059-.093.059-.233.053-.337-.193 0-.315-.059-.472-.151-.099-.03-.187-.112-.268 0-.291.197-.308.488-.588.628Zm.409-7.322c.145-.042.297-.082.419-.187.391-.355.955-.116 1.41-.122-.088-.157-.211-.315-.321-.448-.164-.064-.315-.14-.501-.14-.396-.233-.663.158-.967.349-.082.157-.122.39-.04.548Zm.01 1.198c0-.018 0-.036.017-.04.054.046-.005.158.083.18.151-.076.291-.18.43-.279.39 0 .624-.379 1.007-.379.642.117 1.277.246 1.835.558-.04-.376-.367-.721-.698-.889-.188-.064-.333.035-.466.14-.39.245-.187-.355-.46-.367-.356.11-.723.233-1.119.197-.233.088-.396.303-.658.279-.011.193-.04.427.029.6Zm.269 1.297c.122.129.325.106.501.129l.506-.199c.006-.091-.151-.116-.116-.22.14-.158.331-.046.507-.11.244-.036.495-.279.739-.1-.007.03.011.07-.012.1-.076.18.052.291.192.36.286.052.553.315.838.197-.028-.238-.092-.458-.15-.686-.239-.041-.409-.238-.63-.32-.098.093-.227.163-.349.151-.449-.105-.986-.384-1.439-.099-.163.198-.455.14-.676.227.013.198.036.39.089.57Zm.192 3.459c-.035.099-.134.261.047.309.373.011.851-.181 1.142.11.099.076.052.233.045.332l.49.407c.046-.246.135-.466.141-.728-.041-.187-.135-.366-.298-.488-.321 0-.506-.375-.851-.329-.18-.04-.337.12-.519.12-.08.081-.127.18-.197.267Zm.14-2.743c.075.157.163.413.308.43.344-.15.845-.244 1.229-.08.128.022.128.168.1.261.197.116.436.209.646.337l-.058-.35c-.012-.378-.489-.412-.519-.785-.39-.127-.827-.169-1.24-.07-.134.122-.327.106-.489.14-.012.047.016.077.023.117Zm.098 1.885c.228-.064.374-.314.619-.337.372.006.704.158.937.478.14.092.111.331.292.331-.054-.285.04-.546.028-.839-.244-.406-.85-.092-1.077-.57l-.431.03c-.309.076-.227.437-.267.682-.036.074-.105.133-.101.225Zm2.139 2.546c.18.36.577.634.617 1.047.093-.11.157-.238.221-.361-.006-.116-.14-.116-.192-.209-.053-.152.028-.285.052-.419-.076-.216-.257-.419-.46-.548l-.238.49Zm.716-.92.419.571c.18-.285.18-.705.11-1.048-.039-.064-.116-.169-.22-.122-.157.163-.181.413-.309.599Zm-1.707-15.926c.151.076.297.145.479.157.121-.064.279-.111.431-.07.215.14.477-.029.728-.017-.222-.21-.473-.338-.728-.46-.327.069-.589.302-.91.39Zm2.278.546c.308.029.53.302.739.529.262.04.46.227.617.419l-.098-.308c-.07-.309-.263-.548-.461-.792-.279.018-.553.042-.797.152Z"/>
    <path fill="#f60" d="m69.803 39.663.169.018c.453.227 1.187.343 1.229 1-.461.181-.904.425-1.271.798-.279-.285-.844-.129-.938-.628.089-.473.257-1.067.811-1.188Zm.437 2.951c.53-.047 1.043.028 1.59-.018.134.058.273.173.338.308-.018.628-.21 1.228-.239 1.873-.239.099-.472.298-.531.559-.215.064-.408.191-.618.29-.091-.197-.075-.494.089-.658.227-.319.816-.245.769-.751.151-.243.006-.558.011-.814-.058-.192-.117.064-.21.058-.186.04-.377.052-.541-.041-.123-.129-.273-.234-.309-.407-.163-.081-.355-.209-.437-.378l.088-.021Zm.641 3.792c.248.036.512-.076.727.047-.045.082-.169.116-.268.14l-.39.18c-.145-.035-.064-.268-.069-.367Zm1.018-4.858c.25-.081.519-.249.786-.169-.191.193-.342.442-.488.675l-.798-.017c.088-.21.309-.384.5-.489Zm2.336-.191c.332-.058.314.372.617.388.054.07.13.134.1.239-.176.07-.432.036-.63.081-.262-.145-.092-.599-.506-.57-.023-.035-.069-.105-.012-.128.128-.046.298-.028.431-.01Zm-.209 1.558c.145-.204.367-.221.576-.261l1.509.028c.064.059-.058.111-.058.18-.093.088-.228.112-.309.193-.198.005-.181.238-.32.338-.216.215-.531.115-.781.081-.087-.064-.186-.151-.228-.25l-.07.069c.088.327.065.687.13 1.019l.361.239c.005.534.635.389.908.686-.064.193-.192.355-.332.518-.221-.215-.472-.355-.739-.448-.024-.313-.367-.5-.558-.657-.054-.571-.065-1.153-.158-1.705l.069-.03Zm.547 3.59h.7l-.088.366-.7-.296c-.016-.058.047-.075.088-.07Zm1.258-6.591.519-.163c.297.139.576.313.85.511.215.396.181.931.081 1.373-.157.174-.501 0-.628.279h-.025c-.191-.546-.739-1.036-1.246-1.285.082-.28.17-.553.449-.715Z"/>
  </g>
</svg>