<svg xmlns="http://www.w3.org/2000/svg" xml:space="preserve" fill-rule="evenodd" stroke-linejoin="round" stroke-miterlimit="2" clip-rule="evenodd" viewBox="0 0 100 100">
  <path fill="none" d="M0 0h100v100H0z"/>
  <path fill="#5c5c5c" d="m34.212 26.177-.677-1.878h-2.303l-.677 1.878h-.56l1.797-4.922c.036-.09.153-.451.153-.532 0-.38-.415-.38-.695-.425v-.199h1.698l2.203 6.078h-.939Zm-1.86-4.94-.967 2.637h1.996l-1.029-2.637Zm9.597 4.94-1.598-2.808h-.56v2.808h-.993v-4.85c0-.867 0-.903-.858-1.029v-.199h2.321c1.092 0 2.447.235 2.447 1.617 0 .912-.524 1.355-1.382 1.49l1.662 2.971h-1.039Zm-1.553-5.653c-.65 0-.605.244-.605.813v1.607h.515c.785 0 1.409-.289 1.409-1.174 0-.894-.461-1.246-1.319-1.246Zm8.341 5.744c-2.077 0-2.664-1.346-2.664-3.216 0-1.743.578-2.98 2.519-2.98.615 0 1.229.081 1.807.271l.054 1.508h-.262c-.018-.189-.09-.388-.19-.551-.28-.487-.749-.794-1.318-.794-1.364 0-1.545 1.499-1.545 2.546 0 1.12.344 2.71 1.752 2.71.597 0 1.093-.118 1.581-.461v.623c-.569.253-1.111.344-1.734.344Zm9.163-.091v-2.953h-2.456v2.953h-.993v-4.886c0-.785-.145-.803-.903-.885v-.198L55.444 20v2.8H57.9v-2.701h.994v6.078H57.9Zm4.484 0v-.225c.678 0 .768-.181.768-.84v-3.884c0-.659-.09-.84-.768-.84v-.225h2.529v.225c-.677 0-.768.19-.768.84v3.884c0 .65.091.84.768.84v.225h-2.529Zm9.125 0h-.786l-1.77-4.922c-.271-.758-.316-.812-1.092-.957v-.199h1.752l1.77 4.949h.018l1.725-4.949h.587l-2.204 6.078Zm9.333 0h-3.604v-4.85c0-.867-.009-.893-.858-1.029v-.199h4.326l.027 1.337h-.253c0-.677-.334-.912-.975-.912h-.704c-.416 0-.569.009-.569.469v1.798h1.092c.515 0 .66-.235.741-.696h.253v1.897h-.253c0-.506-.217-.777-.741-.777h-1.092v2.014c0 .497.108.524.569.524h1.002c.614 0 .768-.307.813-.885h.253l-.027 1.309ZM25.209 80h-.226c0-.677-.18-.768-.84-.768H20.26c-.659 0-.84.091-.84.768h-.226v-2.529h.226c0 .678.19.768.84.768h3.883c.651 0 .84-.09.84-.768h.226V80Zm0-9.925-5.139 2.98v.018h5.139v.569h-4.922c-.849 0-.813.136-.957.903h-.199V72.64l4.913-2.845v-.018h-4.913v-.569h6.078v.867Zm-4.741-8.932c-.705 0-.912.307-.912.985v.614h5.653v.993h-5.653v.624c0 .686.198.921.885.975v.253l-1.31-.036v-4.624l1.337-.036v.252Zm4.741-7.486v3.603h-4.85c-.867 0-.893.009-1.029.858h-.199v-4.326l1.337-.027v.253c-.678 0-.912.334-.912.975v.705c0 .415.009.569.469.569h1.798v-1.093c0-.515-.235-.659-.696-.741v-.252h1.897v.252c-.506 0-.777.217-.777.741v1.093h2.014c.497 0 .524-.109.524-.569v-1.003c0-.614-.307-.767-.885-.812v-.253l1.309.027Zm0-7.27-2.808 1.598v.56h2.808v.994h-4.85c-.867 0-.903 0-1.029.858h-.199v-2.321c0-1.093.235-2.448 1.617-2.448.912 0 1.355.524 1.49 1.382l2.971-1.662v1.039Zm-5.653 1.553c0 .65.244.605.813.605h1.607v-.515c0-.785-.289-1.408-1.174-1.408-.894 0-1.246.46-1.246 1.318Zm5.653-10.042-5.139 2.98v.018h5.139v.569h-4.922c-.849 0-.813.135-.957.903h-.199v-1.906l4.913-2.844V37.6h-4.913v-.569h6.078v.867Zm0-8.878v3.604h-4.85c-.867 0-.893.009-1.029.857h-.199v-4.325l1.337-.027v.252c-.678 0-.912.335-.912.976v.704c0 .416.009.569.469.569h1.798v-1.093c0-.514-.235-.659-.696-.74v-.253h1.897v.253c-.506 0-.777.217-.777.74v1.093h2.014c.497 0 .524-.108.524-.569v-1.002c0-.614-.307-.768-.885-.813v-.253l1.309.027Zm-4.741-7.767c-.705 0-.912.308-.912.985v.614h5.653v.993h-5.653v.624c0 .686.198.921.885.975v.253l-1.31-.036v-4.624l1.337-.036v.252Zm56.539 56.221v2.233H33.455v-2.233h43.552Zm-1.632-4.295v3.092H35.173v-3.092h40.202Zm-.473-35.22v4.295H34.915v-4.295h39.987Zm-19.994-7.516 20.939 4.896-1.202 1.331H35.173l-1.203-1.331 20.938-4.896ZM40.683 55.851c.024 1.495.009 2.991-.015 4.486-.026 1.659-.063 3.318-.13 4.976-.072 1.779-.183 3.556-.281 5.334-.019.341-.053.68-.08 1.012-.657.17-1.307.269-1.958.277-.65-.008-1.301-.107-1.957-.277-.027-.332-.062-.671-.081-1.012-.097-1.778-.209-3.555-.281-5.334-.067-1.658-.104-3.317-.13-4.976-.023-1.495-.039-2.991-.014-4.486.034-2.109.089-4.219.172-6.327.077-1.986.205-3.97.302-5.955.008-.172.081-.209.223-.24.586-.128 1.175-.188 1.766-.189.592.001 1.18.061 1.766.189.142.031.215.068.223.24.097 1.985.225 3.969.303 5.955.082 2.108.137 4.218.172 6.327Zm10.887 0c.024 1.495.009 2.991-.014 4.486-.027 1.659-.063 3.318-.131 4.976-.072 1.779-.183 3.556-.281 5.334-.018.341-.053.68-.08 1.012-.656.17-1.307.269-1.957.277-.651-.008-1.301-.107-1.958-.277-.026-.332-.061-.671-.08-1.012-.098-1.778-.209-3.555-.281-5.334-.067-1.658-.104-3.317-.13-4.976-.024-1.495-.039-2.991-.015-4.486.035-2.109.09-4.219.172-6.327.078-1.986.206-3.97.303-5.955.008-.172.081-.209.223-.24.586-.128 1.174-.188 1.766-.189.591.001 1.18.061 1.766.189.142.031.215.068.223.24.096 1.985.224 3.969.302 5.955.083 2.108.138 4.218.172 6.327Zm12.627 0c.024 1.495.009 2.991-.014 4.486-.027 1.659-.063 3.318-.131 4.976-.072 1.779-.183 3.556-.281 5.334-.018.341-.053.68-.08 1.012-.656.17-1.307.269-1.957.277-.651-.008-1.301-.107-1.958-.277-.026-.332-.061-.671-.08-1.012-.098-1.778-.209-3.555-.281-5.334-.067-1.658-.104-3.317-.13-4.976-.024-1.495-.039-2.991-.015-4.486.035-2.109.089-4.219.172-6.327.078-1.986.206-3.97.302-5.955.009-.172.081-.209.224-.24.585-.128 1.174-.188 1.766-.189.591.001 1.18.061 1.766.189.142.031.214.068.223.24.096 1.985.224 3.969.302 5.955.083 2.108.138 4.218.172 6.327Zm10.63 0c.024 1.495.009 2.991-.015 4.486-.026 1.659-.063 3.318-.13 4.976-.072 1.779-.183 3.556-.281 5.334-.019.341-.053.68-.08 1.012-.656.17-1.307.269-1.958.277-.65-.008-1.301-.107-1.957-.277-.027-.332-.062-.671-.08-1.012-.098-1.778-.209-3.555-.281-5.334-.068-1.658-.104-3.317-.131-4.976-.023-1.495-.038-2.991-.014-4.486.035-2.109.089-4.219.172-6.327.078-1.986.206-3.97.302-5.955.009-.172.081-.209.223-.24.586-.128 1.175-.188 1.766-.189.592.001 1.181.061 1.766.189.143.031.215.068.224.24.096 1.985.224 3.969.302 5.955.083 2.108.137 4.218.172 6.327Z"/>
</svg>