<svg xmlns="http://www.w3.org/2000/svg" xml:space="preserve" fill-rule="evenodd" stroke-linejoin="round" stroke-miterlimit="2" clip-rule="evenodd" viewBox="0 0 32 32">
  <g fill-rule="nonzero">
    <path fill="#f7df1e" d="M0 0h32v32H0z"/>
    <path d="m8.414 26.742 2.449-1.482c.472.837.902 1.546 1.933 1.546.988 0 1.611-.387 1.611-1.89V14.691h3.007v10.267c0 3.115-1.826 4.533-4.489 4.533-2.406 0-3.802-1.246-4.511-2.75m10.634-.322 2.448-1.417c.645 1.052 1.482 1.825 2.965 1.825 1.246 0 2.04-.623 2.04-1.482 0-1.031-.816-1.396-2.191-1.997l-.751-.323c-2.17-.923-3.609-2.083-3.609-4.532 0-2.255 1.718-3.974 4.403-3.974 1.912 0 3.287.666 4.275 2.406l-2.342 1.504c-.515-.924-1.074-1.289-1.933-1.289-.88 0-1.439.558-1.439 1.289 0 .902.559 1.267 1.847 1.826l.752.322c2.556 1.095 3.995 2.212 3.995 4.725 0 2.707-2.126 4.189-4.983 4.189-2.792 0-4.597-1.332-5.477-3.072"/>
  </g>
</svg>