<svg xmlns="http://www.w3.org/2000/svg" xml:space="preserve" fill-rule="evenodd" stroke-linejoin="round" stroke-miterlimit="2" clip-rule="evenodd" viewBox="0 0 100 100">
  <path fill="none" d="M0 0h100v100H0z"/>
  <path fill="#ff8000" fill-rule="nonzero" d="M78.717 49.022a67.5906 67.5906 0 0 0-7.366-11.036.9569.9569 0 0 1-.205-.514 93.7562 93.7562 0 0 0-1.412-10.189A1.6716 1.6716 0 0 0 68.323 26l-4.877-.59h-.102a1.022 1.022 0 0 0-.719.308 1.028 1.028 0 0 0-.308.718v1.694a.052.052 0 0 1-.044.078c-.002 0-.005-.001-.007-.001h-.052a68.344 68.344 0 0 0-9.778-7.468c-1.445-.985-3.355-.985-4.8 0a80.1332 80.1332 0 0 0-26.332 28.308c-.258.566-.178 1.231.205 1.72.205.308.513.513.898.616l4.825.898c.662.18 1.145.755 1.207 1.438.025.847.949 20.019 2.079 25.023.197.728.863 1.235 1.617 1.232h.025l8.188-.154h.23c.129 0 .257-.051.385-.154.103-.102.154-.256.154-.385v-.025c-.128-1.669-.359-5.518-.564-9.548v-.333a1.028 1.028 0 0 0-.513-.822c-1.491-.903-2.435-2.494-2.516-4.235-.256-6.724-.385-14.501 0-20.583 0-.257.103-.514.257-.693a.9763.9763 0 0 1 .68-.277c.267 0 .522.11.706.302.18.206.282.462.257.719v.077c-.206 4.055-.257 8.829-.154 13.577.006.462.29.878.718 1.052.138.056.284.084.432.084.481 0 .914-.3 1.082-.751.053-.139.08-.287.077-.436-.109-4.552-.049-9.107.18-13.654 0-.257.103-.514.282-.693a.9787.9787 0 0 1 .681-.277c.266 0 .521.11.705.302.194.208.287.489.257.77-.231 4.056-.257 8.804-.18 13.526.014.624.531 1.13 1.155 1.13.009 0 .017 0 .026-.001.308 0 .59-.128.821-.333.206-.231.308-.514.308-.847a181.6 181.6 0 0 1 .257-13.962.9764.9764 0 0 1 .924-.565c.389.007.736.252.872.616.058.138.085.287.077.436-.289 6.653-.289 13.315 0 19.968v.231a5.2895 5.2895 0 0 1-2.258 4.338c-.254.177-.415.46-.436.77-.022.309-.103 1.026.333 5.903l.437 4.286c0 .102.077.231.154.308.098.087.227.133.359.128h7.289l2.746.026c.263.001.487-.2.513-.462.642-5.852.77-9.137.77-9.137-.01-.287-.228-.528-.513-.565l-3.311-.462c-.452-.056-.829-.381-.949-.821a1.587 1.587 0 0 1-.052-.513c1.36-19.506 7.726-26.102 7.726-26.102.093-.096.196-.182.308-.257.172-.12.376-.184.586-.184.419 0 .798.257.953.646.052.154.103.308.103.462.539 6.16.257 16.58-.051 24.716-.308 6.93-.642 12.345-.642 12.345a.411.411 0 0 0 .257.385l.128.026 5.493.128c.754-.003 1.414-.524 1.591-1.258 1.155-4.979 2.053-24.151 2.104-25.023a1.671 1.671 0 0 1 1.207-1.412l4.799-.95c.737-.187 1.258-.856 1.258-1.617 0-.256-.052-.513-.154-.718h.025Z"/>
</svg>