<svg xmlns="http://www.w3.org/2000/svg" xml:space="preserve" fill-rule="evenodd" stroke-linejoin="round" stroke-miterlimit="2" clip-rule="evenodd" viewBox="0 0 100 100">
  <path fill="none" d="M0 0h100v100H0z"/>
  <circle cx="47.422" cy="50" r="30" fill="#0b3d91"/>
  <path fill="#fff" d="M45.65 25.426c.186 0 .337.151.337.336 0 .186-.151.337-.337.337a.337.337 0 0 1-.336-.337c0-.185.151-.336.336-.336Zm3.453.448c.186 0 .336.151.336.337 0 .185-.15.336-.336.336a.3367.3367 0 0 1-.336-.336c0-.186.151-.337.336-.337Zm4.529 6.099c.186 0 .337.151.337.336 0 .186-.151.337-.337.337a.337.337 0 0 1-.336-.337c0-.185.151-.336.336-.336Zm-24.843 31.39c.186 0 .337.151.337.337a.337.337 0 0 1-.337.336.3367.3367 0 0 1-.336-.336c0-.186.151-.337.336-.337Zm.875 2.691c.185 0 .336.151.336.336a.336.336 0 0 1-.336.336c-.186 0-.337-.15-.337-.336 0-.185.151-.336.337-.336Zm-4.171-2.203c.139 0 .252.113.252.252s-.113.252-.252.252a.2522.2522 0 0 1-.252-.252c0-.139.113-.252.252-.252Zm13.677 5.285a.2524.2524 0 1 1 0 .505.2522.2522 0 0 1-.252-.252c0-.14.113-.253.252-.253Zm21.452-4.455c.139 0 .252.113.252.252s-.113.252-.252.252a.2522.2522 0 0 1-.252-.252c0-.139.113-.252.252-.252Zm6.234-6.772c.139 0 .252.113.252.252a.2524.2524 0 1 1-.505 0c0-.139.113-.252.253-.252ZM36.3 34.025c.139 0 .252.113.252.252s-.113.251-.252.251a.2505.2505 0 0 1-.251-.251c0-.139.112-.252.251-.252Zm6.861-5.039c.139 0 .252.113.252.252s-.113.252-.252.252a.2514.2514 0 0 1-.251-.252c0-.139.112-.252.251-.252Zm-.745-.493c.139 0 .252.112.252.251s-.113.252-.252.252a.2522.2522 0 0 1-.252-.252c0-.139.113-.251.252-.251Zm-.672-.494c.139 0 .252.113.252.252s-.113.252-.252.252a.2522.2522 0 0 1-.252-.252c0-.139.113-.252.252-.252Zm-4.367 7.327c.139 0 .252.113.252.252s-.113.252-.252.252a.2522.2522 0 0 1-.252-.252c0-.139.113-.252.252-.252Zm10.106-13.112c.139 0 .252.113.252.252s-.113.252-.252.252a.2522.2522 0 0 1-.252-.252c0-.139.113-.252.252-.252Zm1.66 7.265c.139 0 .252.113.252.252s-.113.252-.252.252a.2522.2522 0 0 1-.252-.252c0-.139.113-.252.252-.252Zm-2.618-1.418c.139 0 .252.112.252.251s-.113.252-.252.252a.2522.2522 0 0 1-.252-.252c0-.139.113-.251.252-.251ZM42.04 29.99c.139 0 .252.112.252.251s-.113.252-.252.252a.2522.2522 0 0 1-.252-.252c0-.139.113-.251.252-.251Zm19.776 41.345c.139 0 .252.113.252.252s-.113.252-.252.252a.2522.2522 0 0 1-.252-.252c0-.139.113-.252.252-.252Zm-33.453-6.184a.2524.2524 0 1 1 0 .505.2522.2522 0 0 1-.252-.252c0-.14.113-.253.252-.253Zm17.534 3.251c.139 0 .252.113.252.253 0 .139-.113.252-.252.252a.2524.2524 0 1 1 0-.505Zm-12.316-3.453a.2524.2524 0 1 1 0 .505.2522.2522 0 0 1-.252-.252c0-.14.113-.253.252-.253Zm2.181 3.56a.2524.2524 0 1 1 0 .505.2522.2522 0 0 1-.252-.252c0-.14.113-.253.252-.253Zm16.054-2.241c.139 0 .252.112.252.251s-.113.252-.252.252a.2522.2522 0 0 1-.252-.252c0-.139.113-.251.252-.251Zm8.851-4.995c.139 0 .252.113.252.252s-.113.252-.252.252a.2522.2522 0 0 1-.252-.252c0-.139.113-.252.252-.252Zm6.71 3.066c.139 0 .252.112.252.251s-.113.252-.252.252a.2522.2522 0 0 1-.252-.252c0-.139.113-.251.252-.251Zm2.287 1.463c.139 0 .252.113.252.252s-.113.252-.252.252a.2522.2522 0 0 1-.252-.252c0-.139.113-.252.252-.252Zm.376-3.991c.139 0 .251.113.251.252s-.112.252-.251.252a.2522.2522 0 0 1-.252-.252c0-.139.113-.252.252-.252Zm-33.364-5.65c.139 0 .252.113.252.252s-.113.251-.252.251a.2514.2514 0 0 1-.252-.251c0-.139.113-.252.252-.252Zm.095 5.7c.186 0 .337.151.337.336 0 .186-.151.337-.337.337a.337.337 0 0 1-.336-.337c0-.185.151-.336.336-.336Zm2.018 4.26c.186 0 .337.151.337.336 0 .186-.151.337-.337.337a.337.337 0 0 1-.336-.337c0-.185.151-.336.336-.336Zm24.171-4.439a.336.336 0 0 1 0 .672c-.186 0-.337-.15-.337-.336 0-.186.151-.336.337-.336Zm8.699-.494c.186 0 .337.151.337.337a.337.337 0 0 1-.337.336.3367.3367 0 0 1-.336-.336c0-.186.151-.337.336-.337Zm-4.305-1.838c.186 0 .337.15.337.336 0 .186-.151.336-.337.336a.336.336 0 0 1 0-.672Zm-4.394.179c.185 0 .336.151.336.336a.337.337 0 0 1-.336.337.3372.3372 0 0 1-.337-.337c0-.185.151-.336.337-.336Zm-9.065-33.977a.376.376 0 0 1-.307.297l-.045.857-.078-.858a.3715.3715 0 0 1-.295-.284l-.861-.047.855-.078a.3695.3695 0 0 1 .286-.316l.048-.84.08.833c.163.021.292.147.318.309l.835.047-.836.08Zm-14.115 9.31a.3723.3723 0 0 1-.306.298l-.046.856-.078-.858a.3688.3688 0 0 1-.295-.284l-.861-.046.855-.078a.3704.3704 0 0 1 .287-.317l.047-.839.08.833c.163.021.293.147.318.308l.835.048-.836.079ZM71.046 59.48a.3712.3712 0 0 1-.305.297l-.046.857-.078-.858a.3703.3703 0 0 1-.294-.284l-.861-.047.855-.077c.019-.157.134-.284.285-.317l.047-.839.08.832c.163.021.293.147.319.309l.835.047-.837.08ZM36.954 72.351c-.028.153-.151.272-.305.298l-.047.856-.077-.858a.3701.3701 0 0 1-.295-.284l-.861-.046.855-.078a.3706.3706 0 0 1 .286-.317l.048-.838.08.832c.162.02.292.147.318.308l.835.047-.837.08Zm31.435-6.278a.37.37 0 0 1-.305.297l-.046.856-.078-.858a.3676.3676 0 0 1-.294-.284l-.861-.046.855-.078a.3696.3696 0 0 1 .285-.317l.048-.838.079.833c.163.02.293.147.319.308l.835.047-.837.08Z"/>
  <path fill="#fc3d21" fill-rule="nonzero" d="M54.536 42.814c-3.488 1.356-6.89 2.566-9.761 3.464-5.833 1.827-21.794 6.771-31.435 13.005l.807.313c5.875-3.318 9.693-4.361 13.363-5.515 3.991-1.256 16.894-4.275 22.736-5.92 1.974-.555 4.285-1.282 6.734-2.167a61.017 61.017 0 0 0-1.803-2.386c-.211-.269-.426-.533-.641-.794Zm4.261 5.874c-.844.57-1.552 1.025-2.047 1.312-2.87 1.659-16.862 11.211-20.045 13.408-3.183 2.197-12.018 10.538-14.619 12.96l-.09.986c8.386-7.534 11.017-9.392 14.35-11.928 4.126-3.139 12.66-8.946 15.561-10.807 2.772-1.779 5.273-3.415 7.518-4.912-.037-.061-.074-.123-.11-.185-.169-.277-.342-.555-.518-.834Zm13.109-13.845c-4.085 2.395-10.524 5.285-16.771 7.737.15.183.298.368.446.554.699.879 1.357 1.764 1.977 2.649 4.91-1.808 10.298-4.236 14.573-7.174-2.037 1.93-8.77 6.962-12.875 9.767.211.344.416.689.614 1.032 6.22-4.162 10.405-7.226 12.844-9.274 3.363-2.825 11.031-9.148 13.946-17.624-5.113 6.503-11.158 10.225-14.754 12.333Z"/>
  <path fill="#fff" fill-rule="nonzero" d="M43.561 57.428c-.661-.832-1.576-1.947-2.263-2.812a52.6835 52.6835 0 0 1-2.547-3.491c-.254.063-.507.127-.761.19.94 1.468 1.985 2.932 3.122 4.364.831 1.047 1.587 1.889 1.974 2.413.078.106.234.341.444.653.242-.164.486-.33.733-.498-.238-.259-.474-.532-.702-.819Zm4.828 4.383c-.543-.514-1.861-1.373-3.232-2.662-.303.208-.608.419-.915.631.886 1.248 2.092 2.781 3.037 3.228 1.423.674 1.806-.538 1.11-1.197Zm7.192-18.677c-7.841-9.87-17.42-15.292-21.55-12.011-3.208 2.549-1.891 9.997 2.53 17.822.229-.079.455-.156.68-.232-4.463-7.623-5.684-14.708-2.659-17.112 3.802-3.021 12.982 2.422 20.597 12.006 1.576 1.983 2.962 3.974 4.135 5.915 4.493 7.437 5.872 14.162 2.767 16.907-.949.84-3.852 1.17-7.655-.542-.053.067.032.247.099.291 3.282 1.32 6.426 1.823 8.014.562 3.815-3.031.884-13.736-6.958-23.606Z"/>
  <path fill="#fff" d="M21.951 44.305h5.022l4.215 7.152v-5.583c0-.627-.796-1.446-1.076-1.569h3.475c-.213.056-.896.886-.896 1.569v8.207c0 .504.728 1.199 1.076 1.468h-4.843l-4.283-7.186v5.65c0 .561.55 1.099 1.121 1.559h-3.699c.527-.224 1.031-.931 1.076-1.491.045-.561 0-7.792 0-8.106 0-.684-.661-1.244-1.188-1.67Zm45.941 11.244c.415-.358.886-.874.808-1.334-.065-.382-.191-.785-.359-1.233h-3.722s-.202.897-.269 1.345c-.067.449.224.841.583 1.245h-3.599c.348-.292 1.211-.841 1.379-1.334.121-.356 2.109-7.556 2.22-8.229.003-.02.006-.041.008-.062.824-.576 1.596-1.123 2.317-1.642h2.54s3.543 9.552 3.767 10.134c.224.583.639 1.021 1.009 1.11h-6.682Zm-2.937-4.002h2.915l-1.659-4.103-1.256 4.103Zm-.566-6.833c-.163-.178-.323-.319-.42-.409h.975c-.185.137-.37.273-.555.409Zm-25.555 9.613c-.067.449.224.841.583 1.245h-3.599c.348-.292 1.211-.841 1.379-1.334.121-.356 2.11-7.556 2.22-8.229.123-.751-.684-1.446-.964-1.704h5.83s3.542 9.552 3.766 10.134c.139.36.349.663.577.864-.122.082-.244.164-.367.246h-5.882c.414-.358.885-.874.807-1.334-.065-.382-.191-.785-.359-1.233h-3.722s-.202.897-.269 1.345Zm1.861-6.883-1.256 4.103h2.915l-1.659-4.103Zm18.46 2.442c.74.648 1.301 1.485 1.328 2.558.045 1.816-2.814 3.394-4.294 3.475-3.049.168-3.789-.515-4.002-.504-.495.026-1.132.538-1.424 1.11v-1.161c.44-.29.826-.541 1.144-.745.312-.2.62-.399.925-.595.275.103.563.18.857.214 1.469.168 3.094-.223 3.016-1.032-.042-.43-.478-.764-1.025-1.029 1.22-.797 2.378-1.56 3.475-2.291Zm-8.393 2.805c.096.1.387.367.797.652-.261.173-.527.35-.797.53v-1.182Zm7.35-3.547c-.544.358-1.008.651-1.362.855-.528.304-1.429.875-2.569 1.617-.152-.049-.292-.094-.414-.137-1.189-.415-3.296-1.132-3.218-3.767.056-1.884 1.716-3.374 3.644-3.385 1.681-.01 3.15.224 4.013.403.45.094.942-.471 1.054-.583v2.893c-.381-.326-1.794-1.234-3.318-1.256-1.525-.022-2.15.57-1.929 1.211.314.908 1.817 1.031 3.252 1.704.275.13.563.277.847.445Z"/>
</svg>