<svg xmlns="http://www.w3.org/2000/svg" xml:space="preserve" fill-rule="evenodd" stroke-linejoin="round" stroke-miterlimit="2" clip-rule="evenodd" viewBox="0 0 100 100">
  <path fill="none" d="M0 0h100v100H0z"/>
  <path fill="url(#a)" fill-rule="nonzero" d="m65.696 39.162-.025-.011c-.015-.006-.029-.011-.042-.024a.1991.1991 0 0 1-.051-.17l1.409-8.63 6.611 6.622-6.875 2.929a.1546.1546 0 0 1-.06.01h-.028c-.009-.005-.018-.012-.036-.031a3.122 3.122 0 0 0-.903-.695Zm9.588-.526 7.068 7.078c1.468 1.472 2.203 2.206 2.471 3.057.04.126.073.252.099.382L68.03 41.989c-.009-.004-.018-.008-.027-.011-.068-.028-.146-.059-.146-.128s.08-.102.148-.13l.022-.009 7.257-3.075Zm9.35 12.788c-.365.687-1.076 1.399-2.28 2.606l-7.969 7.979-10.306-2.15-.055-.01c-.091-.015-.188-.031-.188-.113a3.1187 3.1187 0 0 0-1.194-2.179c-.042-.042-.031-.108-.018-.168 0-.009 0-.018.003-.026l1.939-11.917.007-.041c.011-.091.027-.197.109-.197a3.1563 3.1563 0 0 0 2.116-1.214c.016-.018.027-.039.049-.049.058-.028.127 0 .188.025l17.597 7.455.002-.001Zm-12.081 12.42L59.449 76.967l2.243-13.806.003-.018a.3116.3116 0 0 1 .011-.053c.018-.044.066-.062.111-.08l.022-.009c.491-.21.926-.534 1.267-.944.044-.052.097-.101.165-.11a.1513.1513 0 0 1 .052 0l9.228 1.899.002-.002ZM56.675 79.745l-1.477 1.479-16.33-23.634a.5855.5855 0 0 0-.018-.026c-.025-.035-.053-.07-.047-.11 0-.029.02-.055.04-.076l.018-.024c.049-.073.091-.146.137-.225l.036-.064.006-.005c.025-.044.049-.086.093-.11.038-.018.091-.011.133-.002l18.091 3.736a.296.296 0 0 1 .139.061c.024.024.029.049.035.078.255.97.949 1.763 1.874 2.146.051.026.029.082.006.142a.4767.4767 0 0 0-.028.083c-.227 1.388-2.182 13.327-2.707 16.55l-.001.001Zm-3.085 3.088c-1.089 1.079-1.731 1.65-2.457 1.881-.715.226-1.483.226-2.199 0-.85-.271-1.585-1.005-3.052-2.477l-16.4-16.422 4.284-6.653c.02-.033.04-.062.073-.086.045-.033.111-.018.166 0 .983.297 2.039.243 2.987-.152.049-.018.098-.031.136.004.02.017.037.037.052.058l16.41 23.848v-.001ZM27.901 64.231l-3.762-3.767 7.43-3.174a.1502.1502 0 0 1 .06-.013c.062 0 .098.062.131.119.075.115.154.227.237.336l.024.029c.022.031.007.062-.015.091l-4.103 6.379h-.002Zm-5.426-5.434-4.76-4.767c-.81-.81-1.397-1.399-1.805-1.904l14.471 3.005c.018.004.037.007.055.01.089.014.188.031.188.115 0 .091-.108.133-.199.168l-.042.018-7.908 3.355Zm-7.397-9.122c.017-.307.072-.611.164-.904.27-.851 1.003-1.585 2.473-3.057l6.091-6.099c2.804 4.075 5.616 8.146 8.435 12.211.05.066.104.139.048.194-.266.294-.533.615-.72.964a.2896.2896 0 0 1-.092.113c-.023.015-.049.009-.076.004h-.004l-16.319-3.428v.002Zm10.358-11.693 8.186-8.201c.771.338 3.574 1.523 6.078 2.582 1.896.803 3.625 1.534 4.168 1.771.055.022.104.044.128.099.015.033.007.075 0 .109a3.6625 3.6625 0 0 0 .954 3.339c.054.054 0 .133-.048.201l-.025.038-8.315 12.898c-.022.037-.042.068-.079.091-.044.028-.106.015-.157.002a4.136 4.136 0 0 0-.99-.135c-.299 0-.624.055-.952.115h-.002c-.036.006-.069.013-.098-.009a.3834.3834 0 0 1-.082-.093l-8.768-12.807h.002Zm9.843-9.858 10.603-10.617c1.467-1.47 2.202-2.206 3.052-2.474a3.6355 3.6355 0 0 1 2.199 0c.85.268 1.585 1.004 3.053 2.474l2.298 2.301-7.541 11.695a.2615.2615 0 0 1-.075.087c-.045.031-.109.018-.164 0a3.821 3.821 0 0 0-3.501.676c-.049.051-.122.022-.184-.006-.985-.429-8.644-3.67-9.74-4.136Zm22.806-6.713 6.962 6.973-1.678 10.405v.028a.2354.2354 0 0 1-.014.069c-.019.036-.055.044-.092.055-.358.109-.696.277-.999.498a.365.365 0 0 0-.036.031c-.021.022-.041.042-.073.046a.1932.1932 0 0 1-.079-.013l-10.609-4.514-.02-.009c-.068-.028-.148-.061-.148-.13a4.0101 4.0101 0 0 0-.565-1.671c-.051-.084-.108-.172-.064-.257l7.415-11.511Zm-7.17 15.716 9.945 4.219c.055.025.115.049.139.106.009.034.009.07 0 .104-.03.146-.055.312-.055.48v.279c0 .07-.071.099-.137.126l-.02.008c-1.575.674-22.12 9.446-22.151 9.446-.031 0-.063 0-.094-.031-.055-.054 0-.131.049-.201a.7797.7797 0 0 0 .025-.036l8.173-12.674.015-.022c.048-.076.102-.162.19-.162l.082.013c.186.025.35.049.516.049 1.24 0 2.389-.604 3.082-1.638a.2706.2706 0 0 1 .062-.073c.049-.037.122-.018.178.007h.001Zm-11.39 16.774 22.393-9.564s.033 0 .064.031c.122.122.226.205.326.281l.049.031c.046.026.091.055.095.103 0 .018 0 .029-.004.045L60.53 56.629l-.007.047c-.013.092-.026.196-.112.196-1.038.07-1.975.649-2.503 1.547l-.009.014c-.026.042-.05.083-.092.104-.038.019-.087.011-.127.002L39.822 54.85c-.018-.003-.277-.947-.297-.949Z"/>
  <defs>
    <radialGradient id="a" cx="0" cy="0" r="1" gradientTransform="matrix(70.0208 0 0 70.1986 50 -20.1478)" gradientUnits="userSpaceOnUse">
      <stop offset="0" stop-color="#20c6b7"/>
      <stop offset="1" stop-color="#4d9abf"/>
    </radialGradient>
  </defs>
</svg>