<svg xmlns="http://www.w3.org/2000/svg" xml:space="preserve" fill-rule="evenodd" stroke-linejoin="round" stroke-miterlimit="2" clip-rule="evenodd" viewBox="0 0 32 32">
  <path fill="#00d8ff" fill-rule="nonzero" d="M26.31 11a15.5 15.5 0 0 0-1.03-.33l.16-.7c.78-3.79.27-6.84-1.47-7.84-1.67-.97-4.4.04-7.16 2.44-.26.23-.53.47-.8.73l-.53-.5C12.6 2.25 9.7 1.17 7.96 2.18 6.29 3.13 5.8 6 6.5 9.59l.24 1.06c-.41.11-.81.24-1.19.37C2.16 12.2 0 14.05 0 15.97c0 1.99 2.32 3.98 5.85 5.18.28.1.57.19.87.27l-.26 1.14c-.66 3.53-.14 6.33 1.52 7.29 1.72.99 4.6-.03 7.41-2.48.22-.2.45-.4.67-.62.29.28.58.54.86.79 2.72 2.34 5.41 3.29 7.07 2.32 1.72-1 2.28-4 1.55-7.66-.05-.27-.12-.56-.19-.85l.6-.19C29.6 19.95 32 17.98 32 15.97c0-1.92-2.23-3.79-5.69-4.98Zm-.8 8.87-.53.16c-.4-1.28-.95-2.64-1.62-4.05a31.99 31.99 0 0 0 1.55-4l.95.3c2.97 1.02 4.77 2.53 4.77 3.7 0 1.23-1.95 2.84-5.12 3.89Zm-1.31 2.6c.32 1.62.37 3.08.15 4.22-.19 1.03-.57 1.72-1.04 1.99-1.01.58-3.17-.17-5.5-2.18-.26-.23-.53-.47-.8-.73.9-.99 1.8-2.13 2.68-3.4 1.55-.14 3.01-.37 4.34-.67l.17.77Zm-13.29 6.1c-.99.36-1.77.37-2.25.1-1-.59-1.42-2.84-.85-5.85.06-.35.14-.7.23-1.06 1.31.29 2.76.5 4.31.62.89 1.25 1.82 2.4 2.75 3.4l-.6.56a11.57 11.57 0 0 1-3.59 2.24Zm-4.62-8.71a11.58 11.58 0 0 1-3.73-1.98c-.8-.68-1.2-1.36-1.2-1.9 0-1.17 1.74-2.66 4.64-3.67.35-.12.72-.24 1.1-.35.4 1.3.93 2.67 1.56 4.05a33.45 33.45 0 0 0-1.58 4.1l-.79-.25ZM7.84 9.33c-.6-3.08-.2-5.4.8-5.98 1.07-.62 3.44.27 5.94 2.48l.48.44a32.8 32.8 0 0 0-2.73 3.38c-1.5.14-2.95.36-4.27.66-.08-.33-.16-.66-.22-.98Zm13.8 3.4c-.31-.54-.64-1.08-.97-1.6 1.02.13 2 .3 2.92.51a28.7 28.7 0 0 1-1.03 2.76c-.29-.55-.6-1.1-.92-1.67Zm-5.63-5.48a29 29 0 0 1 1.89 2.28 39.66 39.66 0 0 0-3.78 0 30.3 30.3 0 0 1 1.9-2.28Zm-5.66 5.5c-.32.54-.62 1.1-.9 1.65-.4-.95-.74-1.87-1.02-2.77.91-.2 1.89-.37 2.9-.5a39.9 39.9 0 0 0-.98 1.61Zm1.01 8.16a29.04 29.04 0 0 1-2.95-.47c.28-.91.63-1.86 1.04-2.83.29.56.59 1.1.9 1.66.33.56.67 1.1 1.01 1.64Zm4.7 3.88a30.4 30.4 0 0 1-1.93-2.3 47.82 47.82 0 0 0 3.8-.01c-.62.85-1.25 1.62-1.88 2.31Zm6.52-7.23c.43.98.79 1.92 1.07 2.82-.92.21-1.93.38-2.98.5a49.04 49.04 0 0 0 1.9-3.32Zm-2.11 1.02c-.5.86-1.02 1.7-1.54 2.47a41.08 41.08 0 0 1-5.83.01A38.67 38.67 0 0 1 10.17 16a38.97 38.97 0 0 1 2.91-5.05 38.73 38.73 0 0 1 5.83 0A41.19 41.19 0 0 1 21.85 16a41.8 41.8 0 0 1-1.37 2.59ZM23.29 3.3c1.07.62 1.48 3.11.81 6.38l-.14.64a31.93 31.93 0 0 0-4.28-.68 31.99 31.99 0 0 0-2.7-3.38l.73-.67c2.36-2.06 4.57-2.87 5.58-2.29ZM16 13.11a2.86 2.86 0 1 1 0 5.72 2.86 2.86 0 0 1 0-5.71Z"/>
</svg>