<svg xmlns="http://www.w3.org/2000/svg" xml:space="preserve" fill-rule="evenodd" stroke-linejoin="round" stroke-miterlimit="2" clip-rule="evenodd" viewBox="0 0 100 100">
  <path fill="none" d="M0 0h100v100H0z"/>
  <g fill-rule="nonzero">
    <path fill="#e00" d="M61.357 53.926c4.468 0 10.934-.922 10.934-6.237.013-.41-.024-.821-.111-1.222l-2.661-11.558c-.615-2.544-1.154-3.697-5.619-5.93-3.465-1.772-11.012-4.697-13.245-4.697-2.078 0-2.682 2.679-5.161 2.679-2.386 0-4.158-2-6.39-2-2.143 0-3.54 1.461-4.619 4.465 0 0-3.004 8.472-3.389 9.701a2.283 2.283 0 0 0-.079.693c0 3.293 12.966 14.091 30.34 14.091m11.62-4.065c.617 2.926.617 3.233.617 3.619 0 5-5.622 7.776-13.012 7.776-16.703.011-31.333-9.777-31.333-16.245-.001-.901.182-1.792.539-2.619-6.008.301-13.784 1.372-13.784 8.237 0 11.245 26.643 25.104 47.739 25.104 16.174 0 20.253-7.315 20.253-13.091 0-4.544-3.929-9.702-11.012-12.781"/>
    <path fill="#3e3c3b" d="M72.977 49.846c.617 2.926.617 3.233.617 3.619 0 5-5.622 7.776-13.012 7.776-16.703.011-31.333-9.777-31.333-16.245-.001-.901.182-1.792.539-2.619l1.308-3.236c-.06.221-.087.45-.079.679 0 3.293 12.966 14.091 30.34 14.091 4.468 0 10.934-.921 10.934-6.236.013-.411-.024-.821-.111-1.222l.797 3.393Z"/>
  </g>
</svg>