<svg xmlns="http://www.w3.org/2000/svg" xml:space="preserve" fill-rule="evenodd" stroke-linejoin="round" stroke-miterlimit="2" clip-rule="evenodd" viewBox="0 0 100 100">
  <path fill="none" d="M0 0h100v100H0z"/>
  <clipPath id="a">
    <path d="M0 0h100v100H0z"/>
  </clipPath>
  <g clip-path="url(#a)">
    <circle cx="83.449" cy="39.728" r="3.73" fill="#ff4500"/>
    <path fill="#494544" d="m30.41 55.578-12.809.003c.539 3.191 2.89 5.594 5.709 5.594 2.358 0 3.836-1.338 4.61-1.99.809-.683 1.912-.886 2.781-.283.577.402.921 1.063.921 1.766 0 .539-.203 1.059-.567 1.456-1.801 1.983-4.277 3.244-7.745 3.244-5.538 0-10.025-5.009-10.025-11.188s4.491-11.188 10.025-11.188c4.669 0 8.593 3.566 9.706 8.389.105.495.167.998.186 1.503.081 1.338-.977 2.694-2.792 2.694Zm-7.1-8.389c-2.539 0-4.697 1.944-5.496 4.658h10.989c-.799-2.711-2.957-4.658-5.493-4.658Zm-9.79-2.029c-.001 1.083-.841 1.996-1.919 2.088a1.91 1.91 0 0 1-.414 0c-4.045-.434-6.991 2.781-6.991 6.701v8.855c0 1.151-.947 2.098-2.098 2.098-.044 0-.087-.001-.13-.004-1.121-.095-1.987-1.054-1.969-2.178V45.556c.001-1.151.949-2.098 2.1-2.098 1.152 0 2.1.948 2.1 2.1v.282c1.661-2.067 4.515-3.205 7.57-2.746 1.005.168 1.75 1.047 1.751 2.066Zm72.024 2.26v15.384c-.046 1.118-.978 2.012-2.097 2.012-1.118 0-2.05-.894-2.096-2.012V47.42c.046-1.118.978-2.013 2.096-2.013 1.119 0 2.051.895 2.097 2.013ZM54.31 35.766v27.038c-.005 1.148-.95 2.09-2.099 2.09-1 0-1.868-.716-2.059-1.698a7.4144 7.4144 0 0 1-5.398 2.172c-5.538 0-10.025-5.009-10.025-11.188s4.491-11.188 10.025-11.188c2.003-.05 3.942.724 5.359 2.14v-9.366c0-1.151.947-2.098 2.098-2.098 1.151 0 2.099.947 2.099 2.098Zm-9.556 25.406v.003c3.219 0 5.829-3.135 5.829-6.995 0-3.86-2.61-6.991-5.829-6.991s-5.828 3.127-5.828 6.991 2.609 6.992 5.828 6.992Zm31.465-25.406.007 27.038c-.004 1.148-.95 2.09-2.098 2.09-1 0-1.869-.716-2.059-1.698a7.4155 7.4155 0 0 1-5.402 2.172c-5.538 0-10.021-5.009-10.021-11.188s4.487-11.188 10.021-11.188a7.3247 7.3247 0 0 1 5.36 2.14v-9.366c0-1.151.947-2.098 2.098-2.098h.003c1.149.004 2.091.95 2.091 2.098Zm-9.555 25.406v.003c3.219 0 5.828-3.135 5.828-6.995 0-3.86-2.609-6.991-5.828-6.991-3.219 0-5.825 3.127-5.825 6.991s2.606 6.992 5.825 6.992Zm29.538 1.632h.004c0 1.151-.947 2.098-2.098 2.098h-.004c-1.148-.002-2.092-.946-2.094-2.095V47.185h-1.805c-1.022 0-1.863-.841-1.863-1.863 0-.041.001-.082.004-.123.087-.99.933-1.754 1.926-1.741h1.738v-3.033c.001-1.15.948-2.096 2.098-2.096.045 0 .091.002.136.005 1.114.096 1.975 1.047 1.962 2.164v2.96h1.927c1.024 0 1.867.843 1.867 1.867 0 .041-.001.082-.004.123-.087.989-.933 1.753-1.927 1.741h-1.867v15.615Z"/>
  </g>
</svg>