<svg xmlns="http://www.w3.org/2000/svg" xml:space="preserve" fill-rule="evenodd" stroke-linejoin="round" stroke-miterlimit="2" clip-rule="evenodd" viewBox="0 0 100 100">
  <path fill="none" d="M0 0h100v100H0z"/>
  <path fill="#00a1e0" d="M42.202 24.374c2.999-3.124 7.174-5.063 11.792-5.063 6.138 0 11.494 3.423 14.345 8.505a19.8033 19.8033 0 0 1 8.108-1.724c11.072 0 20.047 9.053 20.047 20.222s-8.975 20.223-20.047 20.223c-1.352 0-2.672-.136-3.949-.393-2.511 4.479-7.297 7.505-12.79 7.505-2.222.003-4.415-.501-6.411-1.475-2.546 5.989-8.478 10.188-15.391 10.188-7.199 0-13.336-4.555-15.689-10.944a15.346 15.346 0 0 1-3.191.332c-8.572 0-15.52-7.021-15.52-15.682 0-5.804 3.121-10.872 7.761-13.583a17.9568 17.9568 0 0 1-1.486-7.173c0-9.961 8.086-18.037 18.06-18.037 5.857 0 11.061 2.784 14.361 7.099"/>
  <path fill="#fffffe" d="m16.974 51.028.377-1.045c.059-.179.196-.119.25-.086.104.063.181.12.315.198 1.109.701 2.135.707 2.457.707.829 0 1.344-.439 1.344-1.03v-.033c0-.645-.793-.888-1.71-1.17l-.202-.063c-1.26-.359-2.605-.877-2.605-2.469v-.033c0-1.51 1.219-2.566 2.965-2.566l.191-.001c1.025 0 2.015.297 2.733.734.065.039.128.115.092.215-.034.093-.351.947-.388 1.044-.067.179-.252.059-.252.059-.628-.347-1.602-.62-2.424-.62-.739 0-1.216.392-1.216.926v.031c0 .623.816.889 1.762 1.196l.163.052c1.254.396 2.592.945 2.592 2.455v.032c0 1.634-1.185 2.648-3.093 2.648-.936 0-1.832-.148-2.78-.65-.179-.102-.357-.194-.531-.32-.019-.027-.098-.059-.04-.211Zm27.924 0 .377-1.045c.055-.171.216-.108.251-.086.101.066.18.12.314.198 1.109.701 2.135.707 2.457.707.829 0 1.344-.439 1.344-1.03v-.033c0-.645-.792-.888-1.71-1.17l-.202-.063c-1.26-.359-2.604-.877-2.604-2.469v-.033c0-1.51 1.219-2.566 2.964-2.566l.191-.001c1.025 0 2.016.297 2.733.734.065.039.129.115.092.215-.033.093-.351.947-.387 1.044-.068.179-.253.059-.253.059-.628-.347-1.601-.62-2.423-.62-.739 0-1.216.392-1.216.926v.031c0 .623.816.889 1.761 1.196l.164.052c1.254.396 2.591.945 2.591 2.455v.032c0 1.634-1.185 2.648-3.093 2.648-.935 0-1.832-.148-2.78-.65-.179-.102-.356-.194-.53-.32-.02-.027-.099-.059-.041-.211Zm20.656-4.911c.155.526.234 1.102.234 1.711 0 .61-.079 1.185-.234 1.711-.157.529-.4.995-.724 1.383-.326.39-.738.701-1.224.922-.487.222-1.06.335-1.706.335-.646 0-1.22-.113-1.707-.335-.486-.221-.898-.532-1.223-.922-.325-.39-.569-.855-.725-1.383-.155-.525-.234-1.101-.234-1.711 0-.61.079-1.185.234-1.711.156-.528.401-.993.725-1.382.325-.39.736-.704 1.222-.931.487-.227 1.062-.342 1.708-.342.646 0 1.22.115 1.706.342.488.227.899.541 1.224.93.324.389.567.854.724 1.383Zm-1.593 1.711c0-.922-.171-1.648-.51-2.156-.336-.504-.844-.749-1.551-.749-.708 0-1.212.245-1.543.749-.334.508-.503 1.234-.503 2.156 0 .923.169 1.651.503 2.165.331.509.835.756 1.543.756.707 0 1.215-.247 1.551-.756.338-.514.51-1.242.51-2.165Zm14.668 2.674.391 1.08c.05.134-.065.19-.065.19-.602.237-1.439.402-2.255.402-1.38 0-2.438-.399-3.143-1.183-.703-.782-1.06-1.849-1.06-3.169 0-.612.088-1.189.26-1.714.172-.528.433-.994.775-1.384.342-.389.773-.702 1.282-.928.51-.227 1.106-.342 1.775-.342.448 0 .85.028 1.194.08.368.056.856.188 1.062.269.038.014.142.066.1.187-.149.425-.252.701-.392 1.088-.06.164-.185.11-.185.11-.525-.165-1.026-.241-1.683-.241-.787 0-1.379.264-1.766.778-.391.517-.609 1.195-.611 2.096-.003.991.244 1.723.684 2.177.437.453 1.051.682 1.82.682.314 0 .608-.021.873-.062.263-.041.509-.123.74-.212 0 0 .151-.058.204.096Zm8.146-4.685c.346 1.214.167 2.264.161 2.321-.015.139-.157.14-.157.14l-5.389-.004c.033.819.229 1.398.627 1.793.389.386 1.008.633 1.844.634 1.279.003 1.826-.255 2.212-.399 0 0 .149-.053.203.094l.353.987c.07.166.014.224-.046.257-.338.187-1.157.534-2.714.54-.756.002-1.414-.107-1.957-.317-.545-.211-1.001-.513-1.355-.898-.355-.383-.617-.844-.781-1.369-.162-.521-.244-1.1-.244-1.721 0-.611.079-1.19.236-1.72.157-.534.403-1.004.73-1.4.327-.395.744-.714 1.241-.947.496-.232 1.107-.346 1.78-.346.53-.001 1.055.106 1.543.313.337.145.677.407 1.023.78.22.236.554.752.69 1.262Zm-5.36 1.127h3.844c-.038-.495-.135-.939-.357-1.272-.337-.504-.803-.782-1.511-.782-.708 0-1.21.278-1.541.782-.219.333-.359.759-.435 1.272ZM43.61 45.817c.346 1.214.167 2.264.161 2.321-.015.139-.157.14-.157.14l-5.389-.004c.033.819.229 1.398.627 1.793.389.386 1.008.633 1.843.634 1.28.003 1.827-.255 2.213-.399 0 0 .149-.053.203.094l.353.987c.07.166.014.224-.046.257-.338.187-1.157.534-2.714.54-.756.002-1.414-.107-1.957-.317-.545-.211-1.001-.513-1.355-.898-.354-.383-.617-.844-.781-1.369-.163-.521-.244-1.1-.244-1.721 0-.611.079-1.19.235-1.72.158-.534.404-1.004.731-1.4.327-.395.744-.714 1.241-.947.496-.232 1.107-.346 1.779-.346.531 0 1.056.106 1.544.313.337.145.677.407 1.023.78.22.236.554.752.69 1.262Zm-5.361 1.127h3.844c-.038-.495-.135-.939-.356-1.272-.337-.504-.803-.782-1.511-.782-.708 0-1.21.278-1.541.782-.219.333-.36.759-.436 1.272Zm-9.505-.259s.426.039.888.106v-.228c0-.719-.149-1.058-.443-1.284-.302-.231-.75-.349-1.333-.349 0 0-1.311-.017-2.348.547-.048.029-.088.045-.088.045s-.13.045-.177-.088l-.382-1.025c-.058-.148.049-.214.049-.214.484-.38 1.661-.608 1.661-.608.39-.078 1.04-.133 1.444-.133 1.078 0 1.91.25 2.476.745.568.498.856 1.299.856 2.38l.003 4.929s.011.142-.123.176c0 0-.198.054-.378.096-.45.097-.903.185-1.357.263-.533.09-1.084.137-1.637.137-.524 0-1.004-.049-1.427-.146-.429-.098-.799-.258-1.098-.476a2.2264 2.2264 0 0 1-.703-.843c-.164-.339-.247-.753-.247-1.231 0-.468.097-.886.288-1.242.189-.352.457-.656.782-.889.326-.232.704-.408 1.125-.521.419-.113.866-.171 1.328-.171.339 0 .622.008.841.024Zm.891 3.909-.001-2.45c-.484-.074-.973-.116-1.463-.124-1.098-.015-1.566.39-1.563.389-.324.229-.481.57-.481 1.043 0 .301.055.536.162.701.07.11.099.151.31.32-.003-.001.484.381 1.58.315.757-.046 1.432-.189 1.456-.194Zm42.581-6.685c-.051.147-.313.885-.406 1.131-.035.094-.093.157-.196.146 0 0-.311-.073-.592-.073-.245 0-.488.035-.723.102-.251.078-.48.216-.666.401-.197.191-.356.458-.473.792-.118.338-.178.876-.178 1.415v4.016c0 .09-.073.164-.163.164h-1.416c-.09 0-.164-.074-.164-.164v-8.04c0-.09.065-.163.155-.163h1.381c.091 0 .155.073.155.163l.001.658c.206-.278.576-.522.91-.672.337-.152.713-.266 1.39-.224.354.022.812.119.904.154.056.021.093.076.093.136 0 .02-.005.039-.012.058Zm-13.292-3.726c.038.015.141.066.099.188l-.412 1.131c-.035.085-.058.137-.234.084-.043-.013-.108-.032-.275-.068a2.2877 2.2877 0 0 0-.443-.044c-.196-.003-.391.025-.579.083-.171.056-.325.152-.451.281-.135.135-.294.331-.378.575-.198.57-.276 1.177-.285 1.215h1.723c.145 0 .19.067.176.174l-.2 1.121c-.032.162-.181.157-.181.157h-1.775l-1.215 6.87c-.127.71-.286 1.32-.473 1.811-.189.495-.387.858-.701 1.205-.29.322-.618.559-.996.695-.374.136-.826.205-1.323.205-.236 0-.489-.004-.789-.075-.216-.051-.334-.087-.493-.144-.067-.024-.121-.108-.083-.214.038-.108.355-.981.4-1.096.055-.14.195-.087.195-.087.096.041.163.069.291.095.128.025.301.047.432.047.234 0 .448-.028.634-.091.225-.076.356-.205.493-.381.143-.182.258-.432.376-.766.12-.339.228-.786.323-1.329l1.209-6.745h-1.191c-.144 0-.19-.067-.176-.174l.201-1.121c.031-.163.181-.157.181-.157h1.223l.066-.365c.183-1.082.547-1.904 1.083-2.444.54-.544 1.308-.819 2.283-.819.245-.003.49.016.732.056.18.032.358.074.533.127ZM34.846 51.839c0 .091-.065.164-.155.164h-1.429c-.091 0-.155-.073-.155-.164V40.336c0-.09.064-.162.155-.162h1.429c.09 0 .155.072.155.162v11.503Z"/>
</svg>