<svg xmlns="http://www.w3.org/2000/svg" xml:space="preserve" fill-rule="evenodd" stroke-linejoin="round" stroke-miterlimit="2" clip-rule="evenodd" viewBox="0 0 100 100">
  <path fill="none" d="M0 0h100v100H0z"/>
  <clipPath id="a">
    <path d="M0 0h100v100H0z"/>
  </clipPath>
  <g clip-path="url(#a)">
    <path fill="#014185" fill-rule="nonzero" d="M0 74.925h50.934L100.881 25H0v49.925"/>
    <path fill="#fff" d="m59.818 34.383-9.871-.002v23.615L41.26 34.381h-8.489l-7.502 19.75c-.789-4.975-5.922-6.694-10.068-7.982-2.566-.864-5.528-2.136-5.33-3.526 0-1.152 1.382-2.211 4.343-2.053 1.974.101 3.751.265 7.305 1.959l3.553-6.016c-3.356-1.626-7.699-2.655-11.253-2.659-4.343 0-7.896 1.366-10.068 3.631-1.382 1.575-2.369 3.575-2.369 5.792 0 3.05 1.184 5.214 3.356 6.937 2.172 1.451 4.541 2.397 6.91 3.09 2.764.855 4.935 1.595 4.935 3.182 0 .586-.197 1.12-.592 1.548-.79.709-1.777.977-3.356 1.011-2.764.051-4.738-.389-8.094-2.35l-3.159 6.091c3.356 1.887 7.304 2.997 11.253 2.997l.592-.004c3.356-.064 6.317-1.061 8.489-2.873.197-.106.197-.205.395-.304l-.987 2.651h9.081l1.382-4.595c1.579.529 3.356.837 5.33.837 1.974 0 3.554-.298 5.133-.8l1.579 4.558h14.609V55.72h3.356c7.7 0 12.24-3.95 12.24-10.575 0-7.376-4.343-10.762-14.016-10.762ZM36.917 54.601c-1.184 0-2.171-.205-3.159-.565l3.159-9.934 3.159 9.966c-.987.339-1.974.533-3.159.533Zm23.493-5.713h-2.172v-8.01h2.172c2.961 0 5.33.97 5.33 3.964 0 3.08-2.369 4.046-5.33 4.046"/>
    <path fill="#014185" fill-rule="nonzero" d="M63.371 71.735c0-1.526 1.185-2.689 2.567-2.689 1.381 0 2.566 1.163 2.566 2.689 0 1.583-1.185 2.724-2.566 2.724-1.382 0-2.567-1.141-2.567-2.724ZM65.938 75c1.776 0 3.356-1.384 3.356-3.265 0-1.854-1.58-3.216-3.356-3.216-1.777 0-3.357 1.362-3.357 3.216 0 1.881 1.58 3.265 3.357 3.265Zm-.593-2.995h.593l.987 1.611h.592l-.987-1.642c.395-.068.987-.358.987-1.021 0-.744-.592-1.072-1.382-1.072h-1.382v3.735h.592v-1.611Zm0-.482v-1.166h.79c.197 0 .79.091.79.562 0 .567-.593.604-.987.604h-.593"/>
  </g>
</svg>