<svg xmlns="http://www.w3.org/2000/svg" xml:space="preserve" fill-rule="evenodd" stroke-linejoin="round" stroke-miterlimit="2" clip-rule="evenodd" viewBox="0 0 100 100">
  <path fill="none" d="M0 0h100v100H0z"/>
  <clipPath id="a">
    <path d="M0 0h100v100H0z"/>
  </clipPath>
  <g clip-path="url(#a)">
    <path fill="#005288" d="M23.306 46.396c1.567 0 2.301.422 2.301 1.506v1.727c0 1.081-.734 1.503-2.301 1.503h-6.205l-.223.2v2.821h-2.341v-7.522l.313-.235h8.456Zm0 2.781v-.826c0-.512-.337-.616-1.072-.616h-5.133l-.224.204v1.611l.25.243h5.107c.735 0 1.072-.106 1.072-.616Zm6.57-1.358 1.238-1.519 5.871 7.855h-2.679l-1.029-1.42-.459-.28h-6.631l1.137-1.399h4.454l.112-.286-2.014-2.951Zm26.636 4.808.251.204h7.845v1.323H54.132v-5.152h7.102v1.329h-4.481l-.241.208v2.088Zm8.207-6.231v1.462H54.132v-1.462h10.587Zm-22.396 1.385-.251.158v4.529l.251.236h8.459c-.046 1.125-.709 1.451-2.441 1.451h-6.109c-1.926 0-2.541-.376-2.541-1.836v-4.09c0-1.458.615-1.834 2.541-1.834h6.109c1.707 0 2.38.301 2.512 1.386h-8.53ZM8.845 49.419c1.925 0 2.559.375 2.559 1.832v1.069c0 1.459-.634 1.835-2.559 1.835H2.517c-1.664 0-2.358-.289-2.517-1.309-.008-.049.205-.156.205-.156H2.06v.007h7.082l.158-.217v-1.387l-.194-.171H2.914c-1.925 0-2.54-.375-2.54-1.835v-.858c0-1.458.615-1.834 2.54-1.834h5.811c1.37 0 2.108.342 2.393 1.075l-.114.28H2.639l-.182.14v1.328l.183.201h6.205Zm62.534-3.055 2.593 1.901c-.867.424-1.664.854-2.397 1.279l-3.868-2.82.189-.36h3.483Zm3.121 5.312c.654-.548 1.32-1.07 1.995-1.565l5.076 3.716-.146.328H77.9l-3.4-2.479Z"/>
    <path fill="#a7a9ac" fill-rule="nonzero" d="M70.861 54.149H67.71l-.267-.417C69.586 51.663 79.169 42.795 100 41.845c0 0-17.484.59-29.139 12.304"/>
  </g>
</svg>