<svg xmlns="http://www.w3.org/2000/svg" xml:space="preserve" fill-rule="evenodd" stroke-linejoin="round" stroke-miterlimit="2" clip-rule="evenodd" viewBox="0 0 100 100">
  <path fill="none" d="M0 0h100v100H0z"/>
  <clipPath id="a">
    <path d="M0 0h100v100H0z"/>
  </clipPath>
  <g clip-path="url(#a)">
    <path fill="#635bff" d="M100 50.694c0 .667-.056 2.112-.056 2.473H86.361c.306 3.277 2.695 4.222 5.389 4.222 2.75 0 4.917-.583 6.806-1.528v5.556c-1.889 1.055-4.389 1.805-7.695 1.805-6.778 0-11.5-4.222-11.5-12.583 0-7.056 4-12.667 10.611-12.667 6.584 0 10.028 5.611 10.028 12.722Zm-13.722-2.638h7.166c0-3.139-1.805-4.445-3.5-4.445-1.75 0-3.666 1.306-3.666 4.445ZM68.639 37.972c4.861 0 9.444 4.389 9.472 12.445 0 8.805-4.528 12.805-9.5 12.805-2.444 0-3.917-1.028-4.917-1.75l-.027 7.861-6.945 1.473V38.417h6.111l.361 1.722c.973-.889 2.723-2.167 5.445-2.167Zm-1.667 19.139c2.556 0 4.278-2.778 4.278-6.5 0-3.639-1.75-6.472-4.278-6.472-1.583 0-2.583.555-3.305 1.361l.027 10.306c.667.722 1.639 1.305 3.278 1.305ZM47.167 36.333v-5.666l6.972-1.473v5.639l-6.972 1.5Zm6.972 2.111V62.75h-6.972V38.444h6.972ZM39.694 40.5c1.639-3 4.889-2.389 5.778-2.056v6.389c-.861-.305-3.639-.694-5.278 1.445V62.75H33.25V38.444h6l.444 2.056Zm-13.888-8.083-.028 6.027h5.278v5.917h-5.278v9.861c0 4.111 4.389 2.834 5.278 2.472v5.639c-.917.5-2.584.917-4.862.917-4.111 0-7.194-3.028-7.194-7.139l.028-22.25 6.778-1.444ZM7.028 45.5c0 3.111 10.583 1.639 10.611 9.917 0 4.972-3.972 7.833-9.75 7.833-2.389 0-5-.472-7.583-1.583v-6.611c2.333 1.277 5.277 2.222 7.583 2.222 1.555 0 2.667-.417 2.667-1.695C10.556 52.278 0 53.5 0 45.833c0-4.916 3.75-7.861 9.389-7.861 2.305 0 4.583.361 6.889 1.278v6.528C14.167 44.639 11.5 44 9.389 44c-1.472 0-2.361.417-2.361 1.5Z"/>
  </g>
</svg>