<svg xmlns="http://www.w3.org/2000/svg" xml:space="preserve" fill-rule="evenodd" stroke-linejoin="round" stroke-miterlimit="2" clip-rule="evenodd" viewBox="0 0 32 32">
  <clipPath id="a">
    <path d="M4.1 1.68h23.81v28.64H4.1z"/>
  </clipPath>
  <g fill-rule="nonzero" clip-path="url(#a)">
    <path fill="#ff3e00" d="M26.39 5.46c-2.66-3.8-7.9-4.92-11.7-2.5L8.02 7.2a7.64 7.64 0 0 0-3.45 5.12 8.05 8.05 0 0 0 .8 5.17 7.67 7.67 0 0 0-1.15 2.85 8.15 8.15 0 0 0 1.4 6.16c2.65 3.8 7.9 4.93 11.7 2.52l6.65-4.25a7.65 7.65 0 0 0 3.46-5.12 8.06 8.06 0 0 0-.8-5.17 7.6 7.6 0 0 0 1.15-2.86 8.15 8.15 0 0 0-1.4-6.16"/>
    <path fill="#fff" d="M14.04 26.87a5.3 5.3 0 0 1-5.68-2.11 4.9 4.9 0 0 1-.68-4.33l.12-.38.34.25a8.58 8.58 0 0 0 2.61 1.3l.25.08-.02.24c-.03.36.06.7.26 1 .39.55 1.07.8 1.72.63.14-.04.28-.1.4-.18l6.67-4.25c.33-.2.56-.54.63-.92.07-.4-.03-.8-.26-1.12a1.6 1.6 0 0 0-1.7-.64c-.15.04-.3.1-.42.18l-2.54 1.62a4.8 4.8 0 0 1-1.35.6 5.3 5.3 0 0 1-5.69-2.1 4.9 4.9 0 0 1-.83-3.71 4.6 4.6 0 0 1 2.08-3.08L16.6 5.7a4.8 4.8 0 0 1 1.35-.6 5.3 5.3 0 0 1 5.69 2.11 4.9 4.9 0 0 1 .67 4.33l-.12.38-.34-.25a8.56 8.56 0 0 0-2.61-1.3l-.25-.08.02-.24a1.5 1.5 0 0 0-.26-1 1.6 1.6 0 0 0-1.71-.63c-.15.04-.29.1-.41.18l-6.67 4.25c-.33.2-.56.54-.62.92-.07.4.02.8.25 1.12a1.6 1.6 0 0 0 2.12.46l2.54-1.62c.42-.27.88-.47 1.35-.6a5.3 5.3 0 0 1 5.69 2.1 4.9 4.9 0 0 1 .83 3.71 4.6 4.6 0 0 1-2.07 3.08l-6.67 4.25a4.8 4.8 0 0 1-1.35.6"/>
  </g>
</svg>