<svg xmlns="http://www.w3.org/2000/svg" xml:space="preserve" fill-rule="evenodd" stroke-linejoin="round" stroke-miterlimit="2" clip-rule="evenodd" viewBox="0 0 100 100">
  <path fill="none" d="M0 0h100v100H0z"/>
  <g fill-rule="nonzero">
    <path fill="#009fe3" d="M20 20h60v60H20z"/>
    <path fill="#fff" d="M46.607 39.067v10.019h-8.344V39.067h-6.261v-7.012h20.856v7.012h-6.251Zm10.579-.008h10.791L57.938 49.086l10.558 10.029H57.717L47.693 49.086l9.493-10.027ZM37.983 54.566c.208 0 .358.046.451.139.093.094.14.225.14.396 0 .172-.047.303-.14.396-.093.093-.243.14-.451.14-.207 0-.357-.047-.45-.14-.094-.093-.14-.224-.14-.396 0-.171.046-.302.14-.396.093-.093.243-.139.45-.139Zm-.488 1.733.973-.135v4.21h-.973v-4.075Zm5.24.256c-.298-.281-.721-.423-1.27-.423-.33 0-.613.049-.85.144-.458.176-.803.563-.925 1.037-.075.265-.111.54-.108.815v.335c0 .33.033.618.099.865.058.234.173.449.335.627.168.179.381.311.615.383.252.085.566.127.938.127.351 0 .7-.034 1.044-.104.099-.021.184-.044.26-.072l.127-.694c-.365.077-.736.114-1.109.112-.394 0-.69-.044-.887-.135a.7333.7333 0 0 1-.4-.487l2.508-1.111c.049-.022.072-.06.072-.113v-.112c0-.516-.148-.916-.446-1.198l-.003.004Zm-1.991.578c.141-.188.374-.283.698-.283.271 0 .472.063.599.188.131.14.211.319.227.51l-1.736.773v-.256c0-.432.07-.741.212-.932Zm27.574 7.536c-.064-.017-.142-.032-.235-.049a1.5631 1.5631 0 0 0-.282-.023c-.355 0-.611.093-.77.277-.159.186-.237.47-.237.851V68h-.984v-4.129l.846-.121.072.565c.129-.178.301-.32.5-.415.226-.099.471-.147.717-.141.187-.006.373.024.549.086l-.178.824h.002ZM36.47 62.256l-.112.832h-1.67V68H33.68v-4.912h-1.782l.106-.832h4.468-.002Zm7.18 5.67c-.342.105-.699.156-1.056.153a2.53 2.53 0 0 1-.913-.142c-.241-.093-.436-.229-.58-.404-.144-.176-.249-.383-.311-.625a3.3187 3.3187 0 0 1-.093-.806v-.411c0-.296.038-.565.117-.806.071-.232.194-.444.359-.621.172-.178.384-.314.618-.395.25-.091.551-.138.9-.138.374.004.746.061 1.105.169l-.161.709a2.6622 2.6622 0 0 0-.783-.112c-.426 0-.724.091-.895.275-.172.182-.259.496-.259.936v.339c0 .463.093.789.28.98.186.19.495.285.931.285.15 0 .301-.008.449-.027.148-.019.286-.042.415-.068l-.121.709h-.002Zm1.137.077V62.08l.984-.138v2.236c.139-.153.314-.271.508-.343.217-.08.446-.12.677-.117.227 0 .432.03.618.089.361.111.653.378.796.726.076.182.112.398.112.646v2.824h-.984v-2.557c0-.339-.061-.58-.186-.722-.123-.142-.33-.214-.62-.214-.318 0-.551.083-.699.25-.148.167-.222.434-.222.798v2.445h-.984Zm4.961 0v-4.132l.847-.121.072.517c.135-.179.314-.32.52-.407.231-.097.48-.146.731-.142.226 0 .432.03.618.089.362.108.655.376.796.726.076.182.112.398.112.646v2.824h-.984v-2.557c0-.339-.062-.58-.187-.722-.122-.142-.33-.214-.62-.214-.317 0-.55.083-.698.25-.149.167-.223.434-.223.798v2.445h-.984Zm5.453-5.868c.209 0 .362.047.455.142.093.093.142.226.142.4 0 .173-.047.305-.142.4-.093.095-.246.142-.455.142-.21 0-.362-.047-.455-.142-.093-.093-.142-.227-.142-.4 0-.174.046-.305.142-.4.093-.093.245-.142.455-.142Zm-.491 1.751.984-.138V68h-.984v-4.114Zm3.249 2.19V68h-.944v-5.92l.944-.138v3.408l1.613-1.536h1.113l-1.96 1.867L60.757 68h-1.154l-1.644-1.924Zm-18.562-1.932c-.3-.286-.728-.428-1.282-.428-.335 0-.62.049-.86.146-.226.089-.429.23-.592.411-.161.184-.278.402-.343.637-.075.268-.111.545-.108.823v.339c0 .335.034.625.101.876.06.236.176.453.339.633.172.18.386.313.622.388.257.086.572.129.949.129.354-.001.707-.036 1.054-.106.099-.021.186-.044.262-.072l.129-.703c-.369.077-.745.115-1.121.112-.398 0-.697-.046-.896-.137a.7435.7435 0 0 1-.404-.491l2.534-1.122c.048-.021.072-.059.072-.112v-.112c0-.521-.151-.925-.451-1.211h-.005Zm-2.013.584c.142-.19.379-.286.705-.286.275 0 .477.064.606.191.131.141.211.322.228.514l-1.752.781v-.258c0-.436.072-.749.213-.94v-.002Zm27.005-.584c-.3-.286-.728-.428-1.282-.428-.335 0-.621.049-.86.146-.46.181-.807.571-.935 1.048-.075.268-.111.545-.108.823v.339c0 .335.034.625.101.876.06.236.176.453.339.633.171.179.384.312.62.388.256.086.572.129.948.129.354-.001.708-.036 1.055-.106.099-.021.186-.044.262-.072l.129-.703c-.369.077-.745.115-1.122.112-.398 0-.696-.046-.895-.137a.7408.7408 0 0 1-.404-.491l2.533-1.122c.049-.021.072-.059.072-.112v-.112c0-.521-.15-.925-.451-1.211h-.002Zm-2.013.584c.142-.19.379-.286.705-.286.275 0 .476.064.606.191.131.141.211.322.228.514l-1.752.781v-.258c0-.436.072-.749.213-.94v-.002ZM32.137 54.686h1.789c.478 0 .876.064 1.189.191.292.111.55.294.752.531.191.235.325.511.391.807.074.311.113.652.113 1.018v.582c0 .379-.041.724-.121 1.035-.072.295-.209.57-.4.806-.202.238-.463.42-.756.527-.317.125-.709.189-1.179.189h-1.918v-5.546a.1503.1503 0 0 1 .136-.142l.004.002Zm.862 4.856h.838c.25 0 .47-.03.658-.089.181-.054.343-.155.472-.292.137-.157.235-.345.284-.548.063-.229.095-.515.095-.855v-.472c0-.341-.032-.627-.091-.855a1.309 1.309 0 0 0-.279-.549 1.0515 1.0515 0 0 0-.468-.288c-.186-.055-.407-.084-.663-.084h-.846v4.032Z"/>
  </g>
</svg>