<svg xmlns="http://www.w3.org/2000/svg" xml:space="preserve" fill-rule="evenodd" stroke-linejoin="round" stroke-miterlimit="2" clip-rule="evenodd" viewBox="0 0 100 100">
  <path fill="none" d="M0 0h100v100H0z"/>
  <path fill="#fa6400" fill-rule="nonzero" d="M83.328 49.539c0 1.941-1.597 3.538-3.538 3.538-1.941 0-3.538-1.597-3.538-3.538 0-1.941 1.597-3.538 3.538-3.538 1.941 0 3.538 1.597 3.538 3.538ZM72.47 43.357c-1.172 0-2.136.964-2.136 2.135 0 1.172.964 2.136 2.136 2.136 1.171 0 2.135-.964 2.135-2.136 0-1.171-.964-2.135-2.135-2.135Zm-2.502-7.401c-1.484 0-2.704 1.22-2.704 2.704 0 1.485 1.22 2.705 2.704 2.705 1.485 0 2.705-1.22 2.705-2.705 0-1.484-1.22-2.704-2.705-2.704Zm-4.371-5.613c-1.383 0-2.502 1.119-2.502 2.501 0 1.383 1.119 2.481 2.502 2.481 1.382 0 2.48-1.118 2.48-2.481 0-1.362-1.118-2.501-2.48-2.501Zm-5.511-3.355c-1.171 0-2.135.964-2.135 2.135 0 1.172.964 2.135 2.135 2.135 1.171 0 2.135-.963 2.135-2.135 0-1.171-.964-2.135-2.135-2.135Zm-5.836-1.383c-.996 0-1.79.814-1.79 1.79 0 .976.814 1.789 1.79 1.789.976 0 1.789-.813 1.789-1.789s-.813-1.79-1.789-1.79Zm-5.714.244c-.773 0-1.383.61-1.383 1.383s.61 1.383 1.383 1.383 1.383-.61 1.383-1.383-.61-1.383-1.383-1.383Zm-4.982 1.2a1.264 1.264 0 0 0-.222-.02c-.669 0-1.22.551-1.22 1.22 0 .669.551 1.22 1.22 1.22.075 0 .149-.007.222-.02.576-.107.998-.614.998-1.2s-.422-1.093-.998-1.2Zm-4.25 1.891c-.569 0-1.017.448-1.017 1.017s.468 1.017 1.017 1.017c.549 0 1.017-.448 1.017-1.017s-.468-1.017-1.017-1.017Zm-3.762 2.461a1.176 1.176 0 0 0-.222-.021c-.669 0-1.22.551-1.22 1.22 0 .67.551 1.221 1.22 1.221.075 0 .149-.007.222-.021.576-.106.998-.614.998-1.2 0-.585-.422-1.093-.998-1.199Zm-3.538 3.436c-.773 0-1.383.61-1.383 1.383s.61 1.383 1.383 1.383 1.383-.61 1.383-1.383-.61-1.383-1.383-1.383Zm-2.969 4.616c-.915 0-1.647.732-1.647 1.647s.732 1.647 1.647 1.647 1.647-.732 1.647-1.647-.732-1.647-1.647-1.647Zm-1.708 5.938c-.976 0-1.749.773-1.749 1.749 0 .976.773 1.748 1.749 1.748.976 0 1.749-.772 1.749-1.748s-.773-1.749-1.749-1.749Zm.122 6.059c-1.171 0-2.135.964-2.135 2.136 0 1.171.964 2.135 2.135 2.135 1.171 0 2.135-.964 2.135-2.135 0-1.172-.964-2.136-2.135-2.136Zm2.501 6.263c-1.484 0-2.704 1.221-2.704 2.685s1.22 2.704 2.704 2.704c1.485 0 2.705-1.22 2.705-2.704 0-1.485-1.22-2.685-2.705-2.685Zm4.413 6.019c-1.383 0-2.481 1.119-2.481 2.502 0 1.382 1.118 2.48 2.481 2.48 1.362 0 2.501-1.118 2.501-2.48 0-1.363-1.118-2.502-2.501-2.502Zm5.307 3.986c-1.159 0-2.135.956-2.135 2.115 0 1.159.956 2.115 2.135 2.115 1.16 0 2.115-.955 2.115-2.115 0-1.16-.955-2.115-2.115-2.115Zm5.999 2.155c-.997 0-1.79.814-1.79 1.79 0 .976.814 1.789 1.79 1.789.976 0 1.789-.813 1.789-1.789s-.813-1.79-1.789-1.79Zm5.693.57c-.772 0-1.382.61-1.382 1.383 0 .772.61 1.382 1.382 1.382.773 0 1.383-.61 1.383-1.382 0-.773-.61-1.383-1.383-1.383Zm4.982-.814c-.073-.013-.147-.02-.221-.02-.67 0-1.221.551-1.221 1.22 0 .669.551 1.22 1.221 1.22.074 0 .148-.007.221-.02.577-.107.999-.614.999-1.2s-.422-1.093-.999-1.2Zm4.25-1.565c-.569 0-1.016.467-1.016 1.016 0 .549.467 1.017 1.016 1.017.549 0 1.017-.468 1.017-1.017 0-.549-.468-1.016-1.017-1.016Zm3.762-2.786c-.671 0-1.2.529-1.2 1.2 0 .671.529 1.199 1.2 1.199.671 0 1.2-.528 1.2-1.199s-.529-1.2-1.2-1.2Zm3.559-3.823c-.773 0-1.383.61-1.383 1.383 0 .772.61 1.382 1.383 1.382.772 0 1.382-.61 1.382-1.382 0-.773-.61-1.383-1.382-1.383Zm2.948-5.145c-.915 0-1.647.732-1.647 1.647 0 .916.732 1.648 1.647 1.648s1.647-.732 1.647-1.648c0-.915-.732-1.647-1.647-1.647Zm1.729-6.12c-.949 0-1.729.78-1.729 1.728s.78 1.729 1.729 1.729c.948 0 1.728-.781 1.728-1.729 0-.948-.78-1.728-1.728-1.728ZM65.8 48.197c-.915 0-1.647.732-1.647 1.647s.732 1.647 1.647 1.647 1.647-.732 1.647-1.647-.732-1.647-1.647-1.647Zm-6.365-1.464c-.508 0-.935.407-.935.935 0 .529.406.936.935.936s.936-.407.936-.936c0-.528-.407-.935-.936-.935ZM57.666 42.3c-.712 0-1.281.569-1.281 1.281s.569 1.281 1.281 1.281 1.281-.569 1.281-1.281-.569-1.281-1.281-1.281Zm-4.189-3.721c-.976 0-1.749.772-1.749 1.749 0 .976.773 1.748 1.749 1.748.976 0 1.749-.772 1.749-1.748 0-.977-.773-1.749-1.749-1.749Zm-5.673-.631c-1.098 0-1.973.875-1.973 1.973s.875 1.972 1.973 1.972 1.972-.874 1.972-1.972c0-1.098-.874-1.973-1.972-1.973Zm-4.819 2.746c-1.037 0-1.871.833-1.871 1.891 0 1.057.834 1.891 1.871 1.891s1.891-.834 1.891-1.891c0-1.058-.834-1.891-1.891-1.891Zm-2.461 5.165c-.691 0-1.261.569-1.261 1.26 0 .692.57 1.261 1.261 1.261.692 0 1.261-.569 1.261-1.261 0-.691-.569-1.26-1.261-1.26Zm.102 4.819c-.509 0-.936.406-.936.935s.407.936.936.936c.529 0 .935-.407.935-.936 0-.529-.406-.935-.935-.935Zm1.667 3.701c-.711 0-1.281.569-1.281 1.281 0 .711.57 1.281 1.281 1.281.712 0 1.281-.57 1.281-1.281 0-.712-.569-1.281-1.281-1.281Zm4.209 2.846c-.959 0-1.748.79-1.748 1.749 0 .96.789 1.749 1.748 1.749.96 0 1.749-.789 1.749-1.749 0-.959-.789-1.749-1.749-1.749Zm5.674.143c-1.082 0-1.973.89-1.973 1.972 0 1.082.891 1.973 1.973 1.973s1.972-.891 1.972-1.973-.89-1.972-1.972-1.972Zm4.839-2.562c-1.037 0-1.87.833-1.87 1.87 0 1.037.833 1.871 1.87 1.871 1.037 0 1.891-.834 1.891-1.871s-.833-1.87-1.891-1.87Zm2.461-3.925c-.712 0-1.261.569-1.261 1.261 0 .691.569 1.261 1.261 1.261.691 0 1.261-.57 1.261-1.261 0-.692-.57-1.261-1.261-1.261Zm5.51-9.293c-1.159 0-2.114.956-2.114 2.115 0 1.159.955 2.115 2.114 2.115 1.16 0 2.115-.956 2.115-2.115 0-1.159-.955-2.115-2.115-2.115Zm-3.578-5.937c-1.395 0-2.542 1.147-2.542 2.541 0 1.395 1.147 2.542 2.542 2.542 1.394 0 2.541-1.147 2.541-2.542 0-1.394-1.147-2.541-2.541-2.541Zm-5.409-3.315c-1.25 0-2.278 1.028-2.278 2.278 0 1.249 1.028 2.277 2.278 2.277 1.249 0 2.277-1.028 2.277-2.277 0-1.25-1.028-2.278-2.277-2.278ZM50 31.685c-1.093 0-1.993.9-1.993 1.993s.9 1.993 1.993 1.993 1.993-.9 1.993-1.993-.9-1.993-1.993-1.993Zm-5.999 1.932c-.813 0-1.484.671-1.484 1.485 0 .813.671 1.484 1.484 1.484.814 0 1.485-.671 1.485-1.484 0-.814-.671-1.485-1.485-1.485Zm-5.063 3.518c-.747 0-1.362.615-1.362 1.362 0 .748.615 1.363 1.362 1.363.752 0 1.383-.61 1.383-1.363 0-.752-.61-1.362-1.383-1.362Zm-3.416 5.023c-.773 0-1.363.61-1.363 1.382 0 .773.611 1.363 1.363 1.363s1.383-.61 1.383-1.363c0-.752-.61-1.382-1.383-1.382Zm-1.444 5.51c-.915 0-1.647.732-1.647 1.647s.732 1.647 1.647 1.647 1.647-.732 1.647-1.647-.732-1.647-1.647-1.647Zm.834 5.633c-1.159 0-2.115.956-2.115 2.115 0 1.159.956 2.114 2.115 2.114 1.159 0 2.115-.955 2.115-2.114 0-1.159-.956-2.115-2.115-2.115Zm3.579 5.124c-1.403 0-2.522 1.119-2.522 2.522 0 1.403 1.119 2.521 2.522 2.521 1.403 0 2.521-1.118 2.521-2.521 0-1.403-1.118-2.522-2.521-2.522Zm5.449 3.823c-1.249 0-2.277 1.028-2.277 2.278 0 1.249 1.028 2.277 2.277 2.277 1.25 0 2.278-1.028 2.278-2.277 0-1.25-1.028-2.278-2.278-2.278Zm5.999 1.2c-1.118 0-2.013.894-2.013 2.013 0 1.118.895 2.013 2.013 2.013a2.005 2.005 0 0 0 2.013-2.013c0-1.119-.895-2.013-2.013-2.013Zm5.999-.895c-.814 0-1.485.671-1.485 1.484 0 .814.671 1.485 1.485 1.485.813 0 1.484-.671 1.484-1.485 0-.813-.671-1.484-1.484-1.484Zm5.083-3.253c-.752 0-1.362.61-1.362 1.362 0 .752.61 1.383 1.362 1.383.753 0 1.363-.61 1.363-1.383s-.61-1.362-1.363-1.362Zm3.416-5.084c-.752 0-1.362.61-1.362 1.362 0 .753.61 1.383 1.362 1.383.753 0 1.363-.61 1.363-1.383 0-.772-.61-1.362-1.363-1.362Zm14.011-17.162c-1.673 0-3.05 1.377-3.05 3.05 0 1.673 1.377 3.05 3.05 3.05 1.673 0 3.05-1.377 3.05-3.05 0-1.673-1.377-3.05-3.05-3.05Zm-3.884-7.016c-1.428 0-2.603 1.175-2.603 2.603 0 1.428 1.175 2.603 2.603 2.603 1.428 0 2.603-1.175 2.603-2.603 0-1.428-1.175-2.603-2.603-2.603Zm-5.755-5.51c-1.24 0-2.236.996-2.236 2.236 0 1.241.996 2.237 2.236 2.237a2.23 2.23 0 0 0 2.237-2.237c0-1.24-.996-2.236-2.237-2.236Zm-6.466-3.335c-.892.134-1.558.908-1.558 1.81 0 .901.666 1.675 1.558 1.809.892-.134 1.558-.908 1.558-1.809 0-.902-.666-1.676-1.558-1.81Zm-6.344-1.708c-.859 0-1.566.707-1.566 1.566 0 .858.707 1.565 1.566 1.565.859 0 1.565-.707 1.565-1.565 0-.859-.706-1.566-1.565-1.566Zm-5.979-.448c-.736 0-1.342.606-1.342 1.342 0 .737.606 1.343 1.342 1.343.737 0 1.342-.606 1.342-1.343 0-.736-.605-1.342-1.342-1.342Zm-5.958.448c-.859 0-1.565.707-1.565 1.566 0 .858.706 1.565 1.565 1.565s1.566-.707 1.566-1.565c0-.859-.707-1.566-1.566-1.566Zm-6.344 1.708c-.892.134-1.558.908-1.558 1.81 0 .901.666 1.675 1.558 1.809.892-.134 1.558-.908 1.558-1.809 0-.902-.666-1.676-1.558-1.81Zm-6.466 3.314c-1.241 0-2.237.997-2.237 2.237a2.23 2.23 0 0 0 2.237 2.237c1.24 0 2.236-.996 2.236-2.237 0-1.24-.996-2.237-2.236-2.237Zm-5.755 5.511c-1.423 0-2.603 1.159-2.603 2.603-.007.076-.01.153-.01.23 0 1.427 1.175 2.602 2.603 2.602 1.428 0 2.603-1.175 2.603-2.602 0-.077-.004-.154-.011-.23 0-1.444-1.159-2.603-2.582-2.603Zm-3.884 7.015c-1.673 0-3.05 1.377-3.05 3.051 0 1.673 1.377 3.05 3.05 3.05 1.673 0 3.05-1.377 3.05-3.05 0-1.674-1.377-3.051-3.05-3.051Zm-1.403 8.948c-1.941 0-3.538 1.597-3.538 3.538 0 1.941 1.597 3.538 3.538 3.538 1.941 0 3.538-1.597 3.538-3.538 0-1.941-1.597-3.538-3.538-3.538Zm1.403 9.923c-1.673 0-3.05 1.377-3.05 3.05 0 1.673 1.377 3.05 3.05 3.05 1.673 0 3.05-1.377 3.05-3.05 0-1.673-1.377-3.05-3.05-3.05Zm3.884 7.93c-1.423 0-2.603 1.159-2.603 2.603 0 1.444 1.159 2.582 2.603 2.582 1.422 0 2.593-1.17 2.593-2.592 0-1.423-1.171-2.593-2.593-2.593Zm5.755 6.222c-1.241 0-2.237.997-2.237 2.237a2.23 2.23 0 0 0 2.237 2.237c1.24 0 2.236-.996 2.236-2.237 0-1.24-.996-2.237-2.236-2.237Zm6.466 4.169c-.892.134-1.558.908-1.558 1.81 0 .901.666 1.676 1.558 1.81.892-.134 1.558-.909 1.558-1.81 0-.902-.666-1.676-1.558-1.81Zm6.344 2.216c-.859 0-1.565.707-1.565 1.566 0 .859.706 1.566 1.565 1.566s1.566-.707 1.566-1.566c0-.859-.707-1.566-1.566-1.566Zm5.958.875c-.736 0-1.342.606-1.342 1.342 0 .736.606 1.342 1.342 1.342.737 0 1.342-.606 1.342-1.342 0-.736-.605-1.342-1.342-1.342Zm5.958-.875c-.854 0-1.565.712-1.565 1.566 0 .854.711 1.566 1.565 1.566s1.566-.712 1.566-1.566c0-.854-.712-1.566-1.566-1.566Zm6.345-2.216c-1.017 0-1.83.813-1.83 1.83 0 1.017.813 1.83 1.83 1.83 1.016 0 1.83-.813 1.83-1.83 0-1.017-.814-1.83-1.83-1.83Zm6.466-4.189c-1.24 0-2.237.997-2.237 2.237 0 1.24.997 2.237 2.237 2.237 1.24 0 2.237-.997 2.237-2.237 0-1.24-.997-2.237-2.237-2.237Zm5.755-6.222c-1.423 0-2.593 1.17-2.593 2.592 0 1.423 1.17 2.593 2.593 2.593s2.582-1.159 2.582-2.582c0-1.424-1.159-2.603-2.582-2.603Zm3.884-7.931c-1.674 0-3.051 1.377-3.051 3.051 0 1.673 1.377 3.05 3.051 3.05 1.673 0 3.05-1.377 3.05-3.05 0-1.674-1.377-3.051-3.05-3.051Z"/>
</svg>