<svg xmlns="http://www.w3.org/2000/svg" xml:space="preserve" fill-rule="evenodd" stroke-linejoin="round" stroke-miterlimit="2" clip-rule="evenodd" viewBox="0 0 100 100">
  <path fill="none" d="M0 0h100v100H0z"/>
  <path fill="#4f609b" d="M13.945 69.487h2.889v7.828c0 1.522.8 2.835 2.614 2.835 1.656 0 2.583-1.142 2.583-2.982v-7.681h2.889v7.828c0 3.375-2.089 5.572-5.502 5.572-3.245 0-5.473-2.083-5.473-5.351v-8.049Zm12.379.111h4.601c1.899 0 4.103.906 4.103 3.207 0 2.302-1.744 2.786-1.744 2.786s2.355.596 2.355 3.287c0 2.578-2.166 3.878-4.714 3.878h-4.601V69.598Zm2.91 2.499v2.793h1.471c.989 0 1.516-.599 1.516-1.394 0-.888-.621-1.399-1.59-1.399h-1.397Zm0 4.852v3.277h1.691c1.157 0 1.808-.607 1.808-1.642 0-.89-.503-1.635-1.955-1.635h-1.544Zm7.498-7.352h2.904v13.158h-2.904V69.597Zm31.681 13.158H65.51V69.597h9.115v2.72h-6.212v3.013h5.66v2.206h-5.66v5.219Zm7.277-13.158h10.365v2.72H82.38v10.438h-2.941V72.317H75.69v-2.72ZM42.95 78.38s.671 1.919 2.602 1.919c.975.007 1.6-.577 1.6-1.371 0-2.353-5.972-1.379-5.972-5.863 0-1.879 1.508-3.7 4.346-3.7 3.454 0 4.355 2.402 4.355 2.402l-2.307 1.619s-.596-1.538-2.164-1.538c-.977 0-1.506.526-1.506 1.122 0 2.262 6.151 1.329 6.151 5.728 0 2.73-1.958 4.283-4.619 4.283-3.995 0-4.792-2.915-4.792-2.915l2.306-1.686Zm14.603-9.021c4.008 0 6.82 2.975 6.82 6.815 0 3.601-2.463 6.804-6.804 6.804-3.736 0-6.731-2.494-6.731-6.377 0-3.374 2.213-4.945 2.213-4.945l-.442-.441s1.525-1.856 4.944-1.856Zm.062 2.731c-1.967 0-2.984 1.146-2.984 1.146l.478.478s-1.319.849-1.319 2.796c0 2.139 1.517 3.751 3.825 3.751 2.336 0 3.822-1.821 3.822-4.098 0-2.301-1.504-4.073-3.822-4.073Zm-8.948-55.071c11.784 0 24.669 8.393 24.669 25.009 0 12.739-10.44 23.026-23.079 23.026-13.912 0-23.362-11.183-23.362-23.055-.066-5.816 2.318-10.35 2.318-10.35l-1.895-1.357s6.437-13.273 21.349-13.273Zm.637 22.417c-2.892 0-6.11 2.502-6.11 6.244 0 3.63 2.958 6.331 6.304 6.331 3.497 0 5.21-2.69 5.21-2.69l-1.728-1.208s1.459-1.347 1.459-3.619c0-2.745-2.282-5.058-5.135-5.058Zm-.507-18.367c-6.769 0-12.541 3.243-15.874 8.382l.397.359c2.547-1.983 6.981-4.229 12.205-4.229 9.444 0 17.292 7.548 17.292 16.439 0 7.641-5.146 14.222-12.862 14.222-6.058 0-10.866-4.246-10.866-10.377 0-3.302 2.092-6.662 2.826-7.236l-.393-.426c-2.68 1.672-5.072 4.81-5.072 9.311 0 7.792 6.732 13.476 14.195 13.476 10.141 0 18.843-8.047 18.843-19.617 0-10.915-9.041-20.304-20.691-20.304Zm-3.477 8.506c-7.949 0-14.402 6.481-14.402 14.339 0 2.714 1.037 5.002 1.037 5.002l.553-.202c-.724-7.127 4.207-15.659 13.597-15.659 5.102 0 9.424 2.886 12.061 6.369l.534-.203c-1.469-5.659-7.353-9.646-13.38-9.646Z"/>
</svg>