<svg xmlns="http://www.w3.org/2000/svg" xml:space="preserve" fill-rule="evenodd" stroke-linejoin="round" stroke-miterlimit="2" clip-rule="evenodd" viewBox="0 0 100 100">
  <path fill="none" d="M0 0h100v100H0z"/>
  <clipPath id="a">
    <path d="M0 0h100v100H0z"/>
  </clipPath>
  <g clip-path="url(#a)">
    <path fill="#1434cb" fill-rule="nonzero" d="M60.346 34.99c-6.579 0-12.458 3.41-12.458 9.71 0 7.225 10.427 7.724 10.427 11.353 0 1.528-1.752 2.896-4.743 2.896-4.245 0-7.418-1.911-7.418-1.911l-1.357 6.357s3.655 1.615 8.507 1.615c7.193 0 12.852-3.578 12.852-9.985 0-7.634-10.47-8.118-10.47-11.487 0-1.197 1.438-2.509 4.421-2.509 3.365 0 6.111 1.39 6.111 1.39l1.328-6.14s-2.987-1.289-7.2-1.289Zm-60.187.464L0 36.381s2.768.506 5.26 1.517c3.21 1.158 3.438 1.833 3.979 3.927l5.89 22.707h7.896l12.164-29.078h-7.878l-7.816 19.77-3.189-16.758c-.293-1.918-1.775-3.012-3.588-3.012H.159Zm38.197 0-6.179 29.078h7.512l6.158-29.078h-7.491Zm41.897 0c-1.811 0-2.771.97-3.475 2.664L65.772 64.532h7.878l1.524-4.403h9.597l.927 4.403h6.951l-6.064-29.078h-6.332Zm1.025 7.856 2.335 10.911h-6.256l3.921-10.911Z"/>
  </g>
</svg>