<svg xmlns="http://www.w3.org/2000/svg" xml:space="preserve" fill-rule="evenodd" stroke-linejoin="round" stroke-miterlimit="2" clip-rule="evenodd" viewBox="0 0 100 100">
  <path fill="none" d="M0 0h100v100H0z"/>
  <path fill="#242f61" fill-rule="nonzero" d="M50 79.646c-16.259 0-29.581-13.387-29.581-29.646 0-3.657.653-7.118 1.894-10.383l17.304 34.805c.196.457.523.849 1.045.849.523 0 .849-.392 1.045-.849l7.967-17.827c.065-.196.195-.392.391-.392s.261.196.392.392l7.967 17.827c.195.457.522.849 1.044.849.523 0 .849-.392 1.045-.849l17.304-34.805c1.241 3.265 1.894 6.726 1.894 10.383C79.581 66.259 66.259 79.646 50 79.646Zm0-36.372c-.196 0-.261-.196-.392-.392l-9.272-20.895c3.003-1.11 6.268-1.698 9.664-1.698s6.661.588 9.664 1.698l-9.272 20.895c-.131.262-.196.392-.392.392Zm-9.468 21.484c-.196 0-.262-.196-.392-.392L25.121 34.067c2.677-4.114 6.269-7.575 10.644-9.991l10.839 24.096c.131.391.458.522.784.522h5.224c.392 0 .653-.065.849-.522l10.84-24.096c4.309 2.416 7.966 5.877 10.643 9.991L59.795 64.366c-.065.196-.196.392-.392.392s-.261-.196-.392-.392L53.33 51.437c-.196-.458-.457-.523-.849-.523h-5.224c-.391 0-.653.065-.848.523l-5.486 12.929c-.065.196-.195.392-.391.392ZM50 82.65c18.088 0 32.65-14.562 32.65-32.65S68.088 17.35 50 17.35 17.35 31.912 17.35 50 31.912 82.65 50 82.65Z"/>
</svg>